<svg width="145" height="35" viewBox="0 0 145 35" fill="none" xmlns="http://www.w3.org/2000/svg">
<g clip-path="url(#clip0_301_1053)">
<path d="M1.70286 4.85664C-2.60829 9.67433 2.53295 13.8602 3.3095 14.65L23.6067 34.5L30.301 27.8921C30.301 27.8921 36.7008 21.2053 29.4174 12.6229C29.4174 12.6229 39.8338 11.8594 40.3693 0.512805H11.7443C11.7443 0.512805 6.01401 0.0389326 1.70286 4.85664ZM8.50433 5.40949C9.68254 4.25113 11.5837 4.25113 12.7351 5.40949C13.9133 6.56784 13.9133 8.43701 12.7351 9.56901C11.5569 10.7274 9.65577 10.7274 8.50433 9.56901C7.32609 8.43701 7.32609 6.56784 8.50433 5.40949Z" fill="#6001D2"/>
<path d="M43.977 21.0937C44.0305 21.8571 44.1641 22.489 44.3779 23.0418C44.5917 23.5947 44.8589 24.0422 45.2063 24.3845C45.5538 24.753 45.9546 25.0163 46.4356 25.1742C46.9167 25.3585 47.4512 25.4375 48.0124 25.4375C48.5736 25.4375 49.0814 25.3585 49.509 25.2268C49.9365 25.0952 50.284 24.9373 50.6046 24.7793C50.9253 24.6214 51.1926 24.4634 51.4331 24.3318C51.6736 24.2001 51.8874 24.1212 52.1279 24.1212C52.4219 24.1212 52.6624 24.2264 52.796 24.4371L53.8115 25.727C53.4107 26.1746 52.9831 26.5695 52.4754 26.8854C51.9943 27.2014 51.4598 27.4383 50.9253 27.6225C50.3908 27.8069 49.8564 27.9385 49.2952 28.0174C48.734 28.0964 48.1994 28.1228 47.6917 28.1228C46.6494 28.1228 45.6874 27.9648 44.8055 27.6225C43.9236 27.2803 43.1486 26.7802 42.4805 26.1219C41.8123 25.4638 41.3046 24.6477 40.9305 23.6736C40.5564 22.6995 40.3693 21.5676 40.3693 20.2775C40.3693 19.2772 40.5296 18.3294 40.8503 17.4606C41.171 16.5919 41.652 15.8284 42.2667 15.1702C42.8813 14.5121 43.6296 14.0119 44.5115 13.617C45.3934 13.2484 46.3822 13.0378 47.5047 13.0378C48.44 13.0378 49.2952 13.1958 50.0969 13.4853C50.8986 13.7749 51.5667 14.2225 52.1279 14.7753C52.6892 15.3282 53.1434 16.039 53.4642 16.8552C53.7848 17.6712 53.9451 18.6189 53.9451 19.6721C53.9451 20.1986 53.8917 20.5671 53.7581 20.7514C53.6512 20.9357 53.4107 21.041 53.09 21.041H43.977V21.0937ZM50.7917 18.9612C50.7917 18.5137 50.7382 18.0661 50.6046 17.6712C50.471 17.2763 50.284 16.9078 50.0167 16.6182C49.7494 16.3022 49.4288 16.0653 49.0279 15.9074C48.627 15.7231 48.1727 15.6441 47.6382 15.6441C46.596 15.6441 45.7942 15.9337 45.2063 16.5129C44.6184 17.092 44.2443 17.9082 44.0572 18.9875H50.7917V18.9612Z" fill="white"/>
<path d="M67.3608 14.8016C67.3608 15.0386 67.3073 15.3018 67.2271 15.5388C67.147 15.7757 67.0133 15.96 66.8797 16.118L59.8245 25.2795H67.147V27.9911H55.6823V26.5168C55.6823 26.3589 55.7089 26.1746 55.7891 25.9377C55.8694 25.727 55.9762 25.4901 56.1365 25.3058L63.2719 16.039H56.1098V13.3274H67.3608V14.8016Z" fill="white"/>
<path d="M74.9505 28.2016C73.6677 28.2016 72.6522 27.833 71.9841 27.1222C71.2893 26.4114 70.9418 25.411 70.9418 24.1474V15.9862H69.4186C69.2315 15.9862 69.0712 15.9335 68.9376 15.8019C68.8039 15.6703 68.7238 15.486 68.7238 15.2491V13.8538L71.1022 13.4589L71.8505 9.45733C71.904 9.273 71.9841 9.11506 72.1177 9.00974C72.2513 8.90443 72.4384 8.85181 72.6522 8.85181H74.4962V13.4589H78.4514V15.9599H74.4962V23.8841C74.4962 24.3316 74.6031 24.7002 74.8436 24.9634C75.0574 25.2267 75.3781 25.3583 75.7789 25.3583C75.9927 25.3583 76.1798 25.332 76.3401 25.2794C76.5005 25.2267 76.6074 25.1741 76.741 25.1215C76.8479 25.0688 76.9548 25.0161 77.035 24.9634C77.1151 24.9108 77.2221 24.8845 77.3022 24.8845C77.4091 24.8845 77.4893 24.9108 77.5695 24.9634C77.6497 25.0161 77.7031 25.0951 77.7833 25.2004L78.8523 26.9116C78.3177 27.3328 77.7298 27.6751 77.0617 27.8857C76.3668 28.0963 75.6721 28.2016 74.9505 28.2016Z" fill="white"/>
<path d="M84.1437 15.8809C84.5976 15.0121 85.1595 14.3277 85.8005 13.8275C86.4422 13.3273 87.1903 13.0903 88.0718 13.0903C88.7672 13.0903 89.3011 13.2483 89.7286 13.5378L89.4881 16.1705C89.4353 16.3548 89.3818 16.4601 89.2747 16.5391C89.1948 16.6181 89.0605 16.6444 88.9007 16.6444C88.7672 16.6444 88.553 16.6181 88.2589 16.5654C87.9656 16.5128 87.6978 16.4864 87.4309 16.4864C87.0297 16.4864 86.682 16.5391 86.3615 16.6707C86.041 16.8023 85.7741 16.9603 85.5335 17.1709C85.293 17.3815 85.0787 17.6448 84.8917 17.9607C84.7047 18.2766 84.5177 18.6188 84.357 19.0137V28.0173H80.7764V13.3273H82.8873C83.2613 13.3273 83.5019 13.3799 83.6625 13.5115C83.796 13.6432 83.9031 13.8801 83.9566 14.1961L84.1437 15.8809Z" fill="white"/>
<path d="M91.0386 15.3807C92.7489 13.8274 94.807 13.064 97.2118 13.064C98.0934 13.064 98.8686 13.1956 99.5368 13.4852C100.231 13.7748 100.793 14.1433 101.273 14.6435C101.755 15.1437 102.102 15.7492 102.343 16.4337C102.583 17.1182 102.717 17.8817 102.717 18.7241V27.9646H101.086C100.74 27.9646 100.499 27.912 100.312 27.8067C100.125 27.7014 99.9907 27.517 99.8844 27.2012L99.5631 26.1481C99.1891 26.4903 98.8151 26.78 98.4674 27.0168C98.1205 27.2802 97.7465 27.4907 97.3453 27.6487C96.9712 27.833 96.5437 27.9383 96.1161 28.0436C95.6885 28.1226 95.181 28.1753 94.6727 28.1753C94.0581 28.1753 93.4707 28.0963 92.936 27.9383C92.4013 27.7803 91.9473 27.517 91.5733 27.2012C91.1984 26.8589 90.8779 26.464 90.6646 25.9638C90.4504 25.4636 90.3433 24.8845 90.3433 24.2263C90.3433 23.8577 90.3968 23.4892 90.5311 23.1206C90.6646 22.752 90.8516 22.4098 91.1457 22.0676C91.439 21.7253 91.7867 21.4093 92.2414 21.1198C92.6954 20.8302 93.2564 20.567 93.9246 20.3563C94.5928 20.1458 95.368 19.9614 96.2232 19.8298C97.1047 19.6982 98.0933 19.6192 99.2426 19.5929V18.7241C99.2426 17.7501 99.0293 17.0129 98.6017 16.539C98.1741 16.0652 97.5595 15.8282 96.757 15.8282C96.1696 15.8282 95.6885 15.9072 95.3145 16.0388C94.9404 16.1704 94.5928 16.3284 94.2986 16.4864C94.0045 16.6443 93.7376 16.8023 93.497 16.9339C93.2564 17.0655 92.9895 17.1445 92.6954 17.1445C92.4548 17.1445 92.2414 17.0919 92.0536 16.9603C91.8666 16.8287 91.7331 16.6706 91.626 16.5127L91.0386 15.3807ZM99.2426 21.7253C98.2005 21.7779 97.3453 21.8569 96.6236 21.9886C95.9291 22.1202 95.3408 22.2781 94.9404 22.4888C94.5128 22.6994 94.2187 22.91 94.0317 23.1996C93.8447 23.4629 93.7639 23.7524 93.7639 24.0683C93.7639 24.6738 93.9518 25.1214 94.3258 25.3847C94.6999 25.6479 95.181 25.7796 95.7684 25.7796C96.4901 25.7796 97.1319 25.6479 97.6658 25.3847C98.2004 25.1214 98.7351 24.7265 99.2426 24.1999V21.7253Z" fill="white"/>
<path d="M116.72 16.4339C116.614 16.5655 116.507 16.6708 116.4 16.7498C116.292 16.8287 116.159 16.8551 115.946 16.8551C115.759 16.8551 115.572 16.8024 115.411 16.6971C115.224 16.5918 115.037 16.4602 114.796 16.3285C114.556 16.1969 114.262 16.0653 113.941 15.96C113.621 15.8547 113.193 15.802 112.712 15.802C112.097 15.802 111.536 15.9073 111.055 16.1443C110.574 16.3549 110.2 16.6971 109.879 17.1183C109.558 17.5396 109.318 18.0398 109.184 18.6452C109.023 19.2508 108.944 19.9089 108.944 20.6724C108.944 21.4622 109.023 22.1467 109.184 22.7522C109.345 23.3576 109.585 23.8842 109.906 24.2791C110.226 24.7003 110.6 25.0162 111.055 25.2268C111.509 25.4375 112.017 25.5428 112.578 25.5428C113.139 25.5428 113.621 25.4638 113.967 25.3321C114.315 25.2005 114.609 25.0426 114.85 24.8846C115.09 24.7266 115.304 24.5687 115.491 24.4371C115.678 24.3054 115.865 24.2264 116.079 24.2264C116.373 24.2264 116.587 24.3317 116.72 24.5424L117.736 25.8324C117.335 26.2799 116.908 26.6748 116.453 26.9907C115.999 27.3066 115.518 27.5435 115.01 27.7279C114.502 27.9121 113.995 28.0437 113.487 28.1227C112.952 28.2017 112.444 28.2281 111.91 28.2281C111.002 28.2281 110.119 28.07 109.318 27.7279C108.516 27.3856 107.794 26.8854 107.18 26.2535C106.565 25.5954 106.084 24.8056 105.737 23.8842C105.389 22.9364 105.202 21.8834 105.202 20.6724C105.202 19.593 105.362 18.5926 105.684 17.6712C106.004 16.7498 106.458 15.96 107.073 15.3018C107.688 14.6437 108.436 14.1172 109.345 13.7223C110.254 13.3537 111.268 13.1431 112.444 13.1431C113.567 13.1431 114.529 13.3274 115.357 13.6696C116.186 14.0118 116.934 14.5384 117.602 15.1702L116.72 16.4339Z" fill="white"/>
<path d="M123.615 6.77197V18.9084H124.283C124.524 18.9084 124.711 18.882 124.845 18.8031C124.979 18.7504 125.138 18.6188 125.273 18.4345L128.987 13.9591C129.147 13.7484 129.308 13.6168 129.495 13.5115C129.682 13.4062 129.923 13.3535 130.216 13.3535H133.477L128.853 18.7768C128.533 19.198 128.159 19.5402 127.785 19.7508C127.998 19.8824 128.159 20.0668 128.318 20.251C128.479 20.4353 128.64 20.6459 128.773 20.8565L133.717 27.9646H130.484C130.216 27.9646 129.949 27.9119 129.762 27.833C129.548 27.754 129.388 27.5697 129.254 27.3328L125.46 21.7779C125.325 21.5673 125.192 21.4094 125.032 21.3567C124.871 21.304 124.657 21.2514 124.39 21.2514H123.589V27.9646H120.007V6.77197H123.615Z" fill="white"/>
<path d="M138.902 15.8809C139.356 15.0121 139.917 14.3277 140.559 13.8275C141.2 13.3273 141.948 13.0903 142.83 13.0903C143.524 13.0903 144.059 13.2483 144.487 13.5378L144.246 16.1705C144.193 16.3548 144.139 16.4601 144.033 16.5391C143.952 16.6181 143.819 16.6444 143.659 16.6444C143.524 16.6444 143.311 16.6181 143.017 16.5654C142.723 16.5128 142.456 16.4864 142.189 16.4864C141.788 16.4864 141.44 16.5391 141.12 16.6707C140.799 16.776 140.531 16.9603 140.291 17.1709C140.051 17.3815 139.837 17.6448 139.65 17.9607C139.463 18.2766 139.276 18.6188 139.115 19.0137V28.0173H135.535V13.3273H137.645C138.019 13.3273 138.26 13.3799 138.421 13.5115C138.554 13.6432 138.661 13.8801 138.715 14.1961L138.902 15.8809Z" fill="white"/>
</g>
<defs>
<clipPath id="clip0_301_1053">
<rect width="145" height="34" fill="white" transform="translate(0 0.5)"/>
</clipPath>
</defs>
</svg>
