<svg width="150" height="35" viewBox="0 0 150 35" fill="none" xmlns="http://www.w3.org/2000/svg">
<path d="M136.71 8.67358H131.886L138.214 19.0435L140.325 15.2055L136.71 8.67358Z" fill="white"/>
<path d="M41.6945 26.4523V8.54761H45.9317V22.7173H54.932V26.4523H41.6945Z" fill="white"/>
<path d="M56.6046 17.501C56.6046 12.1282 60.5686 8.24072 66.0529 8.24072C71.5371 8.24072 75.477 12.1092 75.477 17.501C75.477 22.8928 71.5129 26.7593 66.0287 26.7593C60.5445 26.7593 56.6046 22.8966 56.6046 17.501ZM71.0149 17.501C71.0149 14.2598 68.9706 12.0787 66.0529 12.0787C63.1351 12.0787 61.0667 14.2522 61.0667 17.501C61.0667 20.7498 63.111 22.9233 66.0529 22.9233C68.9948 22.9233 71.0149 20.7479 71.0149 17.501Z" fill="white"/>
<path d="M91.6843 26.4523L90.4875 23.4342H82.2602L81.0392 26.4523H76.6013L84.2543 8.54761H88.5436L96.2207 26.4523H91.6843ZM83.6076 20.0824H89.1494L86.399 13.2035L83.6076 20.0824Z" fill="white"/>
<path d="M99.3411 26.4523V8.54761H107.094C113.002 8.54761 116.792 12.0519 116.792 17.4742C116.792 22.948 113.002 26.4523 107.094 26.4523H99.3411ZM103.628 22.6925H106.894C110.259 22.6925 112.354 20.7478 112.354 17.5009C112.354 14.2254 110.259 12.2998 106.894 12.2998H103.628V22.6925Z" fill="white"/>
<path d="M120.929 26.4523V8.54761H125.168V22.7173H134.166V26.4523H120.929Z" fill="white"/>
<path d="M145.341 8.54565L141.104 16.2482L138.933 20.191V26.4503H143.248V19.905L150 8.54565H145.341Z" fill="white"/>
<path d="M22.7459 6.45615L19.3896 0.5L0.216187 34.5L10.2406 28.6392L22.7459 6.45615Z" fill="#363C7D"/>
<path d="M35.2531 28.6392H10.2406L0.216187 34.5H38.5574L35.2531 28.6392Z" fill="#62D2A4"/>
<g style="mix-blend-mode:multiply" opacity="0.5">
<path d="M10.2406 28.6392L0.216187 34.5L17.1223 28.6392H10.2406Z" fill="#56B78E"/>
</g>
</svg>
