{"accessors" : [{"bufferView" : 0, "byteOffset" : 0, "componentType" : 5123, "count" : 864, "type" : "SCALAR", "max" : [145], "min" : [0]}, {"bufferView" : 1, "byteOffset" : 0, "componentType" : 5126, "count" : 146, "type" : "VEC3", "max" : [2.066575765609741, 1.8535078763961792, 0.25], "min" : [-2.066575765609741, -1.8535078763961792, -0.25000011920928955], "name" : "POSITION"}, {"bufferView" : 1, "byteOffset" : 12, "componentType" : 5126, "count" : 146, "type" : "VEC3", "max" : [1.0000044107437134, 1.0000044107437134, 1.0000044107437134], "min" : [0, 0, 0], "name" : "NORMAL"}, {"bufferView" : 0, "byteOffset" : 1728, "componentType" : 5123, "count" : 540, "type" : "SCALAR", "max" : [91], "min" : [0]}, {"bufferView" : 2, "byteOffset" : 0, "componentType" : 5126, "count" : 92, "type" : "VEC3", "max" : [0.9802116751670837, 0.18033695220947266, 0.342885285615921], "min" : [-0.9930236339569092, -0.010867834091186523, -1.360155701637268], "name" : "POSITION"}, {"bufferView" : 2, "byteOffset" : 12, "componentType" : 5126, "count" : 92, "type" : "VEC3", "max" : [0.9180777072906494, 1.0000044107437134, 0.8698218464851379], "min" : [0, 0, 0], "name" : "NORMAL"}, {"bufferView" : 0, "byteOffset" : 2808, "componentType" : 5123, "count" : 540, "type" : "SCALAR", "max" : [91], "min" : [0]}, {"bufferView" : 3, "byteOffset" : 0, "componentType" : 5126, "count" : 92, "type" : "VEC3", "max" : [0.5906655788421631, -0.0010690689086914062, 0.3424592912197113], "min" : [-0.5963312387466431, -0.17299580574035645, -0.6885403990745544], "name" : "POSITION"}, {"bufferView" : 3, "byteOffset" : 12, "componentType" : 5126, "count" : 92, "type" : "VEC3", "max" : [0.9177151918411255, 1.0000044107437134, 0.8698922991752625], "min" : [0, 0, 0], "name" : "NORMAL"}], "asset" : {"generator" : "Aspose.3D 24.4.1", "version" : "2.0"}, "buffers" : [{"uri" : "data:application/octet-stream;base64,", "byteLength" : 11824}], "bufferViews" : [{"buffer" : 0, "byteOffset" : 0, "byteLength" : 3888, "target" : 34963}, {"buffer" : 0, "byteOffset" : 3892, "byteLength" : 3504, "byteStride" : 24, "target" : 34962}, {"buffer" : 0, "byteOffset" : 7400, "byteLength" : 2208, "byteStride" : 24, "target" : 34962}, {"buffer" : 0, "byteOffset" : 9612, "byteLength" : 2208, "byteStride" : 24, "target" : 34962}], "materials" : [{"name" : "MAVue Green 01", "pbrMetallicRoughness" : {"baseColorFactor" : [0.800000011920929, 0.800000011920929, 0.800000011920929, 0], "metallicFactor" : 0, "roughnessFactor" : 0.4000000059604645}, "emissiveFactor" : [0, 0, 0], "alphaMode" : "BLEND", "doubleSided" : false}, {"name" : "MAVue Green 02", "pbrMetallicRoughness" : {"baseColorFactor" : [0.800000011920929, 0.800000011920929, 0.800000011920929, 0], "metallicFactor" : 0, "roughnessFactor" : 0.4000000059604645}, "emissiveFactor" : [0, 0, 0], "alphaMode" : "BLEND", "doubleSided" : false}], "meshes" : [{"primitives" : [{"attributes" : {"POSITION" : 1, "NORMAL" : 2}, "indices" : 0, "mode" : 4}], "name" : "MEPlane.020"}, {"primitives" : [{"attributes" : {"POSITION" : 4, "NORMAL" : 5}, "indices" : 3, "material" : 0, "mode" : 4}], "name" : "MEPlane.019"}, {"primitives" : [{"attributes" : {"POSITION" : 7, "NORMAL" : 8}, "indices" : 6, "material" : 1, "mode" : 4}], "name" : "MEPlane.022"}], "nodes" : [{"matrix" : [2.3226566314697266, 0, 0, 0, 0, -0.06366907712999584, 2.3217838134347746, 0, 0, -2.3217838134347746, -0.06366907712999584, 0, -1.085182255167183E-08, 0.6272049850660375, 3.7730309518199308, 1], "mesh" : 0, "name" : "OBPlane.016"}, {"matrix" : [13.812770901250133, 0, 0, 0, 0, 13.812770901250133, 0, 0, 0, 0, 13.812770901250133, 0, 0.024021581274660253, -2.8337583550519554, 20.150517126274167, 1], "mesh" : 1, "name" : "OBVue"}, {"matrix" : [13.812770901250133, 0, 0, 0, 0, 13.812770901250133, 0, 0, 0, 0, 13.812770901250133, 0, 0.024021581274660253, -2.8337583550519554, 20.150517126274167, 1], "mesh" : 2, "name" : "OBVue.001"}, {"children" : [0, 1, 2], "name" : "GRVueJs"}], "scene" : 0, "scenes" : [{"nodes" : [3]}]}