<svg width="100" height="100" viewBox="0 0 100 100" fill="none" xmlns="http://www.w3.org/2000/svg">
<path d="M14.9079 15.625C13.4094 15.625 12.2868 16.9984 12.5337 18.3719L22.6508 80.3164C22.9008 81.9399 24.2735 83.0625 25.8969 83.0625H74.8501C75.9766 83.0625 76.9751 82.1875 77.2251 81.0641L87.4665 18.4969C87.7134 16.9984 86.5907 15.75 85.0923 15.75L14.9079 15.625ZM57.8673 60.3336H42.2579L38.1344 38.2297H61.7399L57.8673 60.3336Z" fill="#2684FF"/>
<path d="M84.0936 38.2295H61.6155L57.8671 60.3334H42.2577L23.8983 82.1865C23.8983 82.1865 24.7733 82.9373 26.0225 82.9373H74.9757C76.1014 82.9373 77.0999 82.0623 77.3499 80.9389L84.0936 38.2295Z" fill="url(#paint0_linear_154_2044)"/>
<defs>
<linearGradient id="paint0_linear_154_2044" x1="89.353" y1="44.4561" x2="52.0999" y2="73.5373" gradientUnits="userSpaceOnUse">
<stop offset="0.176" stop-color="#0052CC"/>
<stop offset="1" stop-color="#2684FF"/>
</linearGradient>
</defs>
</svg>
