<svg width="101" height="100" viewBox="0 0 101 100" fill="none" xmlns="http://www.w3.org/2000/svg">
<path d="M92.2969 26.1719L92.5312 26.0156C92.0625 25.1562 91.3594 24.375 90.6562 23.9844L52.9219 2.26563C52.2969 1.875 51.4375 1.71875 50.5 1.71875C49.5625 1.71875 48.7031 1.95313 48.0781 2.26563L10.5781 24.0625C9.25 24.8438 8.3125 26.7969 8.3125 28.2813V71.7969C8.3125 72.6563 8.46875 73.5938 9.01562 74.4531L8.85937 74.5313C9.25 75.1563 9.79688 75.7031 10.3438 76.0156L48 97.8125C48.625 98.2031 49.4844 98.3594 50.4219 98.3594C51.3594 98.3594 52.2188 98.125 52.8438 97.8125L90.3438 76.0156C91.6719 75.2344 92.6094 73.2813 92.6094 71.7969V28.2031C92.6875 27.5781 92.6094 26.875 92.2969 26.1719ZM50.5 69.1406C57.6094 69.1406 63.8594 65.2344 67.1406 59.4531L77.2188 65.3906C71.9062 74.6094 61.9062 80.8594 50.5 80.8594C33.4688 80.8594 19.6406 67.0312 19.6406 50C19.6406 32.9688 33.4688 19.1406 50.5 19.1406C61.9844 19.1406 71.9844 25.4688 77.2969 34.7656L67.1406 40.625C63.8594 34.7656 57.6094 30.8594 50.5 30.8594C39.9531 30.8594 31.3594 39.4531 31.3594 50C31.3594 60.5469 39.9531 69.1406 50.5 69.1406Z" fill="#03599C"/>
</svg>
