<svg width="100" height="100" viewBox="0 0 100 100" fill="none" xmlns="http://www.w3.org/2000/svg">
<path d="M46.3985 0.118439C46.0204 0.158283 44.8399 0.298127 43.7985 0.420783C39.6 0.899689 34.8391 2.16063 30.661 3.92078C15.5399 10.2388 4.15942 24.1005 1.01958 39.9997C0.280518 43.7809 0.10083 45.6388 0.10083 49.9997C0.10083 55.6208 0.659424 59.4997 2.13989 64.4013C6.97974 80.4403 19.5797 93.02 35.6602 97.8786C40.5 99.3403 44.4 99.8989 50 99.8989C55.6211 99.8989 59.5 99.3403 64.4016 97.8599C80.4407 93.02 93.0204 80.42 97.879 64.3395C99.3407 59.4997 99.8993 55.5997 99.8993 49.9997C99.8993 47.6192 99.7805 44.9005 99.6399 43.8989C98.0196 32.3395 93.2586 22.6192 85.3211 14.6786C77.3985 6.79891 67.7188 2.02 56.3985 0.399689C54.8391 0.179377 47.6188 -0.022186 46.3985 0.118439ZM30.0993 31.6184C31.1618 31.9388 31.6586 32.2388 32.379 32.9583C33.7797 34.3802 34.1 35.1591 34.1 37.2981C34.1 38.9005 34.0391 39.1997 33.5602 40.0388C32.6383 41.5981 30.4993 43.0388 29.0196 43.0778C27.9782 43.0997 28.0211 42.6388 29.1602 41.4395C30.6797 39.8591 30.8993 39.2598 30.8993 36.8981C30.8805 34.6192 30.6 33.8403 29.5407 33.1997C28.6594 32.6598 27.7008 32.6997 26.3 33.3583C22.6594 35.1005 18.7196 40.8997 17.1813 46.8411C15.1399 54.7606 18.7594 61.0989 24.7196 60.0184C26.4586 59.6981 29.7391 58.02 31.1618 56.6981C32.3399 55.6208 32.3399 55.5997 32.4586 54.2606C32.7211 51.4583 34.6985 48.6598 37.3415 47.3598C38.5586 46.7583 38.861 46.7005 40.5 46.7005C42.0594 46.7005 42.4196 46.7802 43.1797 47.1981C45.5993 48.5809 45.0993 51.7997 42.4805 51.7997C40.961 51.7997 40.1797 51.0184 41.2813 50.6013C42.3618 50.2013 41.9586 48.6997 40.7016 48.3606C39.2211 47.9794 37.5399 48.9802 36.4805 50.8997C35.1993 53.22 35.1407 55.9809 36.3586 57.2388C37.5399 58.4989 39.0196 57.5013 40.161 54.638C40.7594 53.1794 41.6196 52.3981 42.6211 52.3981C43.5 52.3981 43.6618 52.9388 43.2797 54.5802C42.7188 57.1192 43.1 57.7786 44.6805 57.0005C45.1993 56.7591 46.0602 56.2013 46.5789 55.8013L47.5586 55.02L48.2211 51.5591C48.9414 47.6802 49.2188 47.1583 50.6993 46.8809C52.1211 46.6184 52.4415 47.32 51.9196 49.5388L51.6383 50.7809L52.6797 49.7184C55.1391 47.1981 58.1602 45.9591 59.2008 46.9997C59.7594 47.5583 59.6985 48.2598 58.8993 50.738C58.5204 51.9192 57.9985 53.7809 57.761 54.8395C57.4008 56.4388 57.379 56.82 57.5813 57.0802C58.2219 57.8395 60.1805 57.0583 61.9204 55.3583L62.9399 54.3606L63.0618 52.1388C63.1805 49.5786 63.4188 48.6599 64.0993 47.8388C64.7399 47.0794 65.9 46.5208 66.5196 46.6794C67.1391 46.8411 67.1391 47.4395 66.5805 49.2005C65.7993 51.62 65.8813 57.1989 66.6813 57.1989C67.0016 57.1989 68.6399 55.4802 69.6813 54.0403L70.4594 52.9778L69.8399 52.3403C68.7594 51.1997 68.5 50.4606 68.5 48.5989C68.5 47.2411 68.6008 46.7403 68.9391 46.0778C69.5008 45.0403 70.3797 44.2809 71.4204 43.9786C72.5188 43.6395 73.8797 44.1981 74.4383 45.1989C75 46.2184 74.8602 48.4981 74.1391 50.0606L73.6204 51.1989H74.3196C75.2805 51.1989 75.6594 50.9606 77.3805 49.3403C78.2805 48.4802 79.3211 47.7388 80.0993 47.3786C83.1602 45.9411 86.7618 46.6794 87.3594 48.8794C87.8594 50.6403 86.7618 51.8794 84.8391 51.7388C83.4594 51.6388 83.2 51.2778 84 50.6013C85.4399 49.3981 84 47.8606 81.9399 48.4192C80.8196 48.7208 79.5594 49.9786 78.9008 51.4403C77.5789 54.3606 78.2805 57.7997 80.1789 57.7997C80.9391 57.7997 82.2813 56.2989 82.8 54.8395C83.4196 53.1583 84.7196 52.0997 85.6993 52.4802C86.2399 52.6794 86.2797 53.2192 85.9407 54.9192C85.5594 56.7809 85.5008 58.5208 85.8 59.32C85.9196 59.6184 86.2797 60.1802 86.6211 60.5591C87.2586 61.2786 87.2805 61.5388 86.7399 61.8802C86.4805 62.0599 86.1383 61.9809 85.3 61.5208C84.1399 60.9192 83.1391 59.8388 82.779 58.8192L82.5594 58.2208L81.7594 58.8192C81.2985 59.1395 80.579 59.4997 80.1602 59.6184C78.5 60.0583 76.4586 58.92 75.5008 57.0005C75.1188 56.2583 75 54.0802 75.2805 53.2403C75.4399 52.7794 75.4399 52.7794 74.7985 53.0997C74.4602 53.2802 73.7399 53.4786 73.1813 53.5395C72.2594 53.6411 72.1188 53.7411 71.2008 54.9005C69.9008 56.5177 67.5993 58.7005 66.6594 59.1614C64.661 60.1591 64.0016 59.8786 63.4797 57.8177L63.1196 56.4388L62.2586 57.1989C61.1602 58.1599 58.9602 59.32 57.6993 59.6005C56.5 59.8599 55.2188 59.4786 54.6993 58.6786C53.9219 57.4794 54.1813 54.9403 55.4196 51.5192C56.3383 48.9802 55.6797 48.9411 53.3602 51.3606C51.6391 53.1794 50.9 54.4794 50.4211 56.4997C49.9211 58.5997 49.3196 59.3591 47.9618 59.6794C47.1407 59.8599 46.7586 59.3591 46.9211 58.2606L47.0399 57.3786L46.2797 57.9005C45.1993 58.6395 43.8383 59.32 42.8985 59.5794C41.9586 59.8388 40.7196 59.5606 40.4204 59.0388C39.8805 58.1208 39.8805 58.1208 39.0415 58.7794C37.2196 60.2599 34.6196 59.8388 33.3008 57.8794L32.879 57.2599L31.561 58.4802C27.7586 61.9599 23.0008 63.5192 19.4797 62.4388C14.9993 61.0809 12.5211 57.2388 12.561 51.6997C12.5797 46.1395 15.0391 40.2802 19.1805 35.9403C21.5211 33.4989 23.7211 32.0583 25.9618 31.5184C27.579 31.1184 28.5618 31.1395 30.0993 31.6192V31.6184Z" fill="#00C4CC"/>
<path d="M70.6392 45.8404C70.1993 46.2794 70.3611 48.0404 70.9204 49.1607C71.2009 49.7404 71.5001 50.2013 71.6001 50.2013C71.6798 50.2013 71.8595 49.7404 72.0001 49.1786C72.5001 47.1005 71.6001 44.8786 70.6392 45.8404Z" fill="#00C4CC"/>
</svg>
