<svg width="100" height="100" viewBox="0 0 100 100" fill="none" xmlns="http://www.w3.org/2000/svg">
<path d="M15.2281 67.3645C14.4197 68.6399 13.6262 69.9246 12.8477 71.2184C12.1703 72.3512 12.5094 73.8247 13.6414 74.5051L29.1594 84.027C30.2922 84.7067 31.7625 84.3653 32.443 83.2333C33.1715 81.933 33.9266 80.6478 34.7078 79.3786C40.8266 69.2926 47.0547 70.4255 58.1539 75.7536L73.5602 83.0044C74.8047 83.5723 76.1656 83.0044 76.7305 81.8715L84.0946 65.213C84.6586 64.0778 84.0946 62.6067 82.9586 62.0387C79.675 60.5645 73.2211 57.5036 67.557 54.6716C46.6039 44.5825 28.818 45.263 15.2289 67.3645H15.2281Z" fill="url(#paint0_linear_154_2037)"/>
<path d="M84.7719 29.5101C85.5803 28.2348 86.3738 26.95 87.1523 25.6562C87.832 24.5234 87.4906 23.0499 86.3586 22.3695L70.8406 12.8476C69.7078 12.1679 68.2375 12.5093 67.557 13.6414C66.8297 14.9423 66.0746 16.2275 65.2922 17.496C59.1734 27.582 52.9453 26.4492 41.8461 21.121L26.4398 13.8703C25.1953 13.3023 23.8375 13.8703 23.2695 15.0031L15.9086 31.6617C15.3414 32.7968 15.9086 34.271 17.0414 34.8359C20.325 36.3101 26.782 39.371 32.4429 42.2031C53.4 52.1796 71.182 51.6109 84.7711 29.5101H84.7719Z" fill="url(#paint1_linear_154_2037)"/>
<defs>
<linearGradient id="paint0_linear_154_2037" x1="83.7219" y1="88.959" x2="36.85" y2="62.0465" gradientUnits="userSpaceOnUse">
<stop stop-color="#0052CC"/>
<stop offset="0.918" stop-color="#2380FB"/>
<stop offset="1" stop-color="#2684FF"/>
</linearGradient>
<linearGradient id="paint1_linear_154_2037" x1="16.2781" y1="7.88433" x2="63.15" y2="34.7999" gradientUnits="userSpaceOnUse">
<stop stop-color="#0052CC"/>
<stop offset="0.918" stop-color="#2380FB"/>
<stop offset="1" stop-color="#2684FF"/>
</linearGradient>
</defs>
</svg>
