<svg width="100" height="100" viewBox="0 0 100 100" fill="none" xmlns="http://www.w3.org/2000/svg">
<g clip-path="url(#clip0_154_2007)">
<path d="M17.7083 8.06015e-06H82.2917C84.6178 -0.00224053 86.9215 0.466009 89.0709 1.37796C91.2204 2.28991 93.1734 3.62765 94.8182 5.31463C96.463 7.00162 97.7673 9.00471 98.6565 11.2093C99.5457 13.4139 100.002 15.7766 100 18.1624V81.8376C100.002 84.2234 99.5457 86.5861 98.6565 88.7907C97.7673 90.9953 96.463 92.9984 94.8182 94.6854C93.1734 96.3723 91.2204 97.7101 89.0709 98.622C86.9215 99.534 84.6178 100.002 82.2917 100H17.7083C15.3822 100.002 13.0785 99.534 10.9291 98.622C8.7796 97.7101 6.82658 96.3723 5.18177 94.6854C3.53696 92.9984 2.23266 90.9953 1.34351 88.7907C0.454359 86.5861 -0.00218452 84.2234 7.85865e-06 81.8376V18.1624C-0.00218452 15.7766 0.454359 13.4139 1.34351 11.2093C2.23266 9.00471 3.53696 7.00162 5.18177 5.31463C6.82658 3.62765 8.7796 2.28991 10.9291 1.37796C13.0785 0.466009 15.3822 -0.00224053 17.7083 8.06015e-06Z" fill="#2965F1"/>
<path d="M24.4776 41.2238L25.4615 52.2039H50.0328V41.2238H24.4776ZM22.5 19L23.4981 29.9801H50.0328V19H22.5ZM50.0328 69.7403L49.9847 69.753L37.7563 66.4511L36.9745 57.6941H25.9521L27.4903 74.9345L49.9823 81.178L50.0328 81.1642V69.7403Z" fill="#EBEBEB"/>
<path d="M75.5179 41.2238L77.5 19H49.995V29.9801H65.4668L64.4677 41.2238H49.995V52.2039H63.5157L62.2409 66.4443L49.9946 69.7496V81.1728L72.5045 74.9345L72.6695 73.0793L75.2501 44.1723L75.5179 41.2238Z" fill="white"/>
</g>
<defs>
<clipPath id="clip0_154_2007">
<rect width="100" height="100" fill="white"/>
</clipPath>
</defs>
</svg>
