<svg width="101" height="100" viewBox="0 0 101 100" fill="none" xmlns="http://www.w3.org/2000/svg">
<path d="M50.2844 86.504V72.2993C65.4031 72.2993 77.0672 57.4493 71.2352 41.7384C69.075 35.9274 64.5398 31.1923 58.4914 29.0399C42.9406 23.4446 28.0367 35.0665 28.0367 49.9165H13.7812C13.7812 26.2423 36.8922 7.51804 62.1641 15.2665C73.1797 18.7094 81.8187 27.3188 85.275 38.2946C93.0508 63.4751 74.2594 86.504 50.2844 86.504Z" fill="#0080FF"/>
<path d="M50.5 72.2994H36.2445V58.3103H50.5V72.2994ZM36.2445 83.2759H25.4445V72.2994H36.2445V83.2759ZM25.4445 72.2994H16.3734V63.2603H25.4445V72.2994Z" fill="#0080FF"/>
</svg>
