<svg width="101" height="100" viewBox="0 0 101 100" fill="none" xmlns="http://www.w3.org/2000/svg">
<path fill-rule="evenodd" clip-rule="evenodd" d="M17.3766 30.0571C17.3336 30.0993 17.3 36.8774 17.3 45.1196V56.0908C17.3 58.3075 19.1028 60.1015 21.3195 60.0907L24.2243 60.0766C32.3633 60.0375 33.0711 59.961 35.461 58.8469C35.7763 58.6999 35.9897 58.3962 36.0212 58.0497L36.0344 57.904C36.3313 54.7211 38.9305 52.179 41.9883 52.0875C42.6938 52.0665 42.654 52.1055 43.1446 50.879C44.1915 48.2485 44.4274 43.7868 43.6946 40.5485C42.3821 34.7657 38.2719 31.0797 32.1501 30.1938C31.2282 30.0625 17.4954 29.9344 17.3766 30.0571ZM48.6993 44.4844V58.4691C48.6993 58.8046 48.6571 59.1387 48.5737 59.4636L48.4586 59.9118C47.2805 64.504 41.8297 66.25 38.229 63.1852C38.0766 63.0547 37.7313 62.6946 37.4633 62.3805L37.3758 62.2789C37.1377 62.0024 36.746 61.9156 36.4133 62.0657C35.1891 62.618 32.443 63.3993 31.7321 63.3993C30.7891 63.3993 32.7844 66.5063 34.7438 68.0868C37.2032 70.0735 39.2086 70.7454 42.6508 70.7422C48.9836 70.7329 53.1211 67.6782 54.8368 61.7485C55.404 59.7829 55.404 59.7469 55.3766 44.25L55.3557 33.3736C55.3521 31.5326 53.8668 30.0379 52.0258 30.0227C50.1931 30.0076 48.6993 31.4892 48.6993 33.322V44.4844ZM73.1501 30.068C65.9602 30.4407 61.0501 34.9172 61.0501 41.1C61.0501 46.0469 63.3665 49.0961 69.0001 51.5711C69.6868 51.8727 70.8126 52.368 71.4993 52.6727C73.0829 53.3711 73.4001 53.5086 74.2001 53.8508C79.2657 56.011 80.4008 57.0735 80.4008 59.6641C80.4008 65.8563 70.6297 66.6563 63.9094 61.0102C63.5032 60.668 63.1407 60.4243 63.1008 60.4696L60.0493 64.0868C59.8844 64.2821 59.6493 64.5532 59.5243 64.6844C59.1852 65.054 59.2274 65.1329 60.211 65.9688C67.0438 71.7829 77.5602 72.4727 83.5508 67.5008C87.6211 64.1227 88.6563 57.7235 85.8399 53.3321C84.7344 51.6079 82.3821 49.7274 80.3008 48.904C80.1079 48.8274 79.9008 48.7297 79.843 48.6836C79.7813 48.6383 79.5555 48.5375 79.3422 48.4579C78.9247 48.2966 78.5106 48.1268 78.1001 47.9485C77.261 47.5852 76.6469 47.3258 75.5243 46.8625C75.2102 46.7305 74.6118 46.4805 74.2001 46.304C73.8322 46.1471 73.4619 45.9963 73.0891 45.8516C69.7446 44.6071 68.0477 42.986 67.9227 40.911C67.6235 36.0008 74.679 34.35 80.7001 37.9266C80.8922 38.0422 81.3954 38.3961 81.8235 38.7172C82.2477 39.0375 82.629 39.2969 82.6719 39.2938C82.7422 39.2875 85.2383 36.2508 85.9313 35.3266C86.0898 35.116 86.0604 34.819 85.8636 34.6436L85.7297 34.5243C84.8141 33.7032 83.2883 32.6165 82.4251 32.168C81.7321 31.8079 81.5336 31.7102 81.079 31.5086C78.7383 30.4618 75.8055 29.9305 73.1501 30.068ZM30.4407 36.5047C34.286 37.0383 36.4016 39.8157 36.5688 44.5485C36.7368 49.3641 34.5977 52.6875 30.8008 53.5118C29.8211 53.7258 25.25 53.9086 24.6547 53.7594C24.5058 53.7213 24.4016 53.587 24.4016 53.4333V45.1141C24.4016 40.3961 24.429 36.5024 24.4657 36.4657C24.575 36.3586 29.6172 36.3922 30.4407 36.5047ZM41.0821 54.6875C36.9805 56.3415 37.9727 62.2657 42.3485 62.2469C46.5727 62.2282 47.7899 56.65 43.9696 54.8188C43.2524 54.4743 41.7751 54.4071 41.0821 54.6875Z" fill="#FAFBFB"/>
<path fill-rule="evenodd" clip-rule="evenodd" d="M0.5 49.9516V95.8992C0.5 98.1084 2.29086 99.8992 4.5 99.8992H96.3992C98.6084 99.8992 100.399 98.1084 100.399 95.8992V4C100.399 1.79086 98.6084 0 96.3992 0H4.5C2.29086 0 0.5 1.79086 0.5 4V49.9516ZM31.5484 30.0016C34.0484 30.2367 36.9164 31.2195 38.4859 32.3766C39.9594 33.4625 41.1734 34.6922 41.9094 35.8492C42.5625 36.8742 42.675 37.0695 42.7453 37.3023C42.7883 37.4391 42.8766 37.6406 42.9437 37.75C43.1453 38.0734 43.7008 39.8531 43.8594 40.6828C43.9414 41.1047 44.0578 41.675 44.1156 41.9492C44.2531 42.5961 44.2563 47.0945 44.1188 47.7508C44.0609 48.0258 43.9414 48.5867 43.8562 48.9992C43.6883 49.8078 43.2273 51.1562 42.8984 51.8008C42.7117 52.1695 42.6664 52.2 42.2727 52.2C41.5586 52.2031 40.5906 52.3984 40.0297 52.6547C39.7367 52.7891 39.4711 52.8992 39.4406 52.8992C39.3031 52.8992 37.9172 54.0344 37.6398 54.3703C36.807 55.3922 36.3062 56.6125 36.2117 57.8523C36.175 58.3133 36.1234 58.7039 36.0984 58.7219C35.9617 58.8227 34.4602 59.4055 33.8492 59.5977C31.9977 60.1773 31.1148 60.2359 23.8766 60.275L21.2193 60.2884C19.0024 60.2995 17.1992 58.5054 17.1992 56.2884V33.9008C17.1992 31.6916 18.9901 29.9008 21.1992 29.9008H23.8242C27.5781 29.9008 30.9258 29.9438 31.5484 30.0023M55.4984 44.4242C55.4961 59.2742 55.468 60.4617 55.1109 61.3039C55.0531 61.4383 54.9375 61.8258 54.8516 62.1609C54.7695 62.5 54.6328 62.9062 54.55 63.0617C54.4672 63.2203 54.4 63.3914 54.4 63.4398C54.4 63.5492 53.7102 64.993 53.5852 65.143C53.5367 65.2008 53.3039 65.543 53.0727 65.9C50.9727 69.1281 47.3289 70.8859 42.6602 70.9289C40.9141 70.9445 38.8328 70.6422 38.3508 70.3039C38.2961 70.2664 38.0492 70.1602 37.7984 70.068C34.9781 69.0211 31.775 65.8328 31.3414 63.6383C31.2797 63.3273 31.2797 63.3273 31.8141 63.2602C32.5133 63.1711 34.3656 62.7258 34.75 62.5578C34.9141 62.4844 35.2289 62.3656 35.4484 62.2953C35.6688 62.225 36.0742 62.0633 36.3492 61.9359C36.9531 61.6547 37.1672 61.6422 37.243 61.8805C37.3805 62.3172 38.7508 63.5195 39.5805 63.9344C43.3773 65.8266 47.8695 63.3914 48.5008 59.1C48.5469 58.7984 48.5867 52.1023 48.593 44.2258L48.5971 33.3501C48.5979 31.4449 50.1425 29.9008 52.0478 29.9008C53.9535 29.9008 55.4984 31.4457 55.4984 33.3514V44.4242ZM76.1133 30.0047C76.6836 30.0594 77.307 30.1578 77.4992 30.2188C77.6883 30.2797 78.1828 30.4109 78.5977 30.5055C80.6391 30.9844 82.9555 32.1289 84.8445 33.5938C85.5742 34.1617 86.3 34.8516 86.3 34.9789C86.3 35.068 85.6625 35.9469 85.4 36.2242C85.3172 36.3102 85.1281 36.5289 84.982 36.7164C84.8352 36.8984 84.35 37.4977 83.9016 38.043C83.6028 38.4055 83.3088 38.772 83.0195 39.1422C82.7477 39.5633 82.6352 39.5352 81.7594 38.8609C81.0641 38.3211 79.4062 37.2984 79.232 37.2984C79.2086 37.2984 78.9547 37.1914 78.668 37.0578C77.0656 36.307 72.7445 35.8734 71.85 36.3773C71.7406 36.4383 71.4016 36.5664 71.1 36.6609C68.1234 37.5797 67.025 41.2289 69.0852 43.3531C69.732 44.0219 72.3625 45.5992 72.8273 45.5992C72.8633 45.5992 73.132 45.7062 73.4211 45.8375C73.7117 45.9688 74.0625 46.1094 74.2 46.1484C74.3375 46.1883 74.5391 46.2766 74.6484 46.3438C74.7617 46.4141 75.0297 46.5273 75.25 46.5977C75.4688 46.6641 75.7414 46.7773 75.8516 46.8445C75.9609 46.9148 76.2297 47.0273 76.4492 47.1008C76.6687 47.1711 77.0078 47.3117 77.1992 47.4148C77.3891 47.5164 77.582 47.6016 77.6211 47.6016C77.6602 47.6016 77.9414 47.7109 78.2406 47.8484C78.543 47.9891 78.8109 48.0984 78.8445 48.0984C78.9641 48.0984 81.4328 49.2766 81.8445 49.5297C83.6484 50.6375 85.0789 51.8797 85.7938 52.9516C86.2211 53.5922 86.8008 54.6781 86.8008 54.843C86.8008 54.9133 86.868 55.1086 86.9531 55.2766C87.1055 55.5812 87.3164 56.4914 87.5 57.6508C87.6188 58.3828 87.6219 60.007 87.5086 60.5492C87.1703 62.1641 87.0508 62.6156 86.8039 63.2414C84.9938 67.7914 80.3008 70.6516 74.1508 70.95C72.5492 71.0297 68.7617 70.6359 68.2859 70.3406C68.2367 70.3125 67.8703 70.1969 67.4734 70.0867C66.3633 69.782 63.943 68.7375 63.0492 68.1766C61.3367 67.0984 60.4484 66.4398 59.5242 65.5578C59.0172 65.0758 59.0141 65.0391 59.4023 64.6125C59.8664 64.0867 60.3229 63.5544 60.7719 63.0156C63.2469 60.0828 63.2109 60.1172 63.4422 60.4156C63.5008 60.4891 63.8641 60.8 64.2516 61.1086C64.868 61.6 65.3039 61.9109 66.2016 62.5C66.693 62.8234 68.5758 63.7031 69.1063 63.8609C69.4055 63.9492 69.6953 64.0563 69.7508 64.0961C69.8055 64.1391 70.2539 64.2484 70.7508 64.3398C71.2461 64.432 71.8352 64.5539 72.0578 64.6117C73.6203 65.0117 77.1477 64.3492 78.3867 63.4219C80.7336 61.6609 80.9352 58.1172 78.7805 56.3875C77.9078 55.6883 75.9852 54.6477 74.9992 54.3484C74.794 54.2753 74.5943 54.1876 74.4016 54.0859C74.2094 53.9828 74.0195 53.9 73.9773 53.9C73.9102 53.9 73.4398 53.6953 72.25 53.1523C72.0852 53.0766 71.5664 52.85 71.0992 52.6523C70.6769 52.4714 70.2568 52.2852 69.8391 52.0938C69.6125 51.9867 69.3937 51.9016 69.3508 51.9016C69.3078 51.9016 68.7125 51.6297 68.0289 51.2969C65.5234 50.082 64.0898 48.9375 62.5211 46.9062C61.0258 44.9648 60.3883 41.0617 61.1383 38.4492C62.8102 32.6289 68.7648 29.2695 76.1133 30.0047ZM24.6 45.1047V50.8365C24.6 52.3624 25.8477 53.5936 27.3734 53.5734C31.8992 53.5156 33.5172 52.8594 35.0398 50.4703C36.6789 47.9031 36.9562 43.3047 35.6469 40.5305C35.5102 40.2469 35.4 39.9656 35.4 39.9055C35.4 39.8469 35.3609 39.8008 35.3117 39.8008C35.2625 39.8008 35.168 39.6641 35.0977 39.4961C34.9242 39.0742 33.7211 37.8844 33.1352 37.5547C31.7039 36.75 30.807 36.6 27.3828 36.6C25.8459 36.6 24.6 37.8459 24.6 39.3828V45.1047ZM43.5234 54.5109C48.2359 56.1031 46.743 62.9758 41.8117 62.3937C37.8813 61.9297 37.0852 56.1492 40.7492 54.6938C40.9141 54.6297 41.1398 54.5375 41.25 54.4922C41.8547 54.2453 42.7547 54.2508 43.5234 54.5102" fill="#0C0C14"/>
<path fill-rule="evenodd" clip-rule="evenodd" d="M17.2453 30.1243C17.2203 30.1946 17.2117 36.9782 17.2234 45.1993L17.2508 60.1501L17.3 45.0743C17.3273 36.7829 17.3367 29.9985 17.3211 29.9985C17.3055 29.9985 17.2726 30.0571 17.2453 30.1235M29.925 30.072C30.1328 30.0938 30.468 30.0938 30.6758 30.072C30.8805 30.0509 30.7125 30.0329 30.3008 30.0329C29.8883 30.0329 29.7172 30.0509 29.9258 30.072M48.6476 44.5493C48.6476 52.579 48.6601 55.8806 48.675 51.8829C48.6906 47.8853 48.6906 41.3149 48.675 37.2837C48.6594 33.2493 48.6476 36.5204 48.6476 44.5493ZM55.3742 39.1235C55.3891 44.1438 55.4101 50.5462 55.4258 53.3509C55.4414 56.1556 55.4625 52.0478 55.4773 44.2259C55.4898 36.4017 55.4648 29.9993 55.4258 29.9993C55.3828 29.9993 55.3617 34.1063 55.3734 39.1243M72.8758 30.072C73.0555 30.0938 73.3273 30.0938 73.4773 30.072C73.6258 30.0478 73.4797 30.0298 73.15 30.0329C72.8203 30.0329 72.6984 30.0509 72.8758 30.072ZM74.6758 30.072C74.8531 30.0938 75.1461 30.0938 75.3258 30.072C75.5031 30.0509 75.357 30.0329 74.9992 30.0329C74.6422 30.0329 74.4961 30.0509 74.6758 30.072ZM63.8969 33.8751L63.25 34.5501L63.925 33.9032C64.2969 33.5485 64.5992 33.2438 64.5992 33.2282C64.5992 33.1556 64.4984 33.2501 63.8969 33.8751ZM73.275 36.0728C73.3976 36.0938 73.6016 36.0938 73.7242 36.0728C73.8492 36.0485 73.7476 36.0267 73.5008 36.0267C73.2539 36.0267 73.15 36.0485 73.275 36.0728ZM74.575 36.0728C74.6976 36.0938 74.9016 36.0938 75.0242 36.0728C75.1492 36.0485 75.0476 36.0267 74.8008 36.0267C74.5539 36.0267 74.45 36.0485 74.575 36.0728ZM24.4469 36.5274C24.4195 36.5946 24.4101 40.4978 24.4234 45.2001L24.45 53.7517L24.4992 45.0751C24.5266 40.3056 24.5383 36.4024 24.5203 36.4024C24.5047 36.4024 24.4719 36.4571 24.4469 36.5274ZM67.9226 40.2017C67.9226 40.3938 67.9437 40.4735 67.968 40.3759C67.9925 40.26 67.9925 40.1402 67.968 40.0243C67.9445 39.9306 67.9226 40.0087 67.9226 40.2017ZM60.9367 41.1509C60.9367 41.7001 60.9523 41.9134 60.9734 41.6235C60.9953 41.3306 60.9953 40.8821 60.9734 40.6235C60.9523 40.3634 60.9367 40.6017 60.9367 41.1509ZM67.9226 41.1993C67.9226 41.3915 67.9437 41.4712 67.968 41.3767C67.9925 41.2608 67.9925 41.141 67.968 41.0251C67.9445 40.9314 67.9226 41.0071 67.9226 41.1993ZM69.0945 43.5251C69.3414 43.7876 69.5555 44.0017 69.5711 44.0017C69.6469 44.0017 69.5672 43.9126 69.125 43.4978L68.6484 43.0524L69.0937 43.5251M36.5414 44.9501C36.5414 45.7774 36.557 46.1009 36.575 45.6704C36.593 45.2431 36.593 44.5689 36.575 44.172C36.5562 43.7751 36.5414 44.1259 36.5414 44.9501ZM44.1367 44.8493C44.1367 45.4571 44.1555 45.6915 44.1734 45.3712C44.1953 45.054 44.1953 44.5595 44.1734 44.2728C44.1523 43.986 44.1367 44.2454 44.1367 44.8493ZM25.732 53.7751C26.3789 53.7931 27.4164 53.7931 28.0297 53.7751C28.6469 53.7571 28.1156 53.7415 26.8492 53.7446C25.5851 53.7446 25.082 53.7571 25.732 53.7751ZM42.2242 54.4681C42.3393 54.4954 42.4591 54.4954 42.5742 54.4681C42.6719 54.4439 42.593 54.422 42.4008 54.422C42.2086 54.422 42.1289 54.4439 42.2234 54.4681M35.9984 58.1696C35.9703 58.4564 35.9859 58.6548 36.0312 58.6095C36.0781 58.5626 36.0984 58.3282 36.0805 58.0876C36.0769 58.0417 36.0098 58.0411 36.0055 58.0869L35.9976 58.1696M87.432 59.1001C87.432 59.5126 87.4508 59.6806 87.4719 59.4751C87.4932 59.2256 87.4932 58.9746 87.4719 58.7251C87.4508 58.5173 87.4328 58.6884 87.4328 59.1001M55.3219 59.1001C55.3219 59.2931 55.343 59.372 55.3672 59.2743C55.3946 59.1601 55.3946 59.0409 55.3672 58.9267C55.3437 58.829 55.3219 58.9079 55.3219 59.1001ZM20.382 60.1743C22.0484 60.1899 24.7492 60.1899 26.382 60.1743C28.0148 60.1587 26.6508 60.147 23.3484 60.147C20.0492 60.147 18.7156 60.1595 20.382 60.1743ZM45.0461 61.2243L44.65 61.6485L45.0742 61.2548C45.4711 60.886 45.5469 60.8001 45.4711 60.8001C45.4555 60.8001 45.2633 60.9923 45.0469 61.2243M59.2008 65.0634C59.2008 65.1181 59.3469 65.2954 59.5242 65.4571L59.8508 65.7501L59.5516 65.3985C59.4387 65.2718 59.3298 65.1415 59.225 65.0079C59.2125 64.9876 59.2008 65.0118 59.2008 65.0634ZM33.6969 67.2243C34.1094 67.6665 34.2008 67.7462 34.2008 67.6696C34.2008 67.654 33.9867 67.4407 33.7242 67.197L33.2516 66.7517L33.6969 67.2243ZM51.5984 67.4501C51.3578 67.697 51.1805 67.8985 51.2078 67.8985C51.2351 67.8985 51.4578 67.697 51.7 67.4501C51.9437 67.2032 52.1203 67.0017 52.093 67.0017C52.0656 67.0017 51.843 67.2032 51.5984 67.4501ZM42.025 70.8673C42.1406 70.8948 42.261 70.8948 42.3766 70.8673C42.4703 70.8431 42.3922 70.8212 42.1992 70.8212C42.007 70.8212 41.9273 70.8431 42.025 70.8673ZM73.1742 70.8704C73.2992 70.8946 73.5008 70.8946 73.6265 70.8704C73.7484 70.8462 73.6476 70.8274 73.4 70.8274C73.1531 70.8274 73.0523 70.8462 73.1742 70.8704Z" fill="#94949C"/>
<path fill-rule="evenodd" clip-rule="evenodd" d="M29.7235 29.9688C29.8212 29.9922 29.9798 29.9922 30.0751 29.9688C30.172 29.9438 30.0931 29.9219 29.9009 29.9219C29.7087 29.9219 29.629 29.9438 29.7235 29.9688ZM24.5665 36.475C24.5391 36.5172 25.2009 36.5391 26.0345 36.5234C28.7962 36.4773 29.0766 36.4414 26.8313 36.4195C25.6102 36.4102 24.5907 36.4352 24.5657 36.4742M60.8274 41.15C60.8306 41.4242 60.8485 41.525 60.8727 41.3727C60.8946 41.2203 60.8946 40.9977 60.8696 40.875C60.8462 40.75 60.8274 40.875 60.8274 41.15ZM43.0751 70.8711C43.2001 70.8953 43.3798 70.8922 43.4751 70.868C43.5727 70.8438 43.4688 70.825 43.2485 70.825C43.0298 70.825 42.9532 70.8469 43.0751 70.8711Z" fill="#616169"/>
<path fill-rule="evenodd" clip-rule="evenodd" d="M20.3829 29.9742C22.1063 29.9898 24.8961 29.9898 26.5836 29.9742C28.2711 29.9585 26.861 29.9468 23.4493 29.9468C20.0407 29.9468 18.661 29.9593 20.3821 29.9742M50.3196 29.9742C51.2352 29.9929 52.7672 29.9929 53.7196 29.9742C54.6719 29.9585 53.9211 29.9437 52.05 29.9437C50.1797 29.9437 49.4016 29.9593 50.3204 29.975M73.925 29.9679C74.0196 29.9929 74.179 29.9929 74.2766 29.9679C74.3704 29.9445 74.2922 29.9226 74.0993 29.9226C73.9071 29.9226 73.8274 29.9437 73.925 29.9679ZM80.3251 59.75C80.3251 59.9703 80.3461 60.0492 80.3704 59.9242C80.3954 59.7992 80.3954 59.6195 80.3672 59.5242C80.3438 59.4265 80.3251 59.5304 80.3251 59.7507M73.2266 64.7703C73.3758 64.7945 73.6235 64.7945 73.7758 64.7703C73.925 64.7492 73.8032 64.7312 73.5008 64.7312C73.1993 64.7312 73.0743 64.7492 73.2266 64.7703Z" fill="#74747C"/>
<path fill-rule="evenodd" clip-rule="evenodd" d="M63.8968 33.7735L63.3507 34.3509L63.925 33.804C64.2421 33.5024 64.5015 33.243 64.5015 33.2274C64.5015 33.1548 64.4039 33.2399 63.8968 33.7743M24.5476 45.1251L24.5493 49.6563C24.5501 51.8624 26.3368 53.6513 28.5429 53.6548L29 53.6555L28.533 53.6491C26.3502 53.6188 24.5948 51.8442 24.5884 49.6612L24.575 45.0985L24.5476 36.5985V45.1259M44.2289 44.7993C44.2289 45.1009 44.25 45.2266 44.271 45.0735C44.2955 44.8913 44.2955 44.7066 44.271 44.5243C44.25 44.372 44.2289 44.497 44.2289 44.7993ZM87.5242 59.0993C87.5242 59.2923 87.5421 59.3712 87.5695 59.2735C87.5938 59.1589 87.5938 59.0405 87.5695 58.9259C87.5421 58.8282 87.5242 58.9071 87.5242 59.0993ZM42.1257 64.6696C42.2203 64.693 42.3789 64.693 42.4742 64.6696C42.5718 64.6415 42.4921 64.6227 42.3 64.6227C42.1078 64.6227 42.0281 64.6415 42.1257 64.6696ZM33.4984 67.1329C33.4984 67.1485 33.6453 67.2946 33.825 67.4563L34.1484 67.7493L33.8554 67.4259C33.5812 67.1235 33.4984 67.0532 33.4984 67.1329ZM43.725 70.8673C43.8405 70.8948 43.9609 70.8948 44.0765 70.8673C44.1703 70.8438 44.0914 70.822 43.8992 70.822C43.707 70.822 43.6273 70.8438 43.725 70.868" fill="#444454"/>
<path fill-rule="evenodd" clip-rule="evenodd" d="M40.2954 33.9265C40.5423 34.1858 40.7563 34.3991 40.7712 34.3991C40.8477 34.3991 40.7681 34.3108 40.3259 33.896L39.8493 33.4507L40.2946 33.9265M73.9251 36.1687C74.0196 36.1937 74.179 36.1937 74.2766 36.1687C74.3704 36.1452 74.2923 36.1233 74.0993 36.1233C73.9071 36.1233 73.8274 36.1452 73.9251 36.1694M25.8298 36.5757C26.5345 36.5905 27.661 36.5905 28.3321 36.5757C29.0001 36.5569 28.4235 36.5413 27.0509 36.5413C25.6743 36.5444 25.1274 36.5569 25.8298 36.5749M44.2259 45.7499C44.2259 45.9687 44.247 46.0483 44.2712 45.9233C44.2946 45.7912 44.2936 45.6559 44.2681 45.5241C44.2446 45.4288 44.2227 45.5296 44.2259 45.7499ZM20.3751 60.2749C22.1485 60.2905 25.0509 60.2905 26.8235 60.2749C28.597 60.2593 27.147 60.2476 23.5977 60.2476C20.0516 60.2476 18.5993 60.2601 20.3751 60.2749ZM46.6446 62.8233L46.2485 63.2507L46.6751 62.8538C47.0688 62.4874 47.1454 62.3991 47.0688 62.3991C47.0532 62.3991 46.8618 62.5913 46.6446 62.8233ZM41.5243 64.5687C41.622 64.5937 41.7774 64.5937 41.8751 64.5687C41.9696 64.5452 41.8907 64.5233 41.6977 64.5233C41.5056 64.5233 41.4298 64.5444 41.5243 64.5687ZM42.8243 64.5687C42.922 64.5937 43.0774 64.5937 43.1751 64.5687C43.2696 64.5452 43.1907 64.5233 42.9977 64.5233C42.8056 64.5233 42.7298 64.5444 42.8243 64.5687ZM72.4227 70.9686C72.5212 70.9929 72.6798 70.9929 72.7743 70.9686C72.872 70.9444 72.7923 70.9226 72.6001 70.9226C72.4079 70.9226 72.3282 70.9444 72.4227 70.9686Z" fill="#2C2C34"/>
<path fill-rule="evenodd" clip-rule="evenodd" d="M42.2234 54.3703C42.321 54.3945 42.4796 54.3945 42.575 54.3703C42.6718 54.343 42.5929 54.3242 42.4007 54.3242C42.2085 54.3242 42.1289 54.343 42.2234 54.3703ZM42.025 70.9687C42.1195 70.993 42.2789 70.993 42.3765 70.9687C42.4703 70.9445 42.3921 70.9227 42.1992 70.9227C42.007 70.9227 41.9273 70.9445 42.025 70.9687ZM73.1257 70.9719C73.2781 70.9961 73.5039 70.993 73.6257 70.9719C73.7484 70.9477 73.6257 70.9289 73.3484 70.9289C73.0742 70.9289 72.9734 70.9469 73.1257 70.9719Z" fill="#353A44"/>
</svg>
