<svg width="100" height="100" viewBox="0 0 100 100" fill="none" xmlns="http://www.w3.org/2000/svg">
<path d="M97.5001 40.7031C94.1407 38.75 89.6876 38.5156 85.9376 39.6094C85.4688 35.5469 82.8126 32.0313 79.6876 29.5313L78.4376 28.5156L77.3438 29.7656C75.2344 32.1875 74.6094 36.25 74.9219 39.375C75.1563 41.6406 75.8594 43.9844 77.2657 45.8594C76.1719 46.4844 75.0001 47.3438 73.9063 47.7344C71.7188 48.5156 69.2969 49.2969 66.9532 49.2969H61.7188V38.2813H51.5626V18.75H39.8438V28.125H20.3126V38.2813H10.1563V49.2188H1.4063L1.25005 50.3906C0.859429 55.3906 1.48443 60.2344 3.5938 64.8438L4.45318 66.5625L4.5313 66.7188C10.7032 77.1875 21.4844 81.5625 33.2813 81.5625C56.0938 81.5625 74.9219 71.3281 83.5157 49.8438C89.2969 50.1563 95.2344 48.4375 98.0469 42.8906L98.7501 41.4844L97.5001 40.7031ZM21.8751 30.4688H29.6876V39.0625H21.8751V30.4688ZM32.1094 65C32.1094 66.3281 31.0157 67.4219 29.6876 67.4219C28.3594 67.4219 27.2657 66.3281 27.2657 65C27.2657 63.6719 28.3594 62.5781 29.6876 62.5781C31.0157 62.6563 32.1094 63.6719 32.1094 65ZM21.8751 40.625H29.6876V49.2188H21.8751V40.625ZM11.7188 40.625H20.3126V49.2188H11.7188V40.625ZM33.3594 79.8438C21.0157 79.7656 14.3751 75.625 8.9063 70.1563C10.5469 70.2344 12.1094 70.3125 13.5157 70.3125C14.7657 70.3125 16.0157 70.3125 17.1876 70.2344C20.2344 70.0781 22.8907 69.6875 25.0782 69.0625C26.8751 73.2031 30.1563 77.0313 36.0157 79.8438H33.3594ZM39.8438 49.2188H31.2501V40.625H39.8438V49.2188ZM39.8438 39.0625H31.2501V30.4688H39.8438V39.0625ZM50.0001 49.2188H41.4063V40.625H50.0001V49.2188ZM50.0001 39.0625H41.4063V30.4688H50.0001V39.0625ZM50.0001 28.9063H41.4063V20.3125H50.0001V28.9063ZM60.1563 49.2188H51.5626V40.625H60.1563V49.2188ZM30.3126 63.4375C30.1563 63.3594 29.9219 63.2813 29.6876 63.2813C28.7501 63.2813 27.9688 64.0625 27.9688 65C27.9688 65.9375 28.7501 66.7188 29.6876 66.7188C30.6251 66.7188 31.4063 65.9375 31.4063 65C31.4063 64.7656 31.3282 64.5313 31.2501 64.375C31.0938 64.6094 30.9376 64.7656 30.6251 64.7656C30.2344 64.7656 29.9219 64.4531 29.9219 64.0625C30.0001 63.75 30.1563 63.5156 30.3126 63.4375Z" fill="#019BC6"/>
</svg>
