<svg width="101" height="100" viewBox="0 0 101 100" fill="none" xmlns="http://www.w3.org/2000/svg">
<path d="M18.2083 8.06015e-06H82.7917C85.1178 -0.00224053 87.4215 0.466009 89.5709 1.37796C91.7204 2.28991 93.6734 3.62765 95.3182 5.31463C96.963 7.00162 98.2673 9.00471 99.1565 11.2093C100.046 13.4139 100.502 15.7766 100.5 18.1624V81.8376C100.502 84.2234 100.046 86.5861 99.1565 88.7907C98.2673 90.9953 96.963 92.9984 95.3182 94.6854C93.6734 96.3723 91.7204 97.7101 89.5709 98.622C87.4215 99.534 85.1178 100.002 82.7917 100H18.2083C15.8822 100.002 13.5785 99.534 11.4291 98.622C9.2796 97.7101 7.32658 96.3723 5.68177 94.6854C4.03696 92.9984 2.73266 90.9953 1.84351 88.7907C0.954359 86.5861 0.497815 84.2234 0.500008 81.8376V18.1624C0.497815 15.7766 0.954359 13.4139 1.84351 11.2093C2.73266 9.00471 4.03696 7.00162 5.68177 5.31463C7.32658 3.62765 9.2796 2.28991 11.4291 1.37796C13.5785 0.466009 15.8822 -0.00224053 18.2083 8.06015e-06Z" fill="#F0F0F0"/>
<path d="M86.5859 46.6595L53.8383 13.9145C51.954 12.0285 48.8955 12.0285 47.0089 13.9145L40.2092 20.7151L48.8344 29.3407C50.8396 28.6636 53.1379 29.1176 54.7355 30.7155C56.3413 32.3235 56.792 34.6415 56.098 36.6534L64.4112 44.9669C66.4224 44.2738 68.7429 44.7216 70.3488 46.3305C72.5941 48.5751 72.5941 52.2124 70.3488 54.4576C68.1033 56.7036 64.4662 56.7036 62.2193 54.4576C60.5311 52.768 60.1135 50.2874 60.9686 48.2072L53.2157 40.454L53.215 60.8566C53.7624 61.1275 54.279 61.4892 54.7351 61.9434C56.9797 64.1878 56.9797 67.8244 54.7351 70.0726C52.4899 72.3169 48.8512 72.3169 46.6083 70.0726C44.3634 67.8246 44.3634 64.188 46.6083 61.9434C47.1631 61.3896 47.805 60.9704 48.49 60.6894V40.0973C47.8047 39.8175 47.1635 39.4014 46.6079 38.8431C44.9075 37.1439 44.4979 34.6482 45.37 32.56L36.8673 24.0556L14.4149 46.5082C12.5284 48.3957 12.5284 51.4543 14.4149 53.3404L47.1606 86.0855C49.0459 87.9715 52.1033 87.9715 53.9912 86.0855L86.5855 53.4951C88.4715 51.6082 88.4715 48.5487 86.5855 46.6623" fill="#F05133"/>
</svg>
