<svg width="100" height="100" viewBox="0 0 100 100" fill="none" xmlns="http://www.w3.org/2000/svg">
<path d="M17.7083 8.06015e-06H82.2917C84.6178 -0.00224053 86.9215 0.466009 89.0709 1.37796C91.2204 2.28991 93.1734 3.62765 94.8182 5.31463C96.463 7.00162 97.7673 9.00471 98.6565 11.2093C99.5456 13.4139 100.002 15.7766 100 18.1624V81.8376C100.002 84.2234 99.5456 86.5861 98.6565 88.7907C97.7673 90.9953 96.463 92.9984 94.8182 94.6854C93.1734 96.3723 91.2204 97.7101 89.0709 98.622C86.9215 99.534 84.6178 100.002 82.2917 100H17.7083C15.3822 100.002 13.0785 99.534 10.9291 98.622C8.7796 97.7101 6.82658 96.3723 5.18177 94.6854C3.53696 92.9984 2.23266 90.9953 1.34351 88.7907C0.454359 86.5861 -0.00218452 84.2234 7.85865e-06 81.8376V18.1624C-0.00218452 15.7766 0.454359 13.4139 1.34351 11.2093C2.23266 9.00471 3.53696 7.00162 5.18177 5.31463C6.82658 3.62765 8.7796 2.28991 10.9291 1.37796C13.0785 0.466009 15.3822 -0.00224053 17.7083 8.06015e-06Z" fill="#F0F0F0"/>
<path d="M30.3357 58.9873C30.3357 62.9395 27.144 66.1338 23.1949 66.1338C19.2458 66.1338 16.0541 62.9395 16.0541 58.9873C16.0541 55.0351 19.2458 51.8408 23.1949 51.8408H30.3357V58.9873ZM33.9061 58.9873C33.9061 55.0351 37.0978 51.8408 41.0469 51.8408C44.996 51.8408 48.1877 55.0351 48.1877 58.9873V76.8536C48.1877 80.8058 44.996 84.0001 41.0469 84.0001C37.0978 84.0001 33.9061 80.8058 33.9061 76.8536V58.9873Z" fill="#E01E5A"/>
<path d="M41.0469 30.293C37.0978 30.293 33.9061 27.0987 33.9061 23.1465C33.9061 19.1943 37.0978 16 41.0469 16C44.996 16 48.1877 19.1943 48.1877 23.1465V30.293H41.0469ZM41.0469 33.9204C44.996 33.9204 48.1877 37.1147 48.1877 41.0669C48.1877 45.0191 44.996 48.2134 41.0469 48.2134H23.1408C19.1917 48.2134 16 45.0191 16 41.0669C16 37.1147 19.1917 33.9204 23.1408 33.9204H41.0469Z" fill="#36C5F0"/>
<path d="M69.6643 41.0669C69.6643 37.1147 72.856 33.9204 76.8051 33.9204C80.7542 33.9204 83.9459 37.1147 83.9459 41.0669C83.9459 45.0191 80.7542 48.2134 76.8051 48.2134H69.6643V41.0669ZM66.0939 41.0669C66.0939 45.0191 62.9021 48.2134 58.9531 48.2134C55.004 48.2134 51.8123 45.0191 51.8123 41.0669V23.1465C51.8123 19.1943 55.004 16 58.9531 16C62.9021 16 66.0939 19.1943 66.0939 23.1465V41.0669Z" fill="#2EB67D"/>
<path d="M58.9531 69.7071C62.9021 69.7071 66.0939 72.9013 66.0939 76.8536C66.0939 80.8058 62.9021 84.0001 58.9531 84.0001C55.004 84.0001 51.8123 80.8058 51.8123 76.8536V69.7071H58.9531ZM58.9531 66.1338C55.004 66.1338 51.8123 62.9395 51.8123 58.9873C51.8123 55.0351 55.004 51.8408 58.9531 51.8408H76.8592C80.8083 51.8408 84 55.0351 84 58.9873C84 62.9395 80.8083 66.1338 76.8592 66.1338H58.9531Z" fill="#ECB22E"/>
</svg>
