<svg width="101" height="100" viewBox="0 0 101 100" fill="none" xmlns="http://www.w3.org/2000/svg">
<path d="M18.2083 8.06015e-06H82.7917C85.1178 -0.00224053 87.4215 0.466009 89.5709 1.37796C91.7204 2.28991 93.6734 3.62765 95.3182 5.31463C96.963 7.00162 98.2673 9.00471 99.1565 11.2093C100.046 13.4139 100.502 15.7766 100.5 18.1624V81.8376C100.502 84.2234 100.046 86.5861 99.1565 88.7907C98.2673 90.9953 96.963 92.9984 95.3182 94.6854C93.6734 96.3723 91.7204 97.7101 89.5709 98.622C87.4215 99.534 85.1178 100.002 82.7917 100H18.2083C15.8822 100.002 13.5785 99.534 11.4291 98.622C9.2796 97.7101 7.32658 96.3723 5.68177 94.6854C4.03696 92.9984 2.73266 90.9953 1.84351 88.7907C0.954359 86.5861 0.497815 84.2234 0.500008 81.8376V18.1624C0.497815 15.7766 0.954359 13.4139 1.84351 11.2093C2.73266 9.00471 4.03696 7.00162 5.68177 5.31463C7.32658 3.62765 9.2796 2.28991 11.4291 1.37796C13.5785 0.466009 15.8822 -0.00224053 18.2083 8.06015e-06Z" fill="#F0F0F0"/>
<path d="M70.8125 84.5H30.1875C27.6094 84.5 25.5 82.383 25.5 79.7955V20.2045C25.5 17.617 27.6094 15.5 30.1875 15.5H58.3125L75.5 32.75V79.7955C75.5 82.383 73.3906 84.5 70.8125 84.5Z" fill="#3086F6"/>
<path d="M58.3125 15.5L75.5 32.75H58.3125V15.5Z" fill="#0C67D6"/>
<path d="M64.5625 46.0796H36.4375V42.1592H64.5625V46.0796ZM64.5625 51.5683H36.4375V55.4887H64.5625V51.5683ZM56.75 60.9774H36.4375V64.8978H56.75V60.9774Z" fill="#FDFFFF"/>
</svg>
