<svg width="100" height="100" viewBox="0 0 100 100" fill="none" xmlns="http://www.w3.org/2000/svg">
<path d="M79.7656 1.5625H20.2344C15.0781 1.5625 10.9375 5.70312 10.9375 10.8594V89.2187C10.9375 94.375 15.0781 98.5156 20.2344 98.5156H79.8437C85 98.5156 89.1406 94.375 89.1406 89.2187V10.8594C89.0625 5.70312 84.9219 1.5625 79.7656 1.5625ZM28.9062 84.9219V62.8906L39.9219 73.9062L28.9062 84.9219ZM70.3125 85.1562H60.0781L60.1562 85V46.4062C60.1562 46.4062 62.5781 37.1875 29.1406 50.1562C29.0625 50.3125 28.9844 14.4531 28.9844 14.4531L39.8437 14.375V37.3437C39.8437 37.3437 70.3125 25.3125 70.3125 46.4844V85.1562ZM66.25 28.125H54.6875C58.8281 23.4375 62.6562 14.8437 62.6562 14.8437H74.6094C74.6094 14.8437 72.5781 20.3125 66.25 28.125Z" fill="#6762A6"/>
</svg>
