<svg width="101" height="100" viewBox="0 0 101 100" fill="none" xmlns="http://www.w3.org/2000/svg">
<g clip-path="url(#clip0_154_2002)">
<path d="M18.2083 8.06015e-06H82.7917C85.1178 -0.00224053 87.4215 0.466009 89.5709 1.37796C91.7204 2.28991 93.6734 3.62765 95.3182 5.31463C96.963 7.00162 98.2673 9.00471 99.1565 11.2093C100.046 13.4139 100.502 15.7766 100.5 18.1624V81.8376C100.502 84.2234 100.046 86.5861 99.1565 88.7907C98.2673 90.9953 96.963 92.9984 95.3182 94.6854C93.6734 96.3723 91.7204 97.7101 89.5709 98.622C87.4215 99.534 85.1178 100.002 82.7917 100H18.2083C15.8822 100.002 13.5785 99.534 11.4291 98.622C9.2796 97.7101 7.32658 96.3723 5.68177 94.6854C4.03696 92.9984 2.73266 90.9953 1.84351 88.7907C0.954359 86.5861 0.497815 84.2234 0.500008 81.8376V18.1624C0.497815 15.7766 0.954359 13.4139 1.84351 11.2093C2.73266 9.00471 4.03696 7.00162 5.68177 5.31463C7.32658 3.62765 9.2796 2.28991 11.4291 1.37796C13.5785 0.466009 15.8822 -0.00224053 18.2083 8.06015e-06Z" fill="#F16529"/>
<path d="M34.9998 29.9801H50.5328V19H23L23.2627 21.9457L25.9615 52.2039H50.5328V41.2238H36.0033L34.9998 29.9801ZM37.4745 57.6941H26.4521L27.9903 74.9345L50.4823 81.1779L50.5328 81.1642V69.7403L50.4847 69.753L38.2563 66.4511L37.4745 57.6941Z" fill="#EBEBEB"/>
<path d="M50.495 52.2039H64.0157L62.7409 66.4442L50.4946 69.7496V81.1728L73.0045 74.9345L73.1695 73.0793L75.7501 44.1723L76.0179 41.2238H50.495V52.2039ZM50.495 29.9532V29.9801H77.017L77.2371 27.5122L77.7376 21.9457L78 19H50.495V29.9536V29.9532Z" fill="white"/>
</g>
<defs>
<clipPath id="clip0_154_2002">
<rect width="100" height="100" fill="white" transform="translate(0.5)"/>
</clipPath>
</defs>
</svg>
