<svg width="100" height="100" viewBox="0 0 100 100" fill="none" xmlns="http://www.w3.org/2000/svg">
<g clip-path="url(#clip0_154_1999)">
<path d="M17.7083 8.06015e-06H82.2917C84.6178 -0.00224053 86.9215 0.466009 89.0709 1.37796C91.2204 2.28991 93.1734 3.62765 94.8182 5.31463C96.463 7.00162 97.7673 9.00471 98.6565 11.2093C99.5456 13.4139 100.002 15.7766 100 18.1624V81.8376C100.002 84.2234 99.5456 86.5861 98.6565 88.7907C97.7673 90.9953 96.463 92.9984 94.8182 94.6854C93.1734 96.3723 91.2204 97.7101 89.0709 98.622C86.9215 99.534 84.6178 100.002 82.2917 100H17.7083C15.3822 100.002 13.0785 99.534 10.9291 98.622C8.7796 97.7101 6.82658 96.3723 5.18177 94.6854C3.53696 92.9984 2.23266 90.9953 1.34351 88.7907C0.454359 86.5861 -0.00218452 84.2234 7.85865e-06 81.8376V18.1624C-0.00218452 15.7766 0.454359 13.4139 1.34351 11.2093C2.23266 9.00471 3.53696 7.00162 5.18177 5.31463C6.82658 3.62765 8.7796 2.28991 10.9291 1.37796C13.0785 0.466009 15.3822 -0.00224053 17.7083 8.06015e-06Z" fill="#F7DF1E"/>
<path d="M67.3444 78.246C69.3587 81.5349 71.9794 83.9524 76.6143 83.9524C80.5079 83.9524 82.9952 82.0063 82.9952 79.3175C82.9952 76.0952 80.4397 74.954 76.154 73.0794L73.8048 72.0714C67.0238 69.1825 62.519 65.5635 62.519 57.9127C62.519 50.8651 67.8889 45.5 76.2809 45.5C82.2555 45.5 86.5508 47.5794 89.646 53.0238L82.3286 57.7222C80.7174 54.8333 78.9794 53.6952 76.2809 53.6952C73.5286 53.6952 71.7841 55.4413 71.7841 57.7222C71.7841 60.5413 73.5302 61.6825 77.5619 63.4286L79.9111 64.4349C87.8952 67.8587 92.4032 71.3492 92.4032 79.1968C92.4032 87.6571 85.7571 92.2921 76.8317 92.2921C68.1048 92.2921 62.4667 88.1333 59.7079 82.6825L67.3444 78.246ZM34.1492 79.0603C35.6254 81.6794 36.9683 83.8937 40.1968 83.8937C43.2841 83.8937 45.2317 82.6857 45.2317 77.9889V46.0365H54.6286V78.1159C54.6286 87.846 48.9238 92.2746 40.5968 92.2746C33.073 92.2746 28.7159 88.3809 26.5 83.6913L34.1492 79.0603Z" fill="black"/>
</g>
<defs>
<clipPath id="clip0_154_1999">
<rect width="100" height="100" fill="white"/>
</clipPath>
</defs>
</svg>
