<svg width="101" height="100" viewBox="0 0 101 100" fill="none" xmlns="http://www.w3.org/2000/svg">
<path d="M84.893 12.5H48.7852C48.7852 21.5 56.0695 28.7875 65.0719 28.7875H71.7125V35.2141C71.7125 44.2141 79 51.5016 88 51.5016V15.607C87.9994 14.7832 87.6718 13.9933 87.0893 13.4107C86.5067 12.8282 85.7168 12.5006 84.893 12.5Z" fill="#2684FF"/>
<path d="M67.0008 30.5H30.8922C30.8922 39.4993 38.1774 46.7868 47.1766 46.7868H53.8203V53.2133C53.8203 62.2133 61.1078 69.5008 70.1078 69.5008V33.6063C70.1066 32.7826 69.7789 31.9931 69.1964 31.4107C68.614 30.8283 67.8245 30.5005 67.0008 30.4993V30.5Z" fill="url(#paint0_linear_154_2040)"/>
<path d="M49.1086 48.4985H13C13 57.5017 20.2844 64.786 29.2875 64.786H35.9281V71.2157C35.9281 80.2157 43.2156 87.5001 52.2148 87.5001V51.6087C52.214 50.7848 51.8866 49.9949 51.3043 49.412C50.7221 48.8292 49.9325 48.501 49.1086 48.4993V48.4985Z" fill="url(#paint1_linear_154_2040)"/>
<defs>
<linearGradient id="paint0_linear_154_2040" x1="69.3563" y1="30.5407" x2="53.9938" y2="46.3813" gradientUnits="userSpaceOnUse">
<stop offset="0.176" stop-color="#0052CC"/>
<stop offset="1" stop-color="#2684FF"/>
</linearGradient>
<linearGradient id="paint1_linear_154_2040" x1="52.5031" y1="48.6376" x2="34.7406" y2="65.9188" gradientUnits="userSpaceOnUse">
<stop offset="0.176" stop-color="#0052CC"/>
<stop offset="1" stop-color="#2684FF"/>
</linearGradient>
</defs>
</svg>
