<svg width="101" height="100" viewBox="0 0 101 100" fill="none" xmlns="http://www.w3.org/2000/svg">
<path d="M12.1305 14.3094L14.2555 17.843L16.2141 21.1102C17.2305 22.8055 18.2469 24.5008 19.2617 26.1961L21.3414 29.6648L24.3742 34.7156L28.0844 40.9156C29.1539 42.7008 30.2258 44.4852 31.2969 46.2695L31.4406 46.4781C31.5961 46.5266 31.7195 46.4852 31.8477 46.4547C33.2594 46.1156 34.6711 45.7789 36.0828 45.4422C38.3727 44.8953 40.6625 44.35 42.9516 43.8023L46.5391 42.9445C48.8531 42.3914 51.1688 41.8398 53.4836 41.2852C55.8242 40.7258 58.1633 40.1633 60.5031 39.6023C61.6859 39.3188 62.8688 39.0359 64.0523 38.7539L70.9211 37.1164L78.4016 35.3352L78.8055 35.2258L78.6953 35.007C78.0164 34.0445 77.3344 33.0836 76.6539 32.1219L74.6375 29.2672L72.4813 26.2219L70.4195 23.3023L68.3773 20.4172L66.2672 17.4359L64.2 14.5211L63.1094 12.9828C62.9419 12.7482 62.811 12.4895 62.7211 12.2156C62.5062 11.5469 62.7516 11.1023 63.1414 10.7734C63.3924 10.5607 63.6851 10.4029 64.0008 10.3102C64.438 10.1753 64.8818 10.0627 65.3305 9.97266C66.2297 9.80313 67.1344 9.65859 68.0375 9.50859C69.0562 9.33906 70.0758 9.17734 71.0961 9.00937C71.7406 8.90312 72.3852 8.79141 73.0305 8.68203L75.6609 8.23906C76.512 8.09614 77.3633 7.95473 78.2148 7.81484L81.0023 7.35938L82.9375 7.03359C83.6719 6.91094 84.4078 6.78828 85.143 6.66797C86.0602 6.51875 86.9758 6.36797 87.8937 6.22422C88.4391 6.13906 88.9867 6.10859 89.5289 6.26484C89.9359 6.38281 90.3055 6.57344 90.6508 6.81641L91.1273 7.14922C91.175 7.03906 91.1062 6.97969 91.075 6.91641C90.3973 5.53664 89.4375 4.31447 88.2578 3.32891C87.1617 2.40848 85.8945 1.7139 84.5289 1.28516C83.7164 1.02734 82.8812 0.907813 82.0297 0.84375L81.6117 0.78125H19.6883L19.3531 0.835156C18.6078 0.89375 17.875 1.00469 17.1539 1.20234C15.5958 1.62669 14.1534 2.39712 12.9344 3.45625C12.2084 4.07868 11.5686 4.79516 11.032 5.58672C10.1974 6.80759 9.62392 8.18774 9.34766 9.64062L9.70781 10.268C10.5148 11.6164 11.3227 12.9625 12.1305 14.3094ZM16.225 82.9227C16.9828 83.2141 17.7656 83.4187 18.5734 83.518L19.3914 83.5547C19.5188 83.5711 19.6414 83.5938 19.7664 83.5938H44.9914C44.9508 83.5938 44.9141 83.4773 44.8688 83.3984C43.8758 81.7047 42.8734 80.0422 41.8922 78.3422C40.6578 76.2034 39.4325 74.0594 38.2164 71.9102C36.9164 69.6102 35.6281 67.3086 34.3375 65.0023C33.1119 62.8108 31.8885 60.6181 30.6672 58.4242C29.9297 57.0977 29.1961 55.7711 28.4602 54.4438L28.2633 54.1406L27.9055 54.2117C27.1961 54.3945 26.4883 54.5797 25.7797 54.7656C24.7938 55.025 23.8094 55.2891 22.8227 55.5469C20.6086 56.1234 18.3938 56.6961 16.1797 57.2711C13.9273 57.8555 11.7234 58.4414 9.46953 59.0234C9.33281 59.0594 9.875 59.0719 9.09375 59.0953V73.0836C9.875 73.1648 9.2 73.3133 9.21719 73.4563C9.26875 73.8703 9.28359 74.2875 9.35703 74.6984C9.62207 76.2091 10.2152 77.6433 11.0945 78.9C12.3945 80.7687 14.1039 82.1055 16.225 82.9227ZM11.4422 51.368L19.2609 49.5109L22.6953 48.6992C23.2672 48.5633 23.8422 48.4328 24.4094 48.2797C24.9141 48.143 24.9773 47.9758 24.7172 47.5195C24.3414 46.8602 23.9594 46.2055 23.5781 45.5492L20.2281 39.7812L16.8789 34.0117L13.4695 28.1422L10.5508 23.1211L9.3375 20.9484C9.25938 20.8156 9.87578 20.6586 9.09453 20.5883V51.9437C9.09453 51.9227 9.25391 51.9047 9.35469 51.8805L11.4422 51.368ZM91.6539 73.7805C90.632 74.1438 89.6109 74.5094 88.5891 74.875C86.2634 75.7085 83.9379 76.5424 81.6125 77.3766C80.3219 77.8398 79.0312 78.3086 77.7383 78.7703C75.1047 79.7109 72.4695 80.6477 69.8344 81.5859C68.307 82.1297 66.7797 82.6211 65.2539 83.1672C64.8359 83.318 64.4234 83.5938 64.0094 83.5938H81.5336L81.9117 83.5578C82.3549 83.5416 82.7963 83.4944 83.2328 83.4164C85.0039 83.1002 86.667 82.3439 88.0695 81.2172C89.1565 80.3519 90.0681 79.287 90.7555 78.0797C91.4742 76.825 91.9008 75.4789 92.1055 74.0539C92.1234 73.9313 92.1617 73.7977 92.0586 73.6703C91.9148 73.6594 91.7859 73.7328 91.6539 73.7805ZM90.1484 50.2484C89.375 49.1914 88.6016 48.1359 87.8297 47.0781C86.7656 45.618 85.7023 44.1562 84.6398 42.6961C84.2078 42.1031 83.7703 41.5148 83.3477 40.9156C83.2211 40.7352 83.0758 40.6875 82.8781 40.7406L82.7648 40.7734L76.8922 42.1977L73.3852 43.0484L66.5242 44.7148L59.7375 46.3641C57.3859 46.9336 55.0344 47.5016 52.6844 48.0719C50.3711 48.6336 48.0586 49.1969 45.7461 49.7594L39.0359 51.3883C37.8539 51.675 36.6727 51.9609 35.4914 52.25C35.3172 52.2922 35.1297 52.3023 34.9453 52.443L35.1031 52.7438C36.0938 54.4547 37.0836 56.1648 38.0766 57.8742C39.2 59.8102 40.325 61.7453 41.4523 63.6789C42.6922 65.8039 43.9352 67.9281 45.1773 70.0531C45.8906 71.2734 46.6 72.4961 47.3195 73.7133C48.1178 75.0662 48.9235 76.4146 49.7367 77.7586C49.9805 78.1609 50.257 78.5445 50.5359 78.9227C50.7234 79.175 50.9555 79.3906 51.2289 79.5555C51.5102 79.7258 51.8148 79.7789 52.1344 79.707C52.3 79.6695 52.4617 79.6148 52.6219 79.5594L53.2109 79.3414C55.3516 78.6086 57.4922 77.8766 59.6352 77.1469C61.3063 76.5773 62.9789 76.0117 64.6516 75.4461C66.3117 74.8836 67.9727 74.3227 69.6328 73.7625L74.5773 72.093C76.2625 71.5234 77.9477 70.9539 79.6328 70.3828C81.7008 69.6812 83.7688 68.9766 85.8375 68.2766C87.832 67.6016 89.8273 66.9305 91.8234 66.2578C91.9453 66.2164 92.0805 66.1992 92.182 66.0648L92.1945 65.7742C92.1945 61.6367 92.1937 57.4977 92.1992 53.3594C92.2034 53.1508 92.1355 52.9471 92.007 52.7828C91.3812 51.9414 90.7664 51.0938 90.1484 50.2484ZM89.8055 11.2586C89.3406 10.6703 88.7492 10.4836 88.025 10.6727C87.7094 10.7555 87.3852 10.807 87.0641 10.8664C86.0086 11.0594 84.9539 11.2492 83.8984 11.4406C82.3547 11.7211 80.8117 12.0047 79.2672 12.282C78.0453 12.5023 76.8211 12.718 75.5984 12.9328L70.6914 13.7914C70.4852 13.8273 70.2773 13.8633 70.0797 13.9266C69.7906 14.0195 69.7062 14.2008 69.8383 14.4727C69.9469 14.6945 70.0812 14.907 70.2266 15.107C71.2406 16.5055 72.2609 17.9008 73.2797 19.2961C74.6844 21.2203 76.0906 23.1445 77.4961 25.068C78.6852 26.6953 79.8758 28.3227 81.0664 29.9492C82.0016 31.2281 82.9375 32.5055 83.8734 33.7836L84.0586 34.007C86.7516 33.3406 89.4406 32.6766 92.1758 32.0008L92.1945 31.5805C92.1945 25.9492 92.1937 20.3188 92.1992 14.6883C92.1992 14.4398 92.1383 14.2398 91.9828 14.043C91.2992 13.1813 90.6297 12.3094 89.9539 11.4414L89.8055 11.2586ZM91.9891 38.5414C90.7609 38.8359 89.5289 39.1172 88.2711 39.45C88.4047 39.6867 91.8531 44.3422 92.0539 44.5625L92.1805 44.632L92.1945 44.3484V42.3875C92.1961 41.2508 92.1992 40.1133 92.1961 38.9766C92.1961 38.8375 92.2344 38.6898 92.1398 38.5492L91.9891 38.5414ZM10.6016 99.2188V85.8336H13.4398V96.875H18.8687V99.2188H10.6016ZM29.3883 99.2188L28.418 96.0328H23.5383L22.5672 99.2188H19.5094L24.2336 85.7789H27.7031L32.4461 99.2188H29.3883ZM27.7398 93.6523C26.843 90.7656 26.3375 89.1328 26.225 88.7539C26.1125 88.375 26.0312 88.0766 25.982 87.857C25.7805 88.6383 25.2039 90.5703 24.2516 93.6523H27.7398ZM36.9688 94.0828V99.2188H34.1305V85.8336H38.0305C39.8492 85.8336 41.1953 86.1648 42.068 86.8266C42.9406 87.4883 43.3773 88.4945 43.3773 89.843C43.3773 90.6305 43.1609 91.3305 42.7273 91.9438C42.2938 92.557 41.6805 93.0375 40.8875 93.3859C42.9016 96.3953 44.2141 98.3391 44.8242 99.218H41.675L38.4797 94.082H36.9688V94.0828ZM36.9688 91.7758H37.8844C38.7812 91.7758 39.4438 91.6266 39.8711 91.3273C40.2984 91.0281 40.5117 90.5586 40.5117 89.9172C40.5117 89.2828 40.2937 88.8305 39.857 88.5625C39.4203 88.2945 38.7445 88.1594 37.8289 88.1594H36.9688V91.7758ZM54.7023 99.2188L53.732 96.0328H48.8523L47.8812 99.2188H44.8234L49.5477 85.7789H53.0172L57.7602 99.2188H54.7023ZM53.0547 93.6523C52.1578 90.7656 51.6523 89.1328 51.5398 88.7539C51.4273 88.375 51.3461 88.0766 51.2969 87.857C51.0953 88.6383 50.5187 90.5703 49.5664 93.6523H53.0547ZM67.0805 85.8336H69.9461L65.3953 99.2188H62.3008L57.7602 85.8336H60.6258L63.1437 93.7984C63.2844 94.2687 63.4289 94.8164 63.5789 95.4422C63.7289 96.068 63.8219 96.5023 63.8578 96.7469C63.925 96.1852 64.1539 95.2023 64.5445 93.7992L67.0805 85.8336ZM79.3391 99.2188H71.6305V85.8336H79.3391V88.1594H74.4688V91.0984H79.0008V93.4242H74.4688V96.875H79.3391V99.2188ZM82.1312 99.2188V85.8336H84.9695V96.875H90.3984V99.2188H82.1312Z" fill="#FD4F31"/>
</svg>
