<svg width="100" height="100" viewBox="0 0 100 100" fill="none" xmlns="http://www.w3.org/2000/svg">
<path d="M17.7083 8.06015e-06H82.2917C84.6178 -0.00224053 86.9215 0.466009 89.0709 1.37796C91.2204 2.28991 93.1734 3.62765 94.8182 5.31463C96.463 7.00162 97.7673 9.00471 98.6565 11.2093C99.5457 13.4139 100.002 15.7766 100 18.1624V81.8376C100.002 84.2234 99.5457 86.5861 98.6565 88.7907C97.7673 90.9953 96.463 92.9984 94.8182 94.6854C93.1734 96.3723 91.2204 97.7101 89.0709 98.622C86.9215 99.534 84.6178 100.002 82.2917 100H17.7083C15.3822 100.002 13.0785 99.534 10.9291 98.622C8.7796 97.7101 6.82658 96.3723 5.18177 94.6854C3.53696 92.9984 2.23266 90.9953 1.34351 88.7907C0.454359 86.5861 -0.00218452 84.2234 7.85865e-06 81.8376V18.1624C-0.00218452 15.7766 0.454359 13.4139 1.34351 11.2093C2.23266 9.00471 3.53696 7.00162 5.18177 5.31463C6.82658 3.62765 8.7796 2.28991 10.9291 1.37796C13.0785 0.466009 15.3822 -0.00224053 17.7083 8.06015e-06Z" fill="#DD4814"/>
<path d="M21.0077 43.993C17.6888 43.993 15 46.6821 15 50.0007C15 53.3178 17.6888 56.0066 21.0077 56.0066C24.3247 56.0066 27.0136 53.3178 27.0136 50.0007C27.0136 46.6821 24.3247 43.993 21.0077 43.993ZM63.8933 71.2922C61.0203 72.9515 60.0353 76.623 61.6949 79.4944C63.3523 82.3673 67.0238 83.3521 69.8967 81.6927C72.7694 80.0353 73.7544 76.3638 72.0951 73.4906C70.4377 70.6195 66.764 69.6348 63.8933 71.2922ZM34.0545 50.0007C34.0545 44.065 37.0028 38.8209 41.5141 35.6454L37.1228 28.2905C31.8677 31.8033 27.9576 37.1712 26.3327 43.4579C28.2287 45.0051 29.4423 47.3603 29.4423 50.0005C29.4423 52.639 28.2287 54.9943 26.3327 56.5414C27.9555 62.8301 31.8656 68.1982 37.1228 71.7109L41.5141 64.3542C37.0028 61.1805 34.0545 55.9368 34.0545 50.0007ZM51.5985 32.4548C60.764 32.4548 68.2837 39.4822 69.073 48.4443L77.6317 48.3181C77.2106 41.7018 74.3202 35.7621 69.879 31.3944C67.5952 32.2572 64.9571 32.1252 62.677 30.8109C60.3929 29.4928 58.9608 27.2692 58.5693 24.8555C56.3495 24.2429 54.0133 23.9075 51.598 23.9075C47.4459 23.9075 43.5202 24.8828 40.0346 26.6079L44.2082 34.0869C46.4534 33.0421 48.9581 32.4548 51.5985 32.4548ZM51.5985 67.5448C48.9581 67.5448 46.4534 66.9573 44.2085 65.9127L40.0349 73.3914C43.5204 75.1187 47.4461 76.0942 51.5985 76.0942C54.0138 76.0942 56.35 75.7586 58.5696 75.1441C58.9611 72.7304 60.3937 70.509 62.6773 69.1885C64.959 67.872 67.5954 67.7424 69.8793 68.6053C74.3205 64.2376 77.2109 58.2978 77.632 51.6815L69.0712 51.5553C68.2837 60.5198 60.7643 67.5448 51.5985 67.5448ZM63.8911 28.7056C66.764 30.3646 70.4358 29.3819 72.0933 26.509C73.7526 23.6361 72.7699 19.9643 69.8967 18.3048C67.0238 16.6473 63.3523 17.6321 61.6925 20.505C60.0353 23.3763 61.0201 27.0481 63.8911 28.7056Z" fill="white"/>
</svg>
