<svg width="101" height="100" viewBox="0 0 101 100" fill="none" xmlns="http://www.w3.org/2000/svg">
<path d="M18.2083 8.06015e-06H82.7917C85.1178 -0.00224053 87.4215 0.466009 89.5709 1.37796C91.7204 2.28991 93.6734 3.62765 95.3182 5.31463C96.963 7.00162 98.2673 9.00471 99.1565 11.2093C100.046 13.4139 100.502 15.7766 100.5 18.1624V81.8376C100.502 84.2234 100.046 86.5861 99.1565 88.7907C98.2673 90.9953 96.963 92.9984 95.3182 94.6854C93.6734 96.3723 91.7204 97.7101 89.5709 98.622C87.4215 99.534 85.1178 100.002 82.7917 100H18.2083C15.8822 100.002 13.5785 99.534 11.4291 98.622C9.2796 97.7101 7.32658 96.3723 5.68177 94.6854C4.03696 92.9984 2.73266 90.9953 1.84351 88.7907C0.954359 86.5861 0.497815 84.2234 0.500008 81.8376V18.1624C0.497815 15.7766 0.954359 13.4139 1.84351 11.2093C2.73266 9.00471 4.03696 7.00162 5.68177 5.31463C7.32658 3.62765 9.2796 2.28991 11.4291 1.37796C13.5785 0.466009 15.8822 -0.00224053 18.2083 8.06015e-06Z" fill="#F0F0F0"/>
<g clip-path="url(#clip0_154_2111)">
<path d="M67.0615 38.3172C67.9334 40.2158 68.9065 42.067 69.7715 43.969C71.436 47.6297 72.7002 51.4946 73.2254 55.4811C73.7505 59.4676 73.5221 63.5843 72.2769 67.4067C70.8688 71.7215 68.1958 75.5602 64.9208 78.7018C61.0465 82.4187 56.0732 85.284 50.7084 85.4955C47.2127 85.6332 43.7326 84.6338 40.637 83.0043C38.0355 81.6351 35.6605 79.8105 33.7656 77.5629C31.8708 75.3154 30.4638 72.6392 29.8123 69.7723C29.01 66.2421 29.3731 62.4944 30.5873 59.0839C31.4557 56.6449 32.743 54.3741 33.6593 51.9528C34.6608 49.3071 35.22 46.4819 36.5468 43.9835C37.7492 41.718 39.553 39.783 40.5111 37.404C41.0834 35.9832 41.3316 34.4571 41.7012 32.9703C42.0707 31.4836 42.5881 29.9861 43.5944 28.8312C44.8075 27.4395 46.6319 26.6851 48.4654 26.4733C50.2989 26.2615 52.155 26.5475 53.9545 26.958C55.3871 27.2847 56.8024 27.6904 58.1868 28.1829C59.3686 28.6033 60.5396 29.0928 61.5614 29.8201C62.9539 30.8109 64.0144 32.2061 64.8592 33.6917C65.7041 35.1774 66.3508 36.7646 67.0642 38.3174L67.0615 38.3172Z" fill="#020204"/>
<path d="M51.6671 85.5292C53.1399 85.6149 54.61 85.7579 56.0694 85.9783C57.3527 86.1733 58.6268 86.4245 59.8881 86.7313C61.8635 87.2101 63.832 87.8207 65.8639 87.8785C66.3987 87.8938 66.9351 87.8699 67.4599 87.7537C67.9848 87.6375 68.4888 87.4257 68.9073 87.0923C69.5313 86.595 69.9249 85.845 70.0741 85.0606C70.2232 84.2763 70.1298 83.4603 69.9 82.6961C69.4407 81.1681 68.454 79.8642 67.6407 78.4929C67.1734 77.7078 66.757 76.8916 66.2509 76.1311C65.7448 75.3705 65.1396 74.6582 64.371 74.1628C63.3085 73.4778 61.991 73.2545 60.7332 73.3798C59.4754 73.5052 58.2696 73.9596 57.147 74.541C55.5735 75.3556 54.0924 76.4744 53.2347 78.0248C52.9361 78.5644 52.7192 79.1442 52.4656 79.7065C52.212 80.2689 51.915 80.8221 51.4855 81.2645C51.0062 81.7578 50.3844 82.0903 49.8887 82.5667C49.641 82.8077 49.4241 83.0822 49.2996 83.4017C49.175 83.7212 49.141 84.0861 49.2567 84.4099C49.3363 84.6322 49.4817 84.8271 49.6611 84.9803C49.8405 85.1334 50.0526 85.2454 50.2751 85.323C50.7196 85.4794 51.199 85.5025 51.6695 85.5298L51.6671 85.5292Z" fill="#020204"/>
<path d="M47.289 85.4342C46.0615 85.4626 44.8468 85.6822 43.6472 85.9307C42.4978 86.1682 41.3539 86.4328 40.2184 86.7308C38.3027 87.2337 36.3846 87.836 34.4043 87.878C33.8832 87.8887 33.3583 87.8606 32.8503 87.7431C32.3424 87.6255 31.8507 87.4164 31.4431 87.0913C30.8205 86.5948 30.4247 85.8461 30.2783 85.0636C30.1318 84.2811 30.2212 83.4665 30.4483 82.7034C30.9027 81.177 31.8772 79.8702 32.6752 78.4922C33.1286 77.7089 33.5286 76.8946 34.019 76.1338C34.5093 75.373 35.0997 74.6591 35.856 74.1618C36.8864 73.4843 38.1715 73.2548 39.3988 73.3756C40.626 73.4964 41.8021 73.9487 42.8845 74.5399C44.4125 75.3746 45.8079 76.5231 46.6913 78.0211C47.3113 79.0735 47.6688 80.2772 48.3934 81.2608C48.7835 81.7905 49.2771 82.2478 49.5984 82.8201C49.7607 83.1061 49.8796 83.4213 49.9072 83.7493C49.9348 84.0774 49.867 84.4182 49.6822 84.6906C49.5604 84.8708 49.3912 85.0165 49.2021 85.1239C49.013 85.2312 48.8044 85.3019 48.5915 85.3461C48.1631 85.435 47.7266 85.4211 47.2915 85.4318L47.289 85.4342ZM40.43 34.3181C40.2575 32.2428 40.2961 30.1559 40.2211 28.0747C40.1467 26.0735 39.9624 24.0734 40.0297 22.072C40.0982 20.0369 40.4394 17.9749 41.3456 16.1459C42.2517 14.317 43.7235 12.7697 45.519 11.8019C47.206 10.8915 49.1518 10.5024 51.0712 10.5233C53.6741 10.5516 56.2834 11.3379 58.3909 12.8648C59.7124 13.8213 60.8237 15.0544 61.7004 16.4301C62.4483 17.6043 63.0294 18.8867 63.3942 20.2326C64.1421 22.9908 63.9646 25.8957 64.1102 28.7471C64.2481 31.4496 64.6806 34.1456 64.5333 36.8476C64.5012 37.4367 64.438 38.0349 64.1764 38.5614C63.9214 39.0742 63.4887 39.4866 62.9914 39.771C62.4941 40.0554 61.9345 40.2171 61.3686 40.3044C60.2367 40.479 59.0791 40.3639 57.9389 40.4697C56.2839 40.6231 54.7053 41.2369 53.063 41.491C51.1082 41.7936 49.1113 41.5793 47.1321 41.5001C46.3395 41.4685 45.5442 41.4586 44.7574 41.3598C43.9706 41.261 43.1855 41.0706 42.4855 40.6973C42.0571 40.4675 41.6573 40.1684 41.3354 39.8002C41.0135 39.432 40.7677 38.9968 40.6453 38.521C40.4613 37.8105 40.5583 37.0626 40.5609 36.3286C40.5636 35.6576 40.4854 34.9889 40.427 34.3202L40.43 34.3181Z" fill="#020204"/>
<path d="M43.5447 33.5184C43.2646 33.8692 43.082 34.2915 42.9717 34.7272C42.8613 35.1629 42.8212 35.6131 42.8038 36.0619C42.7695 36.9597 42.8241 37.8748 42.5869 38.7413C42.3325 39.6679 41.7631 40.4701 41.2056 41.2526C40.2403 42.6076 39.2642 43.9974 38.7883 45.5913C38.4999 46.5566 38.4038 47.579 38.5077 48.5811C37.4272 50.168 36.4913 51.8534 35.7166 53.6101C34.5421 56.2724 33.736 59.1069 33.4524 62.0025C33.1054 65.5485 33.559 69.1957 34.9593 72.4721C35.9715 74.8409 37.4813 77.0094 39.4275 78.6973C40.417 79.5555 41.5162 80.2879 42.6945 80.8655C46.7683 82.8677 51.8027 82.8712 55.8087 80.737C57.9023 79.6214 59.6697 77.99 61.3733 76.3394C62.3995 75.3454 63.4203 74.3278 64.203 73.1324C65.7098 70.8316 66.2347 68.0349 66.5608 65.304C67.1312 60.5286 67.1494 55.4843 65.0559 51.1548C64.3329 49.6612 63.3764 48.2926 62.2225 47.1002C61.9158 45.0169 61.3104 42.9771 60.4304 41.0638C59.7958 39.6834 59.0197 38.3694 58.4301 36.9694C58.188 36.3945 57.9748 35.8059 57.7089 35.243C57.443 34.6801 57.1091 34.1384 56.6581 33.7072C56.1968 33.2654 55.6218 32.9526 55.015 32.7523C54.4082 32.552 53.7698 32.4612 53.1325 32.4291C51.8565 32.3648 50.5778 32.5317 49.3016 32.481C48.2853 32.4409 47.2723 32.2625 46.2568 32.3225C45.7491 32.3525 45.2419 32.443 44.7706 32.6345C44.2993 32.826 43.865 33.1211 43.5479 33.5182L43.5447 33.5184Z" fill="#FDFDFB"/>
<g opacity="0.3" filter="url(#filter0_f_154_2111)">
<path d="M41.6477 34.5126C42.5336 35.0602 43.3286 35.7321 43.9962 36.4987C44.6156 37.2101 45.1423 38.0167 45.951 38.5435C46.5222 38.9155 47.2083 39.1251 47.9043 39.1888C48.7215 39.2635 49.5485 39.1427 50.3363 38.9293C51.0665 38.7315 51.7724 38.4533 52.4202 38.0857C53.6515 37.3862 54.6803 36.3608 56.0353 35.9011C56.3317 35.8007 56.6405 35.7289 56.9262 35.6051C57.2119 35.4813 57.4805 35.2958 57.6171 35.0333C57.751 34.7812 57.743 34.4902 57.7858 34.2132C57.8313 33.9172 57.9342 33.6306 57.9904 33.3361C58.0466 33.0416 58.0533 32.7263 57.9154 32.4555C57.8008 32.231 57.5927 32.0539 57.3531 31.9412C57.1134 31.8285 56.8443 31.7774 56.5754 31.7651C56.0382 31.7404 55.5075 31.8675 54.9719 31.9126C54.2623 31.9723 53.5478 31.8879 52.8358 31.9077C51.95 31.9323 51.077 32.1173 50.1917 32.1556C49.1816 32.1995 48.1742 32.0525 47.1636 32.0199C46.7265 32.0056 46.2866 32.0125 45.8557 32.0823C45.4248 32.1521 45.002 32.2851 44.6373 32.508C44.2838 32.7244 43.9954 33.0179 43.6714 33.2702C43.5094 33.3965 43.3372 33.5132 43.1481 33.602C42.9591 33.6908 42.7518 33.7512 42.5403 33.7606C42.4313 33.7655 42.3212 33.7569 42.2136 33.7722C42.1233 33.7862 42.0369 33.8165 41.9594 33.8614C41.8818 33.9063 41.8147 33.9649 41.7619 34.0338C41.7091 34.1027 41.6717 34.1805 41.6517 34.2629C41.6317 34.3452 41.6297 34.4303 41.6456 34.5134L41.6477 34.5126Z" fill="black"/>
</g>
<path d="M43.9538 22.4183C43.4771 22.4443 43.0205 22.6647 42.6716 22.9906C42.3227 23.3165 42.0771 23.7436 41.9256 24.1967C41.623 25.1029 41.6912 26.0851 41.7595 27.0352C41.8219 27.898 41.8854 28.7772 42.2086 29.5797C42.3701 29.9809 42.5969 30.3563 42.8995 30.668C43.2021 30.9797 43.5829 31.2148 44.0022 31.3198C44.3959 31.4183 44.8158 31.398 45.2027 31.2764C45.5897 31.1548 45.9429 30.9336 46.2326 30.6503C46.6557 30.2366 46.9404 29.6954 47.1037 29.1266C47.2671 28.5578 47.3137 27.9612 47.3051 27.37C47.2944 26.6298 47.198 25.8864 46.9661 25.1838C46.7342 24.4811 46.3646 23.8172 45.8486 23.2862C45.5988 23.0292 45.3136 22.8029 44.9917 22.6444C44.6698 22.4858 44.3107 22.3966 43.9527 22.4159L43.9538 22.4183Z" fill="url(#paint0_radial_154_2111)"/>
<path d="M52.3938 22.4183C51.6494 22.9271 51.0254 23.6434 50.7202 24.4937C50.3356 25.5653 50.4829 26.7645 50.854 27.841C51.2343 28.9434 51.87 29.994 52.8303 30.6559C53.3104 30.9869 53.8661 31.2137 54.445 31.2825C55.024 31.3514 55.626 31.2571 56.1428 30.988C56.7729 30.6597 57.2536 30.0847 57.5519 29.4402C57.8502 28.7956 57.9777 28.0825 58.0173 27.3729C58.0708 26.4691 57.9798 25.5503 57.6826 24.695C57.3599 23.7658 56.7721 22.9089 55.9492 22.3741C55.5368 22.1069 55.0676 21.9232 54.5808 21.856C54.094 21.7888 53.5887 21.8391 53.1305 22.0172C52.8694 22.1189 52.6252 22.2601 52.3941 22.4189L52.3938 22.4183Z" fill="url(#paint1_radial_154_2111)"/>
<g opacity="0.3" filter="url(#filter1_f_154_2111)">
<path d="M43.7953 30.1283L42.4199 31.3829C42.1779 31.6265 41.9352 31.8874 41.8268 32.213C41.7304 32.5022 41.7486 32.8163 41.7009 33.1181C41.6849 33.2215 41.6608 33.3243 41.6602 33.4287C41.6594 33.4811 41.6664 33.5333 41.6811 33.5835C41.6964 33.6336 41.7213 33.6807 41.7574 33.719C41.8169 33.7825 41.9015 33.817 41.9867 33.8342C42.0718 33.8513 42.1594 33.8534 42.2459 33.8628C42.6358 33.9049 42.9951 34.0939 43.3181 34.3167L44.2687 35.0089C44.9998 35.4733 45.8736 35.6797 46.7393 35.7127C47.6051 35.7456 48.4687 35.6136 49.3181 35.4436C49.9929 35.3086 50.6661 35.149 51.3064 34.8962C52.2873 34.5095 53.1712 33.9142 54.0158 33.2836C54.3996 32.9971 54.7779 32.7017 55.1226 32.3691C55.2396 32.2561 55.3529 32.1388 55.4782 32.0355C55.6035 31.9321 55.7428 31.8421 55.8976 31.7923C56.1332 31.7165 56.3892 31.7382 56.6334 31.7789C56.8174 31.8097 57.0019 31.8512 57.1883 31.8432C57.2815 31.8394 57.3749 31.8234 57.4614 31.7886C57.5479 31.7537 57.628 31.7002 57.6872 31.6279C57.7644 31.5312 57.8062 31.411 57.8055 31.2873C57.8061 31.1646 57.768 31.0436 57.7064 30.9378C57.5819 30.7263 57.3669 30.5835 57.1428 30.4839C56.8359 30.3473 56.5038 30.2804 56.1771 30.2011C55.1743 29.959 54.1995 29.6013 53.2754 29.1423C52.8159 28.9141 52.3692 28.6614 51.9172 28.4193C51.4523 28.1702 50.9786 27.9308 50.4738 27.7779C49.3457 27.436 48.112 27.5482 46.9988 27.9349C45.7616 28.3644 44.6431 29.13 43.7945 30.1275L43.7953 30.1283Z" fill="black"/>
</g>
<g filter="url(#filter2_f_154_2111)">
<path d="M55.4714 13.9797C54.7849 14.4641 55.0848 15.0689 55.3801 15.6761C55.6754 16.2833 54.7309 18.0334 54.7207 18.1087C54.7106 18.184 56.5797 17.2216 57.0891 16.5962C57.6908 15.8578 59.211 17.5953 59.1286 17.3305C59.1292 16.8575 56.1583 13.4953 55.4717 13.9797H55.4714Z" fill="#7C7C7C"/>
</g>
<path d="M54.111 24.6662C53.8311 24.6863 53.5583 24.7819 53.321 24.934C53.0838 25.0861 52.881 25.2861 52.722 25.5178C52.4041 25.9805 52.2641 26.5479 52.2418 27.1084C52.225 27.5294 52.2713 27.9559 52.4111 28.3536C52.5509 28.7513 52.786 29.1195 53.1108 29.3881C53.4428 29.6631 53.8649 29.8283 54.2957 29.8486C54.7266 29.869 55.1634 29.745 55.5168 29.4987C55.7988 29.3024 56.0262 29.0322 56.1882 28.7293C56.3502 28.4264 56.4479 28.0912 56.4921 27.7506C56.5708 27.1488 56.4819 26.5206 56.2037 25.9813C55.9255 25.442 55.4539 24.9977 54.8843 24.788C54.638 24.697 54.3729 24.6499 54.111 24.6686V24.6662Z" fill="#020204"/>
<g filter="url(#filter3_f_154_2111)">
<path d="M54.7788 26.5019C54.5469 26.5934 54.1797 26.5359 54.0783 26.7635C54.018 26.8984 54.1032 27.1204 54.2397 27.1759C54.5161 27.2883 54.9445 27.0848 55.0565 26.8077C55.1047 26.6872 55.0316 26.497 54.9119 26.4462C54.8677 26.4274 54.8235 26.4836 54.779 26.5013L54.7788 26.5019Z" fill="#141413"/>
</g>
<g filter="url(#filter4_f_154_2111)">
<path d="M55.8417 27.1044C56.1523 26.7938 55.6205 25.969 55.2057 25.6316C54.9052 25.3871 54.0301 25.1308 54.0676 25.3973C54.1051 25.6637 54.496 26.0041 54.7625 26.2641C55.087 26.5841 55.6944 27.2522 55.8417 27.1044Z" fill="url(#paint2_linear_154_2111)"/>
</g>
<g filter="url(#filter5_f_154_2111)">
<path d="M54.9795 20.2124C54.8518 20.3731 54.7364 20.5477 54.6448 20.7399C55.2194 20.8637 55.7695 21.1004 56.2595 21.4263C57.2088 22.0566 57.9297 22.9784 58.4353 24.0037C58.5531 23.873 58.6607 23.7327 58.7534 23.5769C58.2451 22.5089 57.5098 21.543 56.5276 20.891C56.0557 20.5777 55.5301 20.3409 54.9798 20.2135L54.9795 20.2124Z" fill="url(#paint3_linear_154_2111)"/>
</g>
<g filter="url(#filter6_f_154_2111)">
<path d="M43.8997 20.7361C43.8349 20.7348 43.772 20.7407 43.7069 20.7436L43.5811 20.7511C43.9594 20.7854 44.3357 20.8871 44.6774 21.0403C45.1433 21.2492 45.5541 21.5472 45.9159 21.8865C46.5864 22.5145 47.0848 23.2897 47.4222 24.1118C47.3397 23.4906 47.153 22.8877 46.87 22.3286C46.7377 22.176 46.6006 22.026 46.4517 21.8868C46.0902 21.5478 45.6789 21.25 45.2132 21.0406C44.8062 20.8577 44.3525 20.7439 43.8995 20.7358L43.8997 20.7361Z" fill="url(#paint4_linear_154_2111)"/>
</g>
<path d="M42.8046 26.3682C42.705 26.9696 42.7012 27.6005 42.9079 28.1739C43.0418 28.5525 43.2695 28.8961 43.5431 29.1914C43.7225 29.3848 43.9255 29.5604 44.1633 29.6743C44.4011 29.7881 44.6764 29.8365 44.9319 29.7725C45.1675 29.7136 45.3742 29.561 45.5263 29.3717C45.6784 29.1823 45.7802 28.9558 45.8525 28.7236C46.0659 28.0381 46.0319 27.2878 45.8198 26.6017C45.6653 26.1017 45.4096 25.6195 45.0093 25.2823C44.8183 25.1216 44.5947 24.9958 44.3518 24.9377C44.109 24.8796 43.8457 24.8935 43.6186 24.9966C43.3664 25.1112 43.1709 25.3294 43.0429 25.575C42.9149 25.8206 42.8493 26.0945 42.804 26.3676L42.8046 26.3682Z" fill="#020204"/>
<g filter="url(#filter7_f_154_2111)">
<path d="M44.0759 25.9329C44.1407 26.1027 44.3581 26.1643 44.4775 26.3011C44.5935 26.4342 44.7151 26.5716 44.7788 26.7363C44.9006 27.0512 44.6583 27.5182 44.9127 27.7405C44.9925 27.8101 45.1524 27.8117 45.2308 27.7405C45.5374 27.4614 45.4691 26.8986 45.3481 26.502C45.2383 26.1421 44.966 25.8014 44.6304 25.6303C44.4751 25.5513 44.2422 25.4857 44.1093 25.5982C44.0236 25.6705 44.036 25.8285 44.0759 25.9329Z" fill="url(#paint5_linear_154_2111)"/>
</g>
<path d="M41.683 33.8448C41.6991 33.9238 41.7294 34.0001 41.7706 34.0697C41.8418 34.1889 41.9457 34.2855 42.0579 34.3669C42.1701 34.4484 42.2917 34.5169 42.4093 34.5905C43.0343 34.9834 43.5433 35.5358 43.9959 36.1188C44.603 36.9013 45.1399 37.7697 45.9507 38.3387C46.5232 38.7404 47.2082 38.9694 47.9039 39.0393C48.7207 39.1215 49.5481 38.9895 50.336 38.7576C51.0659 38.5425 51.7721 38.2407 52.4199 37.8417C53.6517 37.0823 54.68 35.9691 56.035 35.47C56.3314 35.361 56.6402 35.283 56.9256 35.1486C57.2111 35.0142 57.4799 34.8128 57.6165 34.5279C57.7504 34.2542 57.7424 33.9382 57.7852 33.6375C57.8307 33.3162 57.9336 33.005 57.9898 32.6853C58.046 32.3655 58.0527 32.0233 57.9148 31.7293C57.8002 31.4856 57.5921 31.2933 57.3525 31.1709C57.1128 31.0486 56.8437 30.9931 56.5748 30.9797C56.0376 30.953 55.5069 31.0909 54.9713 31.1399C54.2617 31.2047 53.5472 31.1136 52.8352 31.1345C51.9494 31.1613 51.0764 31.3608 50.1911 31.4036C49.181 31.4526 48.1733 31.2965 47.163 31.2564C46.7254 31.2387 46.2846 31.243 45.853 31.3166C45.4213 31.3903 44.9974 31.5373 44.6372 31.786C44.2864 32.0286 44.0063 32.3591 43.6839 32.6387C43.5227 32.7784 43.3492 32.9064 43.1575 32.9994C42.9657 33.0923 42.7539 33.1504 42.5405 33.1458C42.4334 33.1432 42.3182 33.1252 42.2138 33.1584C42.1484 33.1791 42.0906 33.2192 42.0413 33.2672C41.9921 33.3151 41.9516 33.3708 41.9133 33.4278C41.8243 33.5601 41.7466 33.6996 41.6812 33.845L41.683 33.8448Z" fill="url(#paint6_radial_154_2111)"/>
<g filter="url(#filter8_f_154_2111)">
<path d="M45.6476 34.9332C45.5475 35.3653 45.611 35.8193 45.826 36.2073C46.0409 36.5954 46.392 36.8901 46.8114 37.0345C47.3411 37.2112 47.938 37.1245 48.4328 36.8663C48.7194 36.7163 48.9818 36.5059 49.1478 36.2279C49.2318 36.089 49.2869 35.9345 49.3098 35.7737C49.3313 35.6131 49.3165 35.447 49.2603 35.2958C49.1987 35.1297 49.0889 34.983 48.9534 34.8684C48.8179 34.7538 48.6575 34.6707 48.4893 34.615C48.1525 34.5036 47.7904 34.5015 47.4359 34.5186C46.8987 34.5444 46.3643 34.6119 45.8375 34.7203" fill="#D9B30D"/>
</g>
<g filter="url(#filter9_f_154_2111)">
<path d="M43.9093 31.6081L42.8655 32.2944C42.6896 32.4192 42.5083 32.5542 42.4156 32.7486C42.3497 32.8865 42.3347 33.0431 42.3353 33.1958C42.3358 33.3484 42.3433 33.5021 42.323 33.651C42.3096 33.7544 42.2817 33.8561 42.2769 33.9603C42.2742 34.0125 42.2782 34.0648 42.2919 34.1156C42.305 34.1664 42.3302 34.2132 42.3655 34.2519C42.4119 34.3009 42.4748 34.3312 42.5396 34.351C42.6044 34.3708 42.6708 34.3805 42.7367 34.3965C43.0513 34.4704 43.325 34.6635 43.5652 34.8796L44.2722 35.5427C44.9515 36.0954 45.8521 36.3246 46.7251 36.3388C47.5981 36.353 48.4668 36.1701 49.3213 35.9773L51.3096 35.4299C52.3012 35.0644 53.2215 34.5109 54.019 33.8173C54.3805 33.5029 54.7198 33.1575 55.1258 32.9028C55.4846 32.6774 55.8871 32.5285 56.2521 32.3129C56.2847 32.2936 56.3171 32.2738 56.3463 32.2494C56.3755 32.2251 56.4015 32.1964 56.4186 32.1624C56.4481 32.1035 56.4481 32.0339 56.4293 31.9707C56.4106 31.9075 56.3742 31.8518 56.3329 31.8009C56.2874 31.7447 56.2357 31.6932 56.1803 31.6461C55.799 31.3194 55.2813 31.2011 54.7809 31.1614C54.2804 31.1218 53.774 31.1499 53.2813 31.0672C52.8153 30.9868 52.3727 30.8154 51.9231 30.6716C51.4514 30.5191 50.969 30.4018 50.48 30.3208C49.3298 30.1334 48.1457 30.1693 47.0049 30.4065C45.9182 30.6328 44.8707 31.0412 43.9147 31.6062L43.9093 31.6081Z" fill="#604405"/>
</g>
<path d="M43.7953 30.3961C43.2785 30.7443 42.8136 31.1682 42.42 31.6507C42.1951 31.9265 41.9905 32.2264 41.8772 32.5644C41.788 32.83 41.7578 33.1112 41.7015 33.3857C41.6801 33.4885 41.656 33.5919 41.656 33.6963C41.6563 33.7488 41.663 33.8015 41.679 33.8516C41.6951 33.9017 41.7213 33.9486 41.7578 33.9863C41.818 34.049 41.9024 34.0827 41.9875 34.1004C42.0727 34.1181 42.16 34.1205 42.2462 34.1304C42.6358 34.1746 42.9944 34.3639 43.3173 34.5862L44.2691 35.2765C45.0012 35.7398 45.8744 35.9454 46.7399 35.9789C47.6054 36.0124 48.469 35.8809 49.3187 35.7111C49.9935 35.5764 50.6667 35.4166 51.307 35.1638C52.2876 34.7771 53.1718 34.1818 54.0164 33.5512C54.4002 33.2646 54.7785 32.9693 55.1232 32.6367C55.2402 32.5237 55.3535 32.4064 55.4788 32.303C55.6041 32.1997 55.7434 32.1097 55.8981 32.0599C56.1338 31.9841 56.3898 32.0058 56.634 32.0465C56.818 32.0773 57.0025 32.1188 57.1889 32.1108C57.2821 32.107 57.3755 32.0909 57.462 32.0561C57.5485 32.0213 57.6286 31.9678 57.6878 31.8955C57.765 31.7988 57.8068 31.6786 57.8061 31.5548C57.8067 31.4322 57.7686 31.3111 57.707 31.2054C57.5825 30.9938 57.3675 30.8511 57.1433 30.7515C56.8365 30.6149 56.5044 30.548 56.1777 30.4687C55.1749 30.2266 54.2001 29.8689 53.276 29.4099C52.8165 29.1817 52.3698 28.9289 51.9178 28.6869C51.4529 28.4378 50.9792 28.1984 50.4744 28.0455C49.3463 27.7036 48.1126 27.8158 46.9994 28.2024C45.7622 28.632 44.6437 29.3976 43.7951 30.3951L43.7953 30.3961Z" fill="url(#paint7_linear_154_2111)"/>
<g filter="url(#filter10_f_154_2111)">
<path d="M51.7218 30.6442C51.6613 30.5676 51.5745 30.5135 51.4808 30.4862C51.3871 30.4589 51.2866 30.4594 51.1905 30.4728C50.9977 30.5058 50.8252 30.6067 50.664 30.7205C50.2061 31.0354 49.8018 31.4243 49.4491 31.8533C48.9818 32.421 48.5962 33.0776 48.4669 33.8014C48.4454 33.9232 48.4307 34.0478 48.446 34.1709C48.4612 34.2941 48.5084 34.416 48.5959 34.5038C48.6725 34.5809 48.777 34.628 48.8846 34.6436C48.9923 34.6591 49.1031 34.6441 49.206 34.6093C49.4121 34.5397 49.5835 34.3951 49.7453 34.2505C50.6386 33.4511 51.4465 32.4917 51.7697 31.337C51.8019 31.221 51.8297 31.1024 51.8286 30.9821C51.8276 30.8619 51.7965 30.7385 51.7221 30.6442H51.7218Z" fill="#F6DA4A"/>
</g>
<g opacity="0.8" filter="url(#filter11_f_154_2111)">
<path d="M49.5821 28.9891C49.6437 29.1878 49.9645 29.1552 50.1498 29.2502C50.3123 29.3338 50.4428 29.5172 50.6257 29.5226C50.7997 29.5279 51.0712 29.4623 51.0943 29.2896C51.1243 29.0612 50.7906 28.916 50.5761 28.8322C50.3003 28.7246 49.946 28.67 49.6871 28.814C49.6276 28.847 49.5628 28.9243 49.5832 28.9894L49.5821 28.9891Z" fill="url(#paint8_radial_154_2111)"/>
</g>
<g opacity="0.8" filter="url(#filter12_f_154_2111)">
<path d="M46.5234 28.874C46.2856 28.7963 45.8922 29.2159 46.0205 29.431C46.0558 29.4899 46.1637 29.5648 46.2363 29.5247C46.3461 29.4644 46.4355 29.2489 46.5542 29.1645C46.6334 29.1083 46.6157 28.9042 46.5231 28.8742L46.5234 28.874Z" fill="url(#paint9_radial_154_2111)"/>
</g>
<g filter="url(#filter13_f_154_2111)">
<path d="M57.009 32.9558C57.4316 32.9558 57.8217 32.5321 57.8803 32.0094C57.9389 31.4867 57.6438 31.063 57.2212 31.063C56.7986 31.063 56.4086 31.4867 56.35 32.0094C56.2914 32.5321 56.5865 32.9558 57.009 32.9558Z" fill="url(#paint10_linear_154_2111)"/>
</g>
<path d="M68.2874 50.0237C69.9169 51.3345 70.9508 53.3137 71.2706 55.3802C71.5201 56.9923 71.3579 58.6458 70.9947 60.2357C70.6316 61.8255 70.0703 63.3623 69.5133 64.8951C69.2911 65.5065 69.0683 66.1234 68.9799 66.7677C68.8916 67.412 68.9478 68.0944 69.2584 68.6658C69.6146 69.3208 70.2795 69.7718 70.9942 69.9841C71.6998 70.1938 72.4617 70.1892 73.1761 70.0114C73.8906 69.8336 74.5571 69.4858 75.1384 69.034C76.6155 67.8871 77.5067 66.1018 77.8516 64.2642C78.1965 62.4267 78.038 60.5286 77.7177 58.6863C77.2805 56.1744 76.5443 53.7188 75.6076 51.3468C74.9186 49.6022 74.1123 47.887 72.986 46.3874C71.8835 44.92 70.4937 43.6847 69.4137 42.2006C68.6631 41.1696 68.062 40.0182 67.1627 39.1141C66.7129 38.6621 66.188 38.2754 65.5935 38.0443C64.999 37.8132 64.3314 37.7455 63.7177 37.9185C62.909 38.1461 62.2449 38.7834 61.8959 39.5471C61.547 40.3109 61.4827 41.1868 61.6196 42.0161C61.7963 43.0859 62.2853 44.0789 62.8369 45.0126C63.4601 46.0669 64.1817 47.0818 65.1227 47.8656C66.1047 48.6837 67.2923 49.2233 68.288 50.024L68.2874 50.0237Z" fill="#020204"/>
<g opacity="0.25" filter="url(#filter14_f_154_2111)">
<path d="M39.0493 46.3131C39.3213 46.7212 38.8802 48.1282 45.2202 47.2276C45.2202 47.2276 44.1068 47.35 43.0092 47.6036C41.303 48.1747 39.8162 48.8131 38.6694 49.6588C37.5331 50.4948 36.7013 51.5861 35.6587 52.5233C35.6587 52.5233 37.347 49.4384 37.7677 48.51C38.1884 47.5816 37.6972 47.6263 38.0305 46.2569C38.3637 44.8874 39.1782 43.5771 39.1782 43.5771C39.1782 43.5771 38.513 45.5079 39.0493 46.3128V46.3131Z" fill="url(#paint11_radial_154_2111)"/>
</g>
<g opacity="0.42" filter="url(#filter15_f_154_2111)">
<path d="M59.4366 45.9447C58.1446 46.8445 57.3876 46.7382 55.8197 46.9141C54.2518 47.0901 50.0093 47.0266 50.0093 47.0266C50.0093 47.0266 50.6236 47.0151 51.985 47.2687C53.3464 47.5223 56.1231 47.7646 57.6867 48.3599C59.2503 48.9552 59.8204 49.125 60.7708 49.7256C62.1231 50.5809 63.116 51.9206 64.4091 52.8579C64.4091 52.8579 64.4718 51.6143 63.9496 50.6856C63.4274 49.7569 62.0216 48.2929 61.6113 46.9259C61.2011 45.5589 61.0024 42.8738 61.0024 42.8738C61.0024 42.8738 60.7292 45.0442 59.4369 45.9442L59.4366 45.9447Z" fill="url(#paint12_radial_154_2111)"/>
</g>
<g opacity="0.2" filter="url(#filter16_f_154_2111)">
<path d="M47.2845 44.0227L47.0979 45.186C47.0604 45.3761 47.0189 45.5662 46.9479 45.7464C46.8769 45.9267 46.7754 46.0978 46.6319 46.2274C46.506 46.3409 46.3523 46.4191 46.1981 46.4898C45.5961 46.7656 44.9518 46.9485 44.2947 47.0307L45.0806 47.1025C45.2453 47.1204 45.4105 47.1405 45.5712 47.1818C45.7319 47.223 45.8885 47.2889 46.0222 47.3839C46.1689 47.491 46.2841 47.6378 46.3703 47.7979C46.5417 48.1171 46.599 48.4843 46.6308 48.8423C46.671 49.3037 46.6742 49.7688 46.6397 50.2305C46.6707 49.9215 46.7355 49.6157 46.8325 49.3206C47.0073 48.7887 47.2888 48.2901 47.668 47.8783C47.8185 47.7149 47.984 47.565 48.166 47.437C48.7304 47.0434 49.4216 46.8751 50.1037 46.9654C49.4119 46.9936 48.7315 46.7824 48.1773 46.3674C47.8983 46.1572 47.6551 45.8953 47.4864 45.5895C47.2244 45.1103 47.1526 44.5499 47.2853 44.02L47.2845 44.0227Z" fill="url(#paint13_radial_154_2111)"/>
</g>
<g opacity="0.1" filter="url(#filter17_f_154_2111)">
<path d="M45.6324 53.1379C45.303 54.3917 45.0768 55.6704 44.956 56.9611C44.7854 58.7853 44.8264 60.6223 44.7284 62.452C44.648 64.0047 44.4633 65.5733 44.7326 67.1045C44.8612 67.8348 45.0923 68.5466 45.4168 69.2133C45.4684 68.9588 45.5061 68.7018 45.5298 68.4432C45.6442 67.2017 45.435 65.9563 45.3643 64.7116C45.2406 62.53 45.5427 60.3467 45.6656 58.1675C45.76 56.492 45.7488 54.8123 45.6321 53.1382L45.6324 53.1379Z" fill="black"/>
</g>
<path d="M84.5967 78.523C84.4172 78.9836 84.161 79.414 83.8426 79.7918C83.1399 80.626 82.1641 81.1763 81.1926 81.6717C79.535 82.5163 77.818 83.2575 76.26 84.2737C75.2162 84.9544 74.2527 85.7538 73.3518 86.6147C72.5814 87.3511 71.8506 88.1376 70.9868 88.7618C70.1149 89.3911 69.1069 89.8474 68.0438 90.007C66.7504 90.2011 65.4142 89.95 64.2145 89.4275C63.3742 89.0614 62.566 88.5377 62.0821 87.7592C61.5963 86.9778 61.4855 86.0218 61.4841 85.1017C61.482 83.4744 61.7835 81.8615 62.0674 80.262C62.303 78.9306 62.528 77.5962 62.6726 76.252C62.9358 73.8071 62.9339 71.3373 62.7583 68.8844C62.7315 68.4736 62.6945 68.0588 62.7561 67.6515C62.8177 67.2442 62.9851 66.8382 63.297 66.5697C63.5854 66.3214 63.9719 66.2119 64.3521 66.191C64.7324 66.1701 65.111 66.2304 65.4875 66.2853C66.3747 66.4149 67.2688 66.5169 68.1359 66.7451C68.683 66.8889 69.2159 67.0825 69.7619 67.2297C70.6732 67.4761 71.6273 67.5939 72.5648 67.4847C73.5744 67.3668 74.5545 66.9874 75.5704 67.012C75.9874 67.0222 76.4006 67.1009 76.7985 67.2263C77.2042 67.3543 77.6045 67.5374 77.9026 67.8408C78.1291 68.0711 78.2871 68.3617 78.406 68.6629C78.5827 69.1112 78.6778 69.5887 78.7185 70.0688C78.7547 70.494 78.7488 70.9241 78.8294 71.3435C78.9619 72.033 79.324 72.6618 79.7741 73.2005C80.2243 73.7393 80.7649 74.1967 81.2994 74.6487C81.835 75.0986 82.3732 75.5471 82.9509 75.9416C83.2219 76.1269 83.5014 76.3004 83.7588 76.5039C84.0161 76.7075 84.2528 76.945 84.4135 77.231C84.6318 77.6193 84.6984 78.09 84.5964 78.5233L84.5967 78.523Z" fill="url(#paint14_linear_154_2111)"/>
<g filter="url(#filter18_f_154_2111)">
<path d="M83.7621 77.6791C83.5964 78.0943 83.3638 78.4797 83.0736 78.8198C82.4304 79.5734 81.5392 80.0661 80.6534 80.5096C79.1396 81.2674 77.5731 81.9336 76.1493 82.8487C75.1975 83.4603 74.3176 84.1785 73.4934 84.9535C72.7891 85.6157 72.121 86.3234 71.3334 86.8836C70.5354 87.4513 69.6148 87.8603 68.6457 88.003C67.4647 88.177 66.2463 87.9513 65.1489 87.4819C64.3839 87.1546 63.6448 86.6866 63.2016 85.9823C62.7608 85.2815 62.658 84.4211 62.6553 83.5931C62.6518 82.1297 62.9279 80.6823 63.1882 79.2421C63.4043 78.0451 63.61 76.846 63.7409 75.6369C63.9792 73.439 63.968 71.219 63.8191 69.0133C63.7942 68.6437 63.7655 68.2704 63.8223 67.9046C63.8791 67.5389 64.0306 67.1744 64.3113 66.9326C64.5745 66.7058 64.928 66.6064 65.2753 66.5882C65.6226 66.57 65.9681 66.6262 66.3116 66.6766C67.1212 66.7958 67.9376 66.8855 68.7297 67.0898C69.2292 67.2189 69.7163 67.3929 70.2146 67.5257C71.0474 67.748 71.9183 67.8538 72.7746 67.755C73.6958 67.6486 74.5921 67.3078 75.5194 67.33C75.8997 67.3394 76.2773 67.4103 76.6414 67.5228C77.0115 67.6369 77.3779 67.7997 77.6497 68.0752C77.8548 68.2828 77.9964 68.5449 78.1092 68.8143C78.2768 69.2152 78.3858 69.6436 78.3946 70.0783C78.404 70.5319 78.3047 70.9874 78.3662 71.4367C78.4161 71.8017 78.5706 72.1458 78.7679 72.457C78.9653 72.7682 79.2055 73.0488 79.4435 73.33C79.9033 73.8736 80.3647 74.4271 80.9413 74.8443C81.5979 75.3193 82.3771 75.5968 83.0554 76.0405C83.2576 76.1728 83.4534 76.3222 83.5958 76.5172C83.7147 76.6833 83.792 76.8755 83.8211 77.0777C83.8502 77.2799 83.8302 77.4862 83.7629 77.6791H83.7621Z" fill="#CD8907"/>
</g>
<g filter="url(#filter19_f_154_2111)">
<path d="M82.438 78.4567C82.2648 78.8303 82.0404 79.1786 81.7734 79.4876C81.1539 80.2047 80.3175 80.6986 79.4362 81.0152C77.9854 81.5371 76.4018 81.6071 74.9778 82.2014C74.1101 82.5636 73.3292 83.1091 72.5379 83.6251C71.8986 84.0416 71.2455 84.4433 70.5434 84.7345C69.7507 85.0639 68.9074 85.2485 68.0615 85.3785C67.5234 85.4612 66.9788 85.5214 66.4352 85.4928C65.8917 85.4641 65.3465 85.343 64.8671 85.0793C64.5035 84.879 64.1766 84.591 63.9821 84.2174C63.7663 83.8021 63.7289 83.3147 63.7341 82.8439C63.7473 81.5897 64.0293 80.3492 64.0206 79.095C64.0132 78.0033 63.7861 76.9255 63.7208 75.8359C63.5951 73.7402 64.0675 71.6082 63.6518 69.5524C63.5856 69.2234 63.4958 68.8946 63.5001 68.5585C63.5025 68.3901 63.5289 68.2218 63.5908 68.0661C63.6526 67.9104 63.7528 67.7692 63.8857 67.6709C63.9979 67.5882 64.1303 67.538 64.2664 67.5152C64.4025 67.4925 64.5417 67.4969 64.6784 67.5173C64.9512 67.5578 65.2113 67.6597 65.4768 67.735C66.237 67.9506 67.04 67.9459 67.8123 68.1086C68.2971 68.2108 68.7667 68.3774 69.2463 68.5027C70.052 68.7094 70.8921 68.8019 71.7185 68.7094C72.6076 68.6105 73.4756 68.3033 74.3693 68.3254C74.7356 68.3343 75.0993 68.3993 75.4526 68.4997C75.8059 68.6001 76.159 68.7419 76.4263 68.9989C76.619 69.1844 76.7571 69.4213 76.8699 69.6664C77.0339 70.0244 77.1482 70.4137 77.1456 70.8089C77.1441 71.0148 77.111 71.2189 77.0918 71.4233C77.0725 71.6277 77.0665 71.838 77.1177 72.0368C77.1689 72.2356 77.2771 72.4169 77.4005 72.5803C77.5239 72.7436 77.6638 72.8934 77.7912 73.0535C78.1486 73.5015 78.4041 74.0238 78.6823 74.5274C78.9606 75.031 79.2727 75.5296 79.7124 75.892C80.3109 76.3859 81.0871 76.5832 81.7541 76.9731C81.9497 77.0874 82.1388 77.2212 82.276 77.4043C82.3861 77.5517 82.4586 77.725 82.4867 77.9084C82.5149 78.0919 82.498 78.2796 82.4374 78.4546L82.438 78.4567Z" fill="#F5C021"/>
</g>
<g filter="url(#filter20_f_154_2111)">
<path d="M63.5232 67.4834C64.4004 67.2458 65.1476 67.911 65.7838 68.4131C66.1949 68.7639 66.7888 68.6756 67.2933 68.6922C68.1288 68.6619 68.9603 68.8322 69.7963 68.7286C71.4418 68.5893 73.0547 68.185 74.708 68.1127C75.498 68.0629 76.3843 68.0171 77.0667 68.4782C77.3433 68.6699 77.7487 69.4797 78.0216 69.1758C77.9091 68.3248 77.2779 67.5005 76.4309 67.274C75.7682 67.1695 75.092 67.3516 74.4252 67.2927C72.4375 67.2453 70.4639 66.8763 68.4713 66.9821C67.0852 66.9941 65.7005 66.9299 64.3166 66.8758C63.773 66.7646 63.581 67.248 63.2856 67.4328" fill="url(#paint15_linear_154_2111)"/>
</g>
<g opacity="0.75" filter="url(#filter21_f_154_2111)">
<path d="M67.4561 51.3019C67.7741 51.2527 69.7368 52.9214 69.4685 53.544C69.2002 54.1666 68.6961 53.7902 68.3355 53.7943C67.9748 53.7985 66.9884 54.2463 66.8231 53.9638C66.6578 53.6813 67.2594 53.0212 67.5743 52.4698C67.8278 52.0256 67.138 51.3542 67.4562 51.305L67.4561 51.3019Z" fill="#7C7C7C"/>
</g>
<g opacity="0.25" filter="url(#filter22_f_154_2111)">
<path d="M39.7609 40.7995C39.7291 40.415 39.1801 40.3575 38.9353 40.5491C38.7285 40.7112 38.5346 41.2643 38.713 41.4808C39.0029 41.8315 39.8041 41.3269 39.7608 40.8L39.7609 40.7995Z" fill="#7C7C7C"/>
</g>
<g opacity="0.35" filter="url(#filter23_f_154_2111)">
<path d="M75.3521 68.8195C75.2013 68.5244 74.9271 68.3037 74.6211 68.176C74.315 68.0483 73.9792 68.0073 73.6479 68.01C72.9852 68.0153 72.3264 68.1878 71.6663 68.1305C71.1085 68.0823 70.5791 67.8726 70.0328 67.7403C69.4713 67.6064 68.8755 67.5529 68.3177 67.702C67.7216 67.8643 67.1956 68.2628 66.8663 68.7852C66.576 69.2458 66.4378 69.7902 66.395 70.333C66.3521 70.8758 66.3984 71.4218 66.4533 71.9638C66.493 72.3559 66.5374 72.7484 66.6322 73.1314C66.727 73.5143 66.8743 73.8873 67.1051 74.2065C67.4372 74.666 67.9307 74.9938 68.4628 75.1906C69.3418 75.5119 70.3088 75.495 71.176 75.1432C72.6917 74.4853 73.9744 73.3052 74.7563 71.8495C75.0361 71.3284 75.2536 70.773 75.3941 70.1986C75.4498 69.9702 75.4938 69.7375 75.4959 69.5024C75.4981 69.2672 75.4565 69.0284 75.3497 68.8195H75.3521Z" fill="url(#paint16_radial_154_2111)"/>
</g>
<g opacity="0.35" filter="url(#filter24_f_154_2111)">
<path d="M75.3521 68.5099C75.2013 68.2966 74.9271 68.1371 74.6211 68.0447C74.315 67.9524 73.9792 67.9228 73.6479 67.9247C72.9852 67.9286 72.3264 68.0532 71.6663 68.0118C71.1085 67.977 70.5791 67.8254 70.0328 67.7298C69.4713 67.633 68.8755 67.5942 68.3177 67.7021C67.7216 67.8194 67.1956 68.1074 66.8663 68.4851C66.576 68.8181 66.4378 69.2117 66.395 69.6041C66.3521 69.9965 66.3984 70.3912 66.4533 70.783C66.493 71.0664 66.5374 71.3502 66.6322 71.6271C66.727 71.9039 66.8743 72.1736 67.1051 72.4043C67.4372 72.7365 67.9307 72.9735 68.4628 73.1158C69.3418 73.348 70.3088 73.3358 71.176 73.0815C72.6917 72.6059 73.9744 71.7527 74.7563 70.7004C75.0361 70.3236 75.2536 69.9221 75.3941 69.5069C75.4498 69.3418 75.4938 69.1735 75.4959 69.0036C75.4981 68.8336 75.4565 68.6609 75.3497 68.5099H75.3521Z" fill="url(#paint17_radial_154_2111)"/>
</g>
<path d="M76.6118 66.0582C76.5034 65.7625 76.3125 65.5006 76.0789 65.2896C75.8454 65.0786 75.5702 64.9169 75.2801 64.7937C74.7004 64.5473 74.0698 64.4563 73.4506 64.3395L71.7025 63.9976C71.0947 63.8942 70.4659 63.8283 69.8642 63.9641C69.3377 64.0827 68.8509 64.3551 68.4524 64.7192C68.054 65.0834 67.7428 65.5376 67.5192 66.0314C67.125 66.8963 67.001 67.8697 67.0763 68.8172C67.1325 69.5222 67.3106 70.2487 67.7752 70.7827C68.1501 71.2138 68.6822 71.483 69.2303 71.645C70.1743 71.9243 71.2031 71.9095 72.1385 71.6035C73.694 71.0777 75.0394 70.0658 75.9758 68.717C76.2811 68.2752 76.5414 67.7937 76.6595 67.2702C76.7495 66.8685 76.7527 66.4454 76.6118 66.0611V66.0582Z" fill="#020204"/>
<g filter="url(#filter25_f_154_2111)">
<path d="M70.1936 63.6824C70.0476 63.6903 69.9023 63.7072 69.7584 63.7327C68.8292 63.898 67.9784 64.4852 67.4991 65.2977C67.1608 65.8769 67.0062 66.545 67.0557 67.2139C67.0752 66.7475 67.1976 66.2909 67.4239 65.883C67.8079 65.1916 68.5036 64.67 69.2817 64.5275C69.7638 64.4397 70.2543 64.4927 70.738 64.5527C71.202 64.6105 71.6699 64.6713 72.1272 64.7704C72.8342 64.9236 73.5342 65.1587 74.1276 65.5738C74.2658 65.6702 74.3954 65.7799 74.5041 65.9085C74.6128 66.037 74.6974 66.1864 74.7301 66.3519C74.7778 66.594 74.7087 66.8481 74.5882 67.0632C74.4677 67.2782 74.303 67.4667 74.1276 67.6405C73.9857 67.7814 73.8344 67.9174 73.6841 68.0502C74.3697 67.9174 75.0638 67.7294 75.6336 67.3307C75.8746 67.162 76.0929 66.9598 76.2361 66.703C76.3794 66.4462 76.4402 66.1353 76.37 65.8496C76.3226 65.6568 76.2174 65.4795 76.0856 65.3309C75.9539 65.1822 75.7964 65.0599 75.6339 64.9461C74.9162 64.4434 74.0767 64.1213 73.2072 64.0168C72.6502 63.9143 72.0879 63.8278 71.5255 63.7571C71.0855 63.7019 70.6365 63.6572 70.1946 63.6821L70.1936 63.6824Z" fill="url(#paint18_radial_154_2111)"/>
</g>
<path d="M39.7406 39.0378L35.2091 44.7111C34.263 45.884 33.2945 47.066 32.6786 48.4414C32.1494 49.6231 31.8993 50.9069 31.5365 52.1502C31.1246 53.562 30.5655 54.9271 29.9378 56.257C29.358 57.4847 28.7194 58.6839 28.0793 59.8817C27.6139 60.7531 27.1408 61.6437 26.9793 62.6185C26.8518 63.3886 26.9257 64.1834 27.1223 64.9391C27.3188 65.6948 27.6311 66.4146 27.9894 67.1097C29.5069 70.0755 31.7839 72.632 34.481 74.5876C35.7048 75.4751 37.0161 76.2425 38.3912 76.8708C39.1362 77.2109 39.9213 77.5145 40.7402 77.5287C41.1499 77.5357 41.5634 77.4685 41.9383 77.3038C42.3132 77.1391 42.6479 76.8743 42.871 76.5307C43.1449 76.1081 43.2379 75.5833 43.183 75.0828C43.1281 74.5823 42.9326 74.1046 42.6707 73.6742C42.028 72.6237 41.0198 71.864 40.0475 71.1107C37.948 69.4842 35.9169 67.7688 33.9736 65.9585C33.4246 65.4471 32.8762 64.9201 32.4927 64.2758C32.1194 63.6481 31.9175 62.9331 31.7809 62.2157C31.406 60.2475 31.5024 58.1767 32.1719 56.2888C32.4338 55.5503 32.7798 54.8449 33.114 54.1358C33.6924 52.9067 34.2405 51.6545 35.0019 50.5296C35.9493 49.1291 37.2156 47.9428 37.9877 46.4383C38.6395 45.169 38.9035 43.7412 39.1557 42.3364L39.7406 39.0378Z" fill="#020204"/>
<path d="M28.7824 64.9045C29.2109 64.7269 29.6924 64.6945 30.1482 64.7786C30.6039 64.8627 31.0345 65.0598 31.4183 65.3201C32.1852 65.8412 32.754 66.5996 33.2989 67.3499C34.55 69.0728 35.7545 70.8316 36.8457 72.6601C37.731 74.1431 38.5446 75.6745 39.5675 77.0659C40.2353 77.9743 40.9886 78.8173 41.6597 79.7229C42.3308 80.6286 42.9258 81.6124 43.2236 82.6999C43.6102 84.113 43.4606 85.6704 42.7879 86.9719C42.3147 87.8877 41.5893 88.6728 40.7066 89.2052C39.824 89.7375 38.7866 90.0123 37.7567 89.9737C36.1195 89.9121 34.6236 89.094 33.1016 88.4875C30.0006 87.2525 26.6319 86.8647 23.4353 85.9029C22.4525 85.6072 21.4869 85.2575 20.4977 84.9854C20.0586 84.8649 19.6114 84.7583 19.1963 84.5704C18.7812 84.3824 18.3929 84.1017 18.1621 83.7089C17.9838 83.4052 17.9082 83.0475 17.9131 82.6951C17.9179 82.3426 18.0004 81.9948 18.1203 81.6636C18.3603 81.0011 18.7477 80.4012 19.0094 79.747C19.4365 78.6785 19.5133 77.5008 19.4558 76.3515C19.3982 75.2022 19.2121 74.0633 19.1331 72.9158C19.0983 72.4033 19.0849 71.884 19.1826 71.3798C19.2804 70.8756 19.4975 70.3823 19.8676 70.0261C20.2088 69.6976 20.6616 69.5026 21.1251 69.4057C21.5887 69.3088 22.0664 69.3047 22.5401 69.3152C23.0138 69.3256 23.4881 69.3511 23.9604 69.3125C24.4328 69.2739 24.9065 69.1679 25.3181 68.9328C25.7091 68.7094 26.0288 68.3771 26.2939 68.0132C26.559 67.6493 26.7733 67.2511 26.9928 66.858C27.2124 66.4649 27.4395 66.0728 27.7271 65.7263C28.0147 65.3798 28.3671 65.0775 28.783 64.905L28.7824 64.9045Z" fill="url(#paint19_linear_154_2111)"/>
<g filter="url(#filter26_f_154_2111)">
<path d="M29.4581 65.6436C29.8478 65.4867 30.2867 65.4695 30.6961 65.5622C31.1055 65.6548 31.4861 65.8567 31.8176 66.1103C32.4812 66.6229 32.9423 67.3459 33.3852 68.0571C34.4483 69.7798 35.4873 71.5207 36.469 73.2969C37.2127 74.6339 37.9217 75.9996 38.8354 77.228C39.4417 78.0426 40.1334 78.7892 40.7522 79.5944C41.3711 80.3996 41.9225 81.2766 42.1964 82.2543C42.5488 83.5145 42.4061 84.9054 41.7961 86.0657C41.3544 86.9023 40.6879 87.5991 39.8718 88.0775C39.0535 88.5531 38.1161 88.7843 37.1706 88.7438C35.6715 88.6747 34.3026 87.926 32.8914 87.4182C30.186 86.4365 27.2537 86.3048 24.4787 85.5384C23.4839 85.2685 22.5139 84.9083 21.5143 84.6563C21.0719 84.5446 20.6218 84.4536 20.2016 84.2761C19.7815 84.0985 19.3857 83.8235 19.1578 83.4285C18.9883 83.1348 18.9205 82.789 18.931 82.45C18.9414 82.111 19.0274 81.7806 19.1452 81.4608C19.3867 80.827 19.7665 80.2558 20.0101 79.6198C20.3797 78.6627 20.4252 77.6104 20.3567 76.5869C20.2881 75.5634 20.1103 74.549 20.0479 73.525C20.0201 73.0671 20.0158 72.6039 20.1084 72.155C20.2011 71.7062 20.3966 71.2714 20.723 70.9468C21.0765 70.596 21.5638 70.4048 22.0558 70.3298C22.5477 70.2548 23.0482 70.2875 23.5433 70.3317C24.0384 70.3759 24.5354 70.4316 25.0322 70.4019C25.5289 70.3721 26.0326 70.2511 26.4434 69.9715C26.8175 69.7185 27.0984 69.3492 27.3121 68.9545C27.5258 68.5598 27.6784 68.1364 27.8412 67.7181C28.0041 67.2998 28.1805 66.8821 28.4363 66.5131C28.692 66.1441 29.035 65.8155 29.4555 65.6468" fill="#D99A03"/>
</g>
<g filter="url(#filter27_f_154_2111)">
<path d="M28.5057 65.6747C28.8691 65.4964 29.297 65.4599 29.6955 65.5402C30.094 65.6206 30.4631 65.8132 30.7771 66.0651C31.4047 66.5658 31.803 67.2857 32.1742 67.9893C33.0261 69.6056 33.8195 71.2569 34.8389 72.7788C35.5787 73.8805 36.4319 74.9114 37.1799 76.0101C38.1945 77.5 39.0193 79.139 39.3596 80.8945C39.5884 82.0754 39.5812 83.3484 39.0059 84.4145C38.627 85.1146 38.0135 85.6915 37.2884 86.0483C36.5633 86.4051 35.7308 86.5534 34.9196 86.4825C33.6426 86.3711 32.4827 85.7501 31.2807 85.3169C29.1478 84.5482 26.8426 84.3647 24.6475 83.7845C23.7216 83.5399 22.8174 83.2249 21.8765 83.0334C21.4626 82.9477 21.0403 82.8856 20.6452 82.7379C20.25 82.5902 19.8755 82.3458 19.6734 81.9842C19.5317 81.7298 19.4835 81.4321 19.5048 81.1437C19.5262 80.8552 19.6131 80.574 19.7278 80.3069C19.9567 79.7725 20.2949 79.2828 20.4753 78.7304C20.7364 77.9186 20.6292 77.0385 20.4331 76.2094C20.2369 75.3804 19.9544 74.5669 19.8675 73.7205C19.8289 73.3437 19.8296 72.9594 19.9165 72.59C20.0034 72.2207 20.1812 71.8659 20.4604 71.601C20.8194 71.2599 21.3223 71.0902 21.8221 71.0426C22.3219 70.995 22.8254 71.0601 23.3223 71.1302C23.8193 71.2003 24.3193 71.2805 24.8212 71.2554C25.3231 71.2304 25.8337 71.1027 26.2268 70.7987C26.6155 70.4982 26.8599 70.0508 27.0001 69.5878C27.1403 69.1249 27.1857 68.6408 27.2431 68.1616C27.3006 67.6823 27.372 67.1986 27.5602 66.7519C27.7484 66.3052 28.0654 65.8935 28.5088 65.6759L28.5057 65.6747Z" fill="#F5BD0C"/>
</g>
<g filter="url(#filter28_f_154_2111)">
<path d="M33.825 68.908C34.5228 70.17 34.9486 71.6185 35.6405 72.8913C36.2773 74.062 37.002 75.2676 37.6489 76.3473C37.9368 76.828 38.6084 77.5671 39.2878 78.7137C39.9031 79.7527 40.5244 81.2033 40.8722 81.6904C40.6725 81.12 40.2617 79.5891 39.7717 78.4976C39.3164 77.4773 38.7808 76.8957 38.4523 76.3473C37.8053 75.2676 37.1088 74.2971 36.4439 73.2678C35.5267 71.848 34.8275 70.2592 33.825 68.9082V68.908Z" fill="url(#paint20_linear_154_2111)"/>
</g>
</g>
<defs>
<filter id="filter0_f_154_2111" x="41.2518" y="31.3787" width="17.1596" height="8.21547" filterUnits="userSpaceOnUse" color-interpolation-filters="sRGB">
<feFlood flood-opacity="0" result="BackgroundImageFix"/>
<feBlend mode="normal" in="SourceGraphic" in2="BackgroundImageFix" result="shape"/>
<feGaussianBlur stdDeviation="0.191623" result="effect1_foregroundBlur_154_2111"/>
</filter>
<filter id="filter1_f_154_2111" x="41.077" y="26.9908" width="17.3115" height="9.31006" filterUnits="userSpaceOnUse" color-interpolation-filters="sRGB">
<feFlood flood-opacity="0" result="BackgroundImageFix"/>
<feBlend mode="normal" in="SourceGraphic" in2="BackgroundImageFix" result="shape"/>
<feGaussianBlur stdDeviation="0.291564" result="effect1_foregroundBlur_154_2111"/>
</filter>
<filter id="filter2_f_154_2111" x="53.8617" y="13.0731" width="6.12911" height="5.89865" filterUnits="userSpaceOnUse" color-interpolation-filters="sRGB">
<feFlood flood-opacity="0" result="BackgroundImageFix"/>
<feBlend mode="normal" in="SourceGraphic" in2="BackgroundImageFix" result="shape"/>
<feGaussianBlur stdDeviation="0.429496" result="effect1_foregroundBlur_154_2111"/>
</filter>
<filter id="filter3_f_154_2111" x="53.9519" y="26.3357" width="1.22631" height="0.978508" filterUnits="userSpaceOnUse" color-interpolation-filters="sRGB">
<feFlood flood-opacity="0" result="BackgroundImageFix"/>
<feBlend mode="normal" in="SourceGraphic" in2="BackgroundImageFix" result="shape"/>
<feGaussianBlur stdDeviation="0.0533428" result="effect1_foregroundBlur_154_2111"/>
</filter>
<filter id="filter4_f_154_2111" x="53.844" y="25.0618" width="2.31315" height="2.28605" filterUnits="userSpaceOnUse" color-interpolation-filters="sRGB">
<feFlood flood-opacity="0" result="BackgroundImageFix"/>
<feBlend mode="normal" in="SourceGraphic" in2="BackgroundImageFix" result="shape"/>
<feGaussianBlur stdDeviation="0.111184" result="effect1_foregroundBlur_154_2111"/>
</filter>
<filter id="filter5_f_154_2111" x="54.5814" y="20.149" width="4.23547" height="3.91808" filterUnits="userSpaceOnUse" color-interpolation-filters="sRGB">
<feFlood flood-opacity="0" result="BackgroundImageFix"/>
<feBlend mode="normal" in="SourceGraphic" in2="BackgroundImageFix" result="shape"/>
<feGaussianBlur stdDeviation="0.0317057" result="effect1_foregroundBlur_154_2111"/>
</filter>
<filter id="filter6_f_154_2111" x="43.5232" y="20.678" width="3.95675" height="3.49166" filterUnits="userSpaceOnUse" color-interpolation-filters="sRGB">
<feFlood flood-opacity="0" result="BackgroundImageFix"/>
<feBlend mode="normal" in="SourceGraphic" in2="BackgroundImageFix" result="shape"/>
<feGaussianBlur stdDeviation="0.0289208" result="effect1_foregroundBlur_154_2111"/>
</filter>
<filter id="filter7_f_154_2111" x="43.8254" y="25.3183" width="1.84487" height="2.69472" filterUnits="userSpaceOnUse" color-interpolation-filters="sRGB">
<feFlood flood-opacity="0" result="BackgroundImageFix"/>
<feBlend mode="normal" in="SourceGraphic" in2="BackgroundImageFix" result="shape"/>
<feGaussianBlur stdDeviation="0.109899" result="effect1_foregroundBlur_154_2111"/>
</filter>
<filter id="filter8_f_154_2111" x="45.2161" y="34.1256" width="4.48838" height="3.38682" filterUnits="userSpaceOnUse" color-interpolation-filters="sRGB">
<feFlood flood-opacity="0" result="BackgroundImageFix"/>
<feBlend mode="normal" in="SourceGraphic" in2="BackgroundImageFix" result="shape"/>
<feGaussianBlur stdDeviation="0.192591" result="effect1_foregroundBlur_154_2111"/>
</filter>
<filter id="filter9_f_154_2111" x="41.9514" y="29.8764" width="14.8158" height="6.78797" filterUnits="userSpaceOnUse" color-interpolation-filters="sRGB">
<feFlood flood-opacity="0" result="BackgroundImageFix"/>
<feBlend mode="normal" in="SourceGraphic" in2="BackgroundImageFix" result="shape"/>
<feGaussianBlur stdDeviation="0.162385" result="effect1_foregroundBlur_154_2111"/>
</filter>
<filter id="filter10_f_154_2111" x="48.0759" y="30.1001" width="4.11643" height="4.91331" filterUnits="userSpaceOnUse" color-interpolation-filters="sRGB">
<feFlood flood-opacity="0" result="BackgroundImageFix"/>
<feBlend mode="normal" in="SourceGraphic" in2="BackgroundImageFix" result="shape"/>
<feGaussianBlur stdDeviation="0.18188" result="effect1_foregroundBlur_154_2111"/>
</filter>
<filter id="filter11_f_154_2111" x="49.5322" y="28.6797" width="1.61111" height="0.890403" filterUnits="userSpaceOnUse" color-interpolation-filters="sRGB">
<feFlood flood-opacity="0" result="BackgroundImageFix"/>
<feBlend mode="normal" in="SourceGraphic" in2="BackgroundImageFix" result="shape"/>
<feGaussianBlur stdDeviation="0.0235651" result="effect1_foregroundBlur_154_2111"/>
</filter>
<filter id="filter12_f_154_2111" x="45.9482" y="28.8174" width="0.703391" height="0.765891" filterUnits="userSpaceOnUse" color-interpolation-filters="sRGB">
<feFlood flood-opacity="0" result="BackgroundImageFix"/>
<feBlend mode="normal" in="SourceGraphic" in2="BackgroundImageFix" result="shape"/>
<feGaussianBlur stdDeviation="0.0235651" result="effect1_foregroundBlur_154_2111"/>
</filter>
<filter id="filter13_f_154_2111" x="56.1962" y="30.9167" width="1.83784" height="2.18549" filterUnits="userSpaceOnUse" color-interpolation-filters="sRGB">
<feFlood flood-opacity="0" result="BackgroundImageFix"/>
<feBlend mode="normal" in="SourceGraphic" in2="BackgroundImageFix" result="shape"/>
<feGaussianBlur stdDeviation="0.073168" result="effect1_foregroundBlur_154_2111"/>
</filter>
<filter id="filter14_f_154_2111" x="35.3627" y="43.2812" width="10.1535" height="9.53803" filterUnits="userSpaceOnUse" color-interpolation-filters="sRGB">
<feFlood flood-opacity="0" result="BackgroundImageFix"/>
<feBlend mode="normal" in="SourceGraphic" in2="BackgroundImageFix" result="shape"/>
<feGaussianBlur stdDeviation="0.147995" result="effect1_foregroundBlur_154_2111"/>
</filter>
<filter id="filter15_f_154_2111" x="49.5217" y="42.3862" width="15.3773" height="10.9593" filterUnits="userSpaceOnUse" color-interpolation-filters="sRGB">
<feFlood flood-opacity="0" result="BackgroundImageFix"/>
<feBlend mode="normal" in="SourceGraphic" in2="BackgroundImageFix" result="shape"/>
<feGaussianBlur stdDeviation="0.243791" result="effect1_foregroundBlur_154_2111"/>
</filter>
<filter id="filter16_f_154_2111" x="43.9583" y="43.6837" width="6.48176" height="6.88313" filterUnits="userSpaceOnUse" color-interpolation-filters="sRGB">
<feFlood flood-opacity="0" result="BackgroundImageFix"/>
<feBlend mode="normal" in="SourceGraphic" in2="BackgroundImageFix" result="shape"/>
<feGaussianBlur stdDeviation="0.168169" result="effect1_foregroundBlur_154_2111"/>
</filter>
<filter id="filter17_f_154_2111" x="43.972" y="52.5184" width="2.37655" height="17.3145" filterUnits="userSpaceOnUse" color-interpolation-filters="sRGB">
<feFlood flood-opacity="0" result="BackgroundImageFix"/>
<feBlend mode="normal" in="SourceGraphic" in2="BackgroundImageFix" result="shape"/>
<feGaussianBlur stdDeviation="0.309774" result="effect1_foregroundBlur_154_2111"/>
</filter>
<filter id="filter18_f_154_2111" x="60.6077" y="64.5371" width="25.2739" height="25.572" filterUnits="userSpaceOnUse" color-interpolation-filters="sRGB">
<feFlood flood-opacity="0" result="BackgroundImageFix"/>
<feBlend mode="normal" in="SourceGraphic" in2="BackgroundImageFix" result="shape"/>
<feGaussianBlur stdDeviation="1.0238" result="effect1_foregroundBlur_154_2111"/>
</filter>
<filter id="filter19_f_154_2111" x="61.8866" y="65.8866" width="22.2269" height="21.2269" filterUnits="userSpaceOnUse" color-interpolation-filters="sRGB">
<feFlood flood-opacity="0" result="BackgroundImageFix"/>
<feBlend mode="normal" in="SourceGraphic" in2="BackgroundImageFix" result="shape"/>
<feGaussianBlur stdDeviation="0.806721" result="effect1_foregroundBlur_154_2111"/>
</filter>
<filter id="filter20_f_154_2111" x="63.0804" y="66.6541" width="15.1463" height="2.79425" filterUnits="userSpaceOnUse" color-interpolation-filters="sRGB">
<feFlood flood-opacity="0" result="BackgroundImageFix"/>
<feBlend mode="normal" in="SourceGraphic" in2="BackgroundImageFix" result="shape"/>
<feGaussianBlur stdDeviation="0.102615" result="effect1_foregroundBlur_154_2111"/>
</filter>
<filter id="filter21_f_154_2111" x="65.8128" y="50.3187" width="4.66291" height="4.72052" filterUnits="userSpaceOnUse" color-interpolation-filters="sRGB">
<feFlood flood-opacity="0" result="BackgroundImageFix"/>
<feBlend mode="normal" in="SourceGraphic" in2="BackgroundImageFix" result="shape"/>
<feGaussianBlur stdDeviation="0.491044" result="effect1_foregroundBlur_154_2111"/>
</filter>
<filter id="filter22_f_154_2111" x="38.3687" y="40.1685" width="1.66789" height="1.70281" filterUnits="userSpaceOnUse" color-interpolation-filters="sRGB">
<feFlood flood-opacity="0" result="BackgroundImageFix"/>
<feBlend mode="normal" in="SourceGraphic" in2="BackgroundImageFix" result="shape"/>
<feGaussianBlur stdDeviation="0.137066" result="effect1_foregroundBlur_154_2111"/>
</filter>
<filter id="filter23_f_154_2111" x="65.1596" y="66.3938" width="11.555" height="10.2447" filterUnits="userSpaceOnUse" color-interpolation-filters="sRGB">
<feFlood flood-opacity="0" result="BackgroundImageFix"/>
<feBlend mode="normal" in="SourceGraphic" in2="BackgroundImageFix" result="shape"/>
<feGaussianBlur stdDeviation="0.609264" result="effect1_foregroundBlur_154_2111"/>
</filter>
<filter id="filter24_f_154_2111" x="65.9057" y="67.1647" width="10.0629" height="6.58927" filterUnits="userSpaceOnUse" color-interpolation-filters="sRGB">
<feFlood flood-opacity="0" result="BackgroundImageFix"/>
<feBlend mode="normal" in="SourceGraphic" in2="BackgroundImageFix" result="shape"/>
<feGaussianBlur stdDeviation="0.236245" result="effect1_foregroundBlur_154_2111"/>
</filter>
<filter id="filter25_f_154_2111" x="66.6075" y="63.2359" width="10.2309" height="5.25358" filterUnits="userSpaceOnUse" color-interpolation-filters="sRGB">
<feFlood flood-opacity="0" result="BackgroundImageFix"/>
<feBlend mode="normal" in="SourceGraphic" in2="BackgroundImageFix" result="shape"/>
<feGaussianBlur stdDeviation="0.219584" result="effect1_foregroundBlur_154_2111"/>
</filter>
<filter id="filter26_f_154_2111" x="17.2487" y="63.8244" width="26.8183" height="26.6052" filterUnits="userSpaceOnUse" color-interpolation-filters="sRGB">
<feFlood flood-opacity="0" result="BackgroundImageFix"/>
<feBlend mode="normal" in="SourceGraphic" in2="BackgroundImageFix" result="shape"/>
<feGaussianBlur stdDeviation="0.840631" result="effect1_foregroundBlur_154_2111"/>
</filter>
<filter id="filter27_f_154_2111" x="18.4653" y="64.465" width="22.0695" height="23.0695" filterUnits="userSpaceOnUse" color-interpolation-filters="sRGB">
<feFlood flood-opacity="0" result="BackgroundImageFix"/>
<feBlend mode="normal" in="SourceGraphic" in2="BackgroundImageFix" result="shape"/>
<feGaussianBlur stdDeviation="0.517366" result="effect1_foregroundBlur_154_2111"/>
</filter>
<filter id="filter28_f_154_2111" x="33.6664" y="68.7494" width="7.36442" height="13.0995" filterUnits="userSpaceOnUse" color-interpolation-filters="sRGB">
<feFlood flood-opacity="0" result="BackgroundImageFix"/>
<feBlend mode="normal" in="SourceGraphic" in2="BackgroundImageFix" result="shape"/>
<feGaussianBlur stdDeviation="0.0792644" result="effect1_foregroundBlur_154_2111"/>
</filter>
<radialGradient id="paint0_radial_154_2111" cx="0" cy="0" r="1" gradientUnits="userSpaceOnUse" gradientTransform="translate(1044.89 1518.67) rotate(-2.41003) scale(66.6463 163.126)">
<stop stop-color="#FEFEFC"/>
<stop offset="0.757" stop-color="#FEFEFC"/>
<stop offset="1" stop-color="#D4D4D4"/>
</radialGradient>
<radialGradient id="paint1_radial_154_2111" cx="0" cy="0" r="1" gradientUnits="userSpaceOnUse" gradientTransform="translate(1867.26 1590.08) rotate(-1.81001) scale(119.32 172.429)">
<stop stop-color="#FEFEFC"/>
<stop offset="0.757" stop-color="#FEFEFC"/>
<stop offset="1" stop-color="#D4D4D4"/>
</radialGradient>
<linearGradient id="paint2_linear_154_2111" x1="620.213" y1="269.75" x2="632.549" y2="284.575" gradientUnits="userSpaceOnUse">
<stop stop-color="#949494" stop-opacity="0.392"/>
<stop offset="0.5" stop-color="#949494"/>
<stop offset="1" stop-color="#949494" stop-opacity="0.392"/>
</linearGradient>
<linearGradient id="paint3_linear_154_2111" x1="118.37" y1="420.43" x2="172.399" y2="475.706" gradientUnits="userSpaceOnUse">
<stop stop-color="#646464" stop-opacity="0"/>
<stop offset="0.306" stop-color="#646464" stop-opacity="0.583"/>
<stop offset="0.47" stop-color="#646464"/>
<stop offset="0.728" stop-color="#646464" stop-opacity="0.257"/>
<stop offset="1" stop-color="#646464" stop-opacity="0"/>
</linearGradient>
<linearGradient id="paint4_linear_154_2111" x1="-55.4158" y1="380.836" x2="-10.3344" y2="430.234" gradientUnits="userSpaceOnUse">
<stop stop-color="#646464" stop-opacity="0"/>
<stop offset="0.306" stop-color="#646464" stop-opacity="0.583"/>
<stop offset="0.47" stop-color="#646464"/>
<stop offset="0.728" stop-color="#646464" stop-opacity="0.257"/>
<stop offset="1" stop-color="#646464" stop-opacity="0"/>
</linearGradient>
<linearGradient id="paint5_linear_154_2111" x1="274.568" y1="323.369" x2="289.917" y2="340.471" gradientUnits="userSpaceOnUse">
<stop stop-color="#757574" stop-opacity="0"/>
<stop offset="0.263" stop-color="#757574"/>
<stop offset="0.5" stop-color="#757574"/>
<stop offset="1" stop-color="#757574" stop-opacity="0"/>
</linearGradient>
<radialGradient id="paint6_radial_154_2111" cx="0" cy="0" r="1" gradientUnits="userSpaceOnUse" gradientTransform="translate(4916.93 -782.041) rotate(-22.428) scale(515.056 178.94)">
<stop stop-color="#D2940A"/>
<stop offset="0.751" stop-color="#D89C08"/>
<stop offset="0.866" stop-color="#B67E07"/>
<stop offset="1" stop-color="#946106"/>
</radialGradient>
<linearGradient id="paint7_linear_154_2111" x1="798.402" y1="1316.93" x2="1710.4" y2="1302.77" gradientUnits="userSpaceOnUse">
<stop stop-color="#AD780A"/>
<stop offset="0.12" stop-color="#D89E08"/>
<stop offset="0.255" stop-color="#EDB80B"/>
<stop offset="0.392" stop-color="#EBC80D"/>
<stop offset="0.527" stop-color="#F5D838"/>
<stop offset="0.769" stop-color="#F6D811"/>
<stop offset="1" stop-color="#F5CD31"/>
</linearGradient>
<radialGradient id="paint8_radial_154_2111" cx="0" cy="0" r="1" gradientUnits="userSpaceOnUse" gradientTransform="translate(167.394 97.1972) scale(4.89934 1.49992)">
<stop stop-color="#3A2903"/>
<stop offset="0.555" stop-color="#735208"/>
<stop offset="1" stop-color="#AC8C04"/>
</radialGradient>
<radialGradient id="paint9_radial_154_2111" cx="0" cy="0" r="1" gradientUnits="userSpaceOnUse" gradientTransform="translate(84.4394 135.285) scale(0.934838 1.1082)">
<stop stop-color="#3A2903"/>
<stop offset="0.555" stop-color="#735208"/>
<stop offset="1" stop-color="#AC8C04"/>
</radialGradient>
<linearGradient id="paint10_linear_154_2111" x1="395.057" y1="328.27" x2="396.028" y2="333.304" gradientUnits="userSpaceOnUse">
<stop stop-color="#F5CE2D"/>
<stop offset="1" stop-color="#D79B08"/>
</linearGradient>
<radialGradient id="paint11_radial_154_2111" cx="0" cy="0" r="1" gradientUnits="userSpaceOnUse" gradientTransform="translate(-2120.52 1550.35) rotate(180) scale(182.922 187.056)">
<stop/>
<stop offset="1" stop-opacity="0.25"/>
</radialGradient>
<radialGradient id="paint12_radial_154_2111" cx="0" cy="0" r="1" gradientUnits="userSpaceOnUse" gradientTransform="translate(4468.2 1843.34) scale(394.491 208.759)">
<stop/>
<stop offset="1" stop-opacity="0.25"/>
</radialGradient>
<radialGradient id="paint13_radial_154_2111" cx="0" cy="0" r="1" gradientUnits="userSpaceOnUse" gradientTransform="translate(1567.61 1536.23) scale(62.9992 72.0157)">
<stop/>
<stop offset="1" stop-opacity="0.25"/>
</radialGradient>
<linearGradient id="paint14_linear_154_2111" x1="10298.7" y1="8940.75" x2="11462.8" y2="7110.79" gradientUnits="userSpaceOnUse">
<stop stop-color="#3E2A06"/>
<stop offset="1" stop-color="#AD780A"/>
</linearGradient>
<linearGradient id="paint15_linear_154_2111" x1="728.82" y1="757.214" x2="728.268" y2="787.921" gradientUnits="userSpaceOnUse">
<stop stop-color="#F3CD0C"/>
<stop offset="1" stop-color="#F3CD0C" stop-opacity="0"/>
</linearGradient>
<radialGradient id="paint16_radial_154_2111" cx="0" cy="0" r="1" gradientUnits="userSpaceOnUse" gradientTransform="translate(3419.93 4450.26) rotate(15) scale(208.027 186.986)">
<stop stop-color="#110800"/>
<stop offset="0.591" stop-color="#A65A00" stop-opacity="0.8"/>
<stop offset="1" stop-color="#FF921E" stop-opacity="0"/>
</radialGradient>
<radialGradient id="paint17_radial_154_2111" cx="0" cy="0" r="1" gradientUnits="userSpaceOnUse" gradientTransform="translate(3419.93 3235.96) rotate(10.9628) scale(204.674 137.392)">
<stop stop-color="#110800"/>
<stop offset="0.591" stop-color="#A65A00" stop-opacity="0.8"/>
<stop offset="1" stop-color="#FF921E" stop-opacity="0"/>
</radialGradient>
<radialGradient id="paint18_radial_154_2111" cx="0" cy="0" r="1" gradientUnits="userSpaceOnUse" gradientTransform="translate(1281.02 805.79) rotate(23.5217) scale(75.4693 16.3163)">
<stop stop-color="#7C7C7C"/>
<stop offset="1" stop-color="#7C7C7C" stop-opacity="0.33"/>
</radialGradient>
<linearGradient id="paint19_linear_154_2111" x1="3160.34" y1="7676.48" x2="4358.88" y2="9709.46" gradientUnits="userSpaceOnUse">
<stop stop-color="#B98309"/>
<stop offset="1" stop-color="#382605"/>
</linearGradient>
<linearGradient id="paint20_linear_154_2111" x1="1239.19" y1="4187.71" x2="1470.83" y2="4428.1" gradientUnits="userSpaceOnUse">
<stop stop-color="#EBC40C"/>
<stop offset="1" stop-color="#EBC40C" stop-opacity="0"/>
</linearGradient>
<clipPath id="clip0_154_2111">
<rect width="80" height="80" fill="white" transform="translate(10.5 10)"/>
</clipPath>
</defs>
</svg>
