<svg width="100" height="100" viewBox="0 0 100 100" fill="none" xmlns="http://www.w3.org/2000/svg">
<path d="M17.7083 8.06015e-06H82.2917C84.6178 -0.00224053 86.9215 0.466009 89.0709 1.37796C91.2204 2.28991 93.1734 3.62765 94.8182 5.31463C96.463 7.00162 97.7673 9.00471 98.6565 11.2093C99.5456 13.4139 100.002 15.7766 100 18.1624V81.8376C100.002 84.2234 99.5456 86.5861 98.6565 88.7907C97.7673 90.9953 96.463 92.9984 94.8182 94.6854C93.1734 96.3723 91.2204 97.7101 89.0709 98.622C86.9215 99.534 84.6178 100.002 82.2917 100H17.7083C15.3822 100.002 13.0785 99.534 10.9291 98.622C8.7796 97.7101 6.82658 96.3723 5.18177 94.6854C3.53696 92.9984 2.23266 90.9953 1.34351 88.7907C0.454359 86.5861 -0.00218452 84.2234 7.85865e-06 81.8376V18.1624C-0.00218452 15.7766 0.454359 13.4139 1.34351 11.2093C2.23266 9.00471 3.53696 7.00162 5.18177 5.31463C6.82658 3.62765 8.7796 2.28991 10.9291 1.37796C13.0785 0.466009 15.3822 -0.00224053 17.7083 8.06015e-06Z" fill="#F0F0F0"/>
<path d="M49.7777 87.5C48.7733 87.5 47.7758 87.2365 46.8953 86.7295L37.7204 81.2977C36.3501 80.5313 37.0188 80.2603 37.4707 80.1041C39.2978 79.4643 39.6686 79.3199 41.6189 78.2123C41.8239 78.0954 42.0922 78.1367 42.302 78.2605L49.3505 82.4431C49.605 82.5807 49.9662 82.5807 50.2022 82.4431L77.6848 66.5795C77.9393 66.4351 78.1044 66.1392 78.1044 65.8366V34.1232C78.1044 33.8068 77.9393 33.5247 77.6793 33.3665L50.2077 17.5167C49.9531 17.3654 49.616 17.3654 49.3615 17.5167L21.8954 33.3665C21.6292 33.5178 21.4599 33.8136 21.4599 34.1163V65.8297C21.4599 66.1324 21.625 66.4213 21.8865 66.5658L29.4124 70.9134C33.4986 72.9566 35.9958 70.5488 35.9958 68.1273V36.8267C35.9958 36.3796 36.3466 36.0356 36.7938 36.0356H40.2747C40.7081 36.0356 41.0658 36.3796 41.0658 36.8267V68.1411C41.0658 73.5895 38.094 76.7195 32.9277 76.7195C31.3386 76.7195 30.0865 76.7195 26.5919 74.9997L19.3824 70.8446C17.6007 69.8128 16.5 67.8866 16.5 65.8297V34.1163C16.5 32.0525 17.6007 30.1264 19.3824 29.1082L46.8925 13.2378C48.633 12.2541 50.9444 12.2541 52.6711 13.2378L80.1469 29.1151C81.9217 30.1401 83.0293 32.0594 83.0293 34.1232V65.8366C83.0293 67.8934 81.9217 69.8128 80.1469 70.8446L52.6711 86.7151C51.7906 87.2242 50.7931 87.4856 49.775 87.4856" fill="#689F63"/>
<path d="M58.2666 65.6473C46.2417 65.6473 43.7205 60.1274 43.7205 55.4977C43.7205 55.0574 44.0754 54.7065 44.5164 54.7065H48.0661C48.4582 54.7065 48.7884 54.992 48.8503 55.3793C49.3869 58.9964 50.9829 60.8208 58.2543 60.8208C64.0466 60.8208 66.5094 59.5124 66.5094 56.4408C66.5094 54.6728 65.8077 53.3589 56.8096 52.4783C49.2837 51.7354 44.6333 50.0775 44.6333 44.0581C44.6333 38.5135 49.3112 35.2114 57.1467 35.2114C65.9453 35.2114 70.3067 38.2658 70.857 44.8286C70.8777 45.0556 70.7951 45.2758 70.6438 45.4409C70.4924 45.5991 70.2792 45.6954 70.0591 45.6954H66.4887C66.1172 45.6954 65.7939 45.434 65.7182 45.0763C64.8583 41.272 62.7808 40.0544 57.1329 40.0544C50.8109 40.0544 50.0748 42.2558 50.0748 43.9068C50.0748 45.9087 50.9416 46.4934 59.4719 47.6216C67.9196 48.7429 71.9302 50.3251 71.9302 56.2619C71.9302 62.2469 66.9359 65.6796 58.2267 65.6796L58.2666 65.6473Z" fill="#689F63"/>
</svg>
