<svg width="100" height="100" viewBox="0 0 100 100" fill="none" xmlns="http://www.w3.org/2000/svg">
<g clip-path="url(#clip0_357_881)">
<path d="M17.7083 8.06015e-06H82.2917C84.6178 -0.00224053 86.9215 0.466009 89.0709 1.37796C91.2204 2.28991 93.1734 3.62765 94.8182 5.31463C96.463 7.00162 97.7674 9.00472 98.6565 11.2093C99.5457 13.4139 100.002 15.7766 100 18.1624V81.8376C100.002 84.2234 99.5457 86.5861 98.6565 88.7907C97.7674 90.9953 96.463 92.9984 94.8182 94.6854C93.1734 96.3723 91.2204 97.7101 89.0709 98.622C86.9215 99.534 84.6178 100.002 82.2917 100H17.7083C15.3822 100.002 13.0785 99.534 10.9291 98.622C8.7796 97.7101 6.82658 96.3723 5.18177 94.6854C3.53696 92.9984 2.23266 90.9953 1.34351 88.7907C0.454359 86.5861 -0.00218452 84.2234 7.85865e-06 81.8376V18.1624C-0.00218452 15.7766 0.454359 13.4139 1.34351 11.2093C2.23266 9.00472 3.53696 7.00162 5.18177 5.31463C6.82658 3.62765 8.7796 2.28991 10.9291 1.37796C13.0785 0.466009 15.3822 -0.00224053 17.7083 8.06015e-06V8.06015e-06Z" fill="white"/>
<path d="M54.5146 74H82.0236C82.8973 74 83.7557 73.7783 84.5123 73.3569C85.2691 72.9357 85.8973 72.3297 86.334 71.5998C86.7707 70.8701 87.0004 70.0423 87 69.1998C86.9996 68.3571 86.7692 67.5295 86.3318 66.8002L67.8576 35.9431C67.4209 35.2135 66.7928 34.6076 66.0363 34.1863C65.2798 33.7651 64.4216 33.5433 63.548 33.5433C62.6744 33.5433 61.8163 33.7651 61.0597 34.1863C60.3032 34.6076 59.6751 35.2135 59.2384 35.9431L54.5146 43.8383L45.2789 28.3994C44.8419 27.6699 44.2135 27.0641 43.4567 26.6429C42.7 26.2217 41.8417 26 40.968 26C40.0943 26 39.2359 26.2217 38.4792 26.6429C37.7225 27.0641 37.0941 27.6699 36.657 28.3994L13.6682 66.8002C13.2308 67.5295 13.0004 68.3571 13 69.1998C12.9996 70.0423 13.2293 70.8701 13.666 71.5998C14.1027 72.3297 14.731 72.9357 15.4876 73.3569C16.2443 73.7783 17.1027 74 17.9764 74H35.2442C42.0859 74 47.1315 71.102 50.6032 65.448L59.032 51.3716L63.5466 43.8383L77.0961 66.4666H59.032L54.5146 74ZM34.9627 66.4589L22.912 66.4563L40.976 36.2869L49.9893 51.3716L43.9545 61.4539C41.6489 65.1223 39.0297 66.4589 34.9627 66.4589Z" fill="#00DC82"/>
</g>
<defs>
<clipPath id="clip0_357_881">
<rect width="100" height="100" fill="white"/>
</clipPath>
</defs>
</svg>
