<svg width="100" height="100" viewBox="0 0 100 100" fill="none" xmlns="http://www.w3.org/2000/svg">
<path d="M82.5 0H17.5C7.83502 0 0 7.83502 0 17.5V82.5C0 92.165 7.83502 100 17.5 100H82.5C92.165 100 100 92.165 100 82.5V17.5C100 7.83502 92.165 0 82.5 0Z" fill="#001E36"/>
<path d="M22.5 70.8968V28.5841C22.5 28.2812 22.6517 28.1298 22.955 28.1298C26.2481 28.0433 30.4296 28 35.4993 28C41.479 28 45.8555 29.3412 48.6286 32.0236C51.4452 34.706 52.8534 38.0157 52.8534 41.9528C52.8534 46.8417 51.1202 50.4759 47.6537 52.8555C44.1872 55.235 39.8324 56.4248 34.5894 56.4248H30.7546V70.8319C30.7546 71.178 30.5812 71.351 30.2346 71.351H23.02C22.6733 71.351 22.5 71.1996 22.5 70.8968ZM30.7546 34.2301V50.1947C31.3612 50.2812 32.7695 50.3245 34.9794 50.3245C37.8825 50.3245 40.2224 49.6971 41.999 48.4425C43.8189 47.1445 44.7288 45.0462 44.7288 42.1475C44.7288 39.5949 43.9272 37.6264 42.324 36.2419C40.764 34.8574 38.4892 34.1652 35.4993 34.1652C34.7627 34.1652 34.0261 34.1868 33.2894 34.2301C32.5961 34.2301 32.0112 34.2301 31.5345 34.2301C31.1012 34.2301 30.8412 34.2301 30.7546 34.2301Z" fill="#31A8FE"/>
<path d="M75.5301 47.2094C73.1036 45.6952 70.5687 44.9381 67.9255 44.9381C66.4089 44.9381 65.2823 45.2193 64.5457 45.7817C63.8524 46.3441 63.5058 47.0147 63.5058 47.7935C63.5058 48.5723 63.8091 49.2645 64.4157 49.8702C65.0223 50.4326 66.3006 51.1032 68.2505 51.882C71.847 53.2665 74.3602 54.7375 75.7901 56.295C77.2634 57.8092 78 59.7778 78 62.2006C78 65.1426 76.8734 67.5221 74.6202 69.3392C72.4103 71.1131 69.3988 72 65.5856 72C61.7725 72 58.6527 71.3078 56.2261 69.9233C55.9661 69.8368 55.8362 69.6204 55.8362 69.2743V63.2389C55.8362 63.0659 55.8795 62.9577 55.9661 62.9145C56.0961 62.8279 56.2045 62.8279 56.2911 62.9145C59.1077 64.9911 62.1192 66.0295 65.3257 66.0295C66.8423 66.0295 67.9905 65.7699 68.7705 65.2507C69.5938 64.6883 70.0054 63.9744 70.0054 63.1091C70.0054 62.2006 69.6804 61.4435 69.0305 60.8378C68.3805 60.1888 67.1022 59.4966 65.1957 58.7611C61.7292 57.4199 59.3026 55.9921 57.916 54.4779C56.5728 52.9204 55.9012 50.9735 55.9012 48.6372C55.9012 45.9548 56.9194 43.705 58.956 41.8879C60.9926 40.0708 63.8957 39.1622 67.6655 39.1622C71.1754 39.1622 73.8836 39.6382 75.7901 40.59C76.0068 40.7198 76.1151 41.001 76.1151 41.4336V46.8201C76.1151 47.3392 75.9201 47.469 75.5301 47.2094Z" fill="#31A8FE"/>
</svg>
