<svg width="100" height="100" viewBox="0 0 100 100" fill="none" xmlns="http://www.w3.org/2000/svg">
<g clip-path="url(#clip0_357_881)">
<g clip-path="url(#clip1_357_881)">
<path fill-rule="evenodd" clip-rule="evenodd" d="M47.0142 48.2761C52.7833 42.7948 51.0256 36.0183 45.8049 27.808C40.5842 19.5976 30.0706 16.6793 28.1084 18.5436C26.1463 20.4079 25.7072 33.7324 30.9279 41.9428C36.1486 50.1532 41.2451 53.7573 47.0142 48.2761Z" fill="url(#paint0_linear_357_881)"/>
<path fill-rule="evenodd" clip-rule="evenodd" d="M52.0003 49.0394C56.2641 55.7449 61.968 53.2908 69.0294 46.5816C76.0908 39.8725 79.022 27.0241 77.5719 24.7434C76.1217 22.4627 65.0955 22.5806 58.0341 29.2898C50.9727 35.9989 47.7365 42.3339 52.0003 49.0394Z" fill="url(#paint1_linear_357_881)"/>
<path fill-rule="evenodd" clip-rule="evenodd" d="M49.6662 45.3494C56.7461 46.2147 59.5326 39.6866 60.8342 29.1354C62.1358 18.5842 56.7877 7.43446 54.3797 7.14017C51.9717 6.84589 43.8785 16.353 42.5769 26.9042C41.2753 37.4554 42.5863 44.4842 49.6662 45.3494Z" fill="url(#paint2_linear_357_881)"/>
<path fill-rule="evenodd" clip-rule="evenodd" d="M47.8871 92C62.7391 92 74.7837 87.6974 74.7837 68.1849C74.7837 48.6723 62.7391 32.6604 47.8871 32.6604C33.0352 32.6604 21 48.6723 21 68.1849C21 87.6974 33.0352 92 47.8871 92Z" fill="url(#paint3_linear_357_881)"/>
<path d="M61.4718 64.2011C63.5935 64.2011 65.3135 63.4033 65.3135 62.4192C65.3135 61.435 63.5935 60.6372 61.4718 60.6372C59.3501 60.6372 57.6301 61.435 57.6301 62.4192C57.6301 63.4033 59.3501 64.2011 61.4718 64.2011Z" fill="#EAADCC"/>
<path d="M33.0221 63.1188C35.128 63.3767 36.9326 62.7938 37.0529 61.817C37.1732 60.8402 35.5635 59.8393 33.4576 59.5814C31.3517 59.3235 29.547 59.9064 29.4268 60.8832C29.3065 61.86 30.9162 62.8609 33.0221 63.1188Z" fill="#EAADCC"/>
<path d="M50.3481 61.7885C49.192 62.7258 47.8566 63.108 46.3419 62.9352C44.8271 62.7624 43.7044 62.1352 42.9735 61.0534" stroke="black" stroke-width="2" stroke-linecap="round" stroke-linejoin="round"/>
<path fill-rule="evenodd" clip-rule="evenodd" d="M35.4719 52.5738C36.3731 52.5425 37.2038 52.9361 37.8183 53.5977C38.4328 54.2594 38.8311 55.1891 38.8677 56.2301C38.9042 57.2712 38.5721 58.2264 38.0055 58.9291C37.4389 59.6318 36.6378 60.0821 35.7366 60.1134C34.8355 60.1447 34.0049 59.7511 33.3905 59.0894C32.7761 58.4277 32.3778 57.4979 32.3412 56.4568C32.3047 55.4158 32.6368 54.4607 33.2033 53.7581C33.7699 53.0554 34.5708 52.6051 35.4719 52.5738Z" fill="black"/>
<path fill-rule="evenodd" clip-rule="evenodd" d="M35.6717 55.7174C35.6475 55.029 35.0681 54.4902 34.3781 54.5141C33.6877 54.5381 33.1477 55.1158 33.1719 55.8043C33.1961 56.4927 33.7753 57.0316 34.4657 57.0076C35.1556 56.9834 35.6959 56.4059 35.6717 55.7174Z" fill="white"/>
<path fill-rule="evenodd" clip-rule="evenodd" d="M58.7469 53.4869C59.8071 53.45 60.7819 53.8453 61.5009 54.514C62.22 55.1828 62.6832 56.1252 62.7204 57.1827C62.7575 58.2402 62.3614 59.2125 61.6911 59.9295C61.0207 60.6466 60.076 61.1086 59.0158 61.1454C57.9557 61.1822 56.9808 60.787 56.2618 60.1181C55.5428 59.4493 55.0795 58.5069 55.0424 57.4494C55.0052 56.392 55.4013 55.4198 56.0717 54.7027C56.7421 53.9856 57.6868 53.5237 58.7469 53.4869Z" fill="black"/>
<path d="M38.9075 56.2291C38.9715 58.0492 37.5446 59.5756 35.7202 59.6389C33.896 59.7021 32.3654 58.2782 32.3014 56.458C32.2373 54.6381 33.6641 53.1117 35.4883 53.0485C37.3127 52.9852 38.8434 54.4092 38.9075 56.2291ZM39.9787 56.1919C39.8939 53.7818 37.8667 51.896 35.4507 51.9797C33.0348 52.0635 31.1453 54.085 31.2301 56.4952C31.3149 58.9055 33.3419 60.7913 35.7578 60.7076C38.1738 60.6239 40.0635 58.6023 39.9787 56.1919Z" fill="white"/>
<path d="M62.1846 57.2017C62.2486 59.0219 60.8219 60.5483 58.9975 60.6115C57.1733 60.6747 55.6425 59.2508 55.5785 57.4307C55.5144 55.6108 56.9414 54.0843 58.7656 54.0211C60.59 53.9579 62.1205 55.3818 62.1846 57.2017ZM63.2558 57.1646C63.171 54.7544 61.144 52.8687 58.728 52.9524C56.3121 53.0361 54.4224 55.0577 54.5072 57.4678C54.592 59.8781 56.6192 61.764 59.0351 61.6802C61.4511 61.5965 63.3406 59.5749 63.2558 57.1646Z" fill="white"/>
<path d="M58.449 56.7073C58.4345 56.2958 58.0879 55.9717 57.6726 55.9861C57.2573 56.0005 56.9343 56.3478 56.9487 56.7593C56.9632 57.1707 57.3098 57.4948 57.7251 57.4804C58.1404 57.466 58.4634 57.1187 58.449 56.7073Z" fill="white" stroke="white"/>
<path d="M27.522 69.9927L40.7445 83.7139" stroke="#ECB732" stroke-width="3" stroke-linecap="round"/>
<path d="M38.9577 71.5964L30.5596 80.5063" stroke="#ECB732" stroke-width="3" stroke-linecap="round"/>
<path d="M68.083 69.9927L54.8604 83.7139" stroke="#ECB732" stroke-width="3" stroke-linecap="round"/>
<path d="M56.6473 71.5964L65.0454 80.5063" stroke="#ECB732" stroke-width="3" stroke-linecap="round"/>
<path d="M53.2524 39.6992L44.497 48.4309" stroke="#FFC73B" stroke-width="3" stroke-linecap="round"/>
<path d="M51.4656 48.4309L42.7101 39.6993" stroke="#FFC73B" stroke-width="3" stroke-linecap="round"/>
</g>
</g>
<defs>
<linearGradient id="paint0_linear_357_881" x1="2908.71" y1="-2226.08" x2="5286.37" y2="4439.86" gradientUnits="userSpaceOnUse">
<stop stop-color="#52CE63"/>
<stop offset="1" stop-color="#51A256"/>
</linearGradient>
<linearGradient id="paint1_linear_357_881" x1="2330.34" y1="2900.52" x2="-4349.22" y2="5291.34" gradientUnits="userSpaceOnUse">
<stop stop-color="#52CE63"/>
<stop offset="1" stop-color="#51A256"/>
</linearGradient>
<linearGradient id="paint2_linear_357_881" x1="2957.19" y1="361.896" x2="1647.05" y2="11082.2" gradientUnits="userSpaceOnUse">
<stop stop-color="#8AE99C"/>
<stop offset="1" stop-color="#52CE63"/>
</linearGradient>
<linearGradient id="paint3_linear_357_881" x1="8835.86" y1="4978.27" x2="7418.11" y2="28322.3" gradientUnits="userSpaceOnUse">
<stop stop-color="#FFE56C"/>
<stop offset="1" stop-color="#FFC63A"/>
</linearGradient>
<clipPath id="clip0_357_881">
<rect width="100" height="100" fill="white"/>
</clipPath>
<clipPath id="clip1_357_881">
<rect width="57" height="85" fill="white" transform="translate(21 7)"/>
</clipPath>
</defs>
</svg>
