<svg width="100" height="100" viewBox="0 0 100 100" fill="none" xmlns="http://www.w3.org/2000/svg">
<g clip-path="url(#clip0_357_857)">
<path d="M17.7083 8.06015e-06H82.2917C84.6178 -0.00224053 86.9215 0.466009 89.0709 1.37796C91.2204 2.28991 93.1734 3.62765 94.8182 5.31463C96.463 7.00162 97.7674 9.00472 98.6565 11.2093C99.5457 13.4139 100.002 15.7766 100 18.1624V81.8376C100.002 84.2234 99.5457 86.5861 98.6565 88.7907C97.7674 90.9953 96.463 92.9984 94.8182 94.6854C93.1734 96.3723 91.2204 97.7101 89.0709 98.622C86.9215 99.534 84.6178 100.002 82.2917 100H17.7083C15.3822 100.002 13.0785 99.534 10.9291 98.622C8.7796 97.7101 6.82658 96.3723 5.18177 94.6854C3.53696 92.9984 2.23266 90.9953 1.34351 88.7907C0.454359 86.5861 -0.00218452 84.2234 7.85865e-06 81.8376V18.1624C-0.00218452 15.7766 0.454359 13.4139 1.34351 11.2093C2.23266 9.00472 3.53696 7.00162 5.18177 5.31463C6.82658 3.62765 8.7796 2.28991 10.9291 1.37796C13.0785 0.466009 15.3822 -0.00224053 17.7083 8.06015e-06V8.06015e-06Z" fill="#CC0000"/>
<path fill-rule="evenodd" clip-rule="evenodd" d="M78.8018 60.8812V64.6H85.5203C86.8969 64.6 89.2597 63.5933 89.3419 60.7784V59.3402C89.3419 56.9363 87.3695 55.5187 85.5203 55.5187H82.1713V53.7928H88.8077V50.0534H82.4384C80.7947 50.0534 78.5963 51.4095 78.5963 53.9366V55.231C78.5963 57.7582 80.7742 59.0526 82.4384 59.0526C87.0613 59.0731 81.3289 59.0526 85.6025 59.0526V60.8606M42.8051 59.9772C42.8051 59.9772 46.4006 59.669 46.4006 55.0256C46.4006 50.3821 42.0449 49.9507 42.0449 49.9507H34.1963V64.6H38.1411V61.0661L41.5518 64.6H47.3868L42.8051 59.9772ZM41.2847 56.9774H38.1411V53.6284H41.3052C41.3052 53.6284 42.1887 53.9572 42.1887 55.2927C42.1887 56.6281 41.2847 56.9774 41.2847 56.9774ZM56.1395 50.0534H52.133C49.2771 50.0534 48.3114 52.6422 48.3114 53.875V64.6H52.3179V62.0318H56.0778V64.6H59.961V53.875C59.961 50.752 57.1257 50.0534 56.1395 50.0534ZM56.0778 57.8815H52.2974V54.327C52.2974 54.327 52.2974 53.5257 53.5507 53.5257H54.9272C56.0367 53.5257 56.0573 54.327 56.0573 54.327V57.8815H56.0778Z" fill="white"/>
<path d="M65.9604 50.0535H61.7896V64.6001H65.9604V50.0535Z" fill="white"/>
<path fill-rule="evenodd" clip-rule="evenodd" d="M71.8161 60.8401V50.0535H67.6658V60.8401V64.6001H71.8161H77.4251V60.8401H71.8161Z" fill="white"/>
<path fill-rule="evenodd" clip-rule="evenodd" d="M9.43823 64.6001H25.6696C25.6696 64.6001 22.5672 50.4439 32.8402 44.7116C35.0797 43.6226 42.2092 39.5545 53.8793 48.1838C54.2492 47.8757 54.5984 47.6291 54.5984 47.6291C54.5984 47.6291 43.9145 36.9657 32.0183 38.1574C26.0394 38.6916 18.684 44.1363 14.3693 51.3274C10.0546 58.5185 9.43823 64.6001 9.43823 64.6001Z" fill="white"/>
<path fill-rule="evenodd" clip-rule="evenodd" d="M9.43823 64.6001H25.6696C25.6696 64.6001 22.5672 50.4439 32.8402 44.7116C35.0797 43.6226 42.2092 39.5545 53.8793 48.1838C54.2492 47.8757 54.5984 47.6291 54.5984 47.6291C54.5984 47.6291 43.9145 36.9657 32.0183 38.1574C26.0394 38.6916 18.684 44.1363 14.3693 51.3274C10.0546 58.5185 9.43823 64.6001 9.43823 64.6001Z" fill="white"/>
<path fill-rule="evenodd" clip-rule="evenodd" d="M9.43823 64.6H25.6696C25.6696 64.6 22.5672 50.4438 32.8402 44.7115C35.0797 43.6225 42.2092 39.5544 53.8793 48.1837C54.2492 47.8756 54.5984 47.629 54.5984 47.629C54.5984 47.629 43.9145 36.9656 32.0183 38.1573C26.0189 38.6915 18.6634 44.1362 14.3487 51.3273C10.0341 58.5184 9.43823 64.6 9.43823 64.6ZM43.257 39.3079L43.3392 37.9313C43.1543 37.8285 42.6406 37.582 41.3462 37.2122L41.2641 38.5682C41.9421 38.7942 42.5996 39.0408 43.257 39.3079Z" fill="white"/>
<path fill-rule="evenodd" clip-rule="evenodd" d="M41.3051 43.6637L41.223 44.9581C41.901 44.9786 42.579 45.0608 43.257 45.2046L43.3392 43.9308C42.6406 43.787 41.9626 43.7048 41.3051 43.6637ZM33.7031 37.2533H33.9086L33.4976 36C32.8607 36 32.2032 36.0411 31.5252 36.1233L31.9156 37.3355C32.5114 37.2739 33.1073 37.2533 33.7031 37.2533ZM34.6893 44.8143L35.1619 46.2319C35.7577 45.9443 36.3535 45.6977 36.9494 45.5128L36.4974 44.1568C35.7988 44.3622 35.203 44.5882 34.6893 44.8143ZM25.3614 39.4106L24.4368 37.993C23.9232 38.2601 23.389 38.5477 22.8342 38.8764L23.7794 40.3147C24.3136 39.9859 24.8272 39.6777 25.3614 39.4106ZM29.5733 48.6564L30.5596 50.1357C30.9088 49.622 31.3198 49.1495 31.7718 48.6769L30.8472 47.2798C30.3746 47.7112 29.9432 48.1838 29.5733 48.6564ZM26.5942 55.2722L28.2584 56.5871C28.3406 55.7858 28.4844 54.9845 28.6899 54.1833L27.2106 53.0121C26.9435 53.7723 26.7585 54.5325 26.5942 55.2722ZM17.595 45.5128L16.1362 44.239C15.602 44.7526 15.0884 45.2663 14.6158 45.7799L16.1979 47.136C16.6293 46.5812 17.1019 46.0265 17.595 45.5128ZM11.3901 54.6969L9.0273 53.834C8.63693 54.7174 8.20546 55.7447 8 56.2995L10.3628 57.1624C10.6299 56.4639 11.0614 55.4571 11.3901 54.6969ZM26.286 60.4909C26.3271 61.5798 26.4298 62.4633 26.5325 63.0797L28.9981 63.9632C28.8131 63.1619 28.6282 62.2578 28.505 61.2922L26.286 60.4909Z" fill="white"/>
</g>
<defs>
<clipPath id="clip0_357_857">
<rect width="100" height="100" fill="white"/>
</clipPath>
</defs>
</svg>
