<svg width="100" height="100" viewBox="0 0 100 100" fill="none" xmlns="http://www.w3.org/2000/svg">
<g clip-path="url(#clip0_357_881)">
<path d="M92.726 18.9657L52.3362 90.6335C51.5023 92.1132 49.3598 92.1219 48.5134 90.6494L7.32274 18.9726C6.40061 17.368 7.78339 15.4243 9.61586 15.7493L50.0489 22.9208C50.3068 22.9666 50.5709 22.9662 50.8288 22.9195L90.4163 15.7596C92.2426 15.4293 93.6319 17.3579 92.726 18.9657Z" fill="url(#paint0_linear_357_881)"/>
<path d="M69.3095 6.34305L39.4198 12.1547C38.9286 12.2502 38.5648 12.6633 38.5352 13.1591L36.6966 43.973C36.6533 44.6988 37.325 45.2621 38.0389 45.0987L46.3606 43.193C47.1392 43.0148 47.8427 43.6953 47.6827 44.4722L45.2103 56.4858C45.0439 57.2943 45.8089 57.9857 46.6047 57.7459L51.7446 56.1963C52.5414 55.9562 53.307 56.6496 53.1385 57.4588L49.2094 76.3293C48.9636 77.5097 50.5458 78.1534 51.2057 77.1414L51.6464 76.4655L76.0022 28.2336C76.41 27.426 75.7067 26.5052 74.8129 26.6764L66.2471 28.3168C65.4421 28.4708 64.7572 27.727 64.9844 26.9455L70.5752 7.71369C70.8026 6.9309 70.1153 6.18639 69.3095 6.34305Z" fill="url(#paint1_linear_357_881)"/>
</g>
<defs>
<linearGradient id="paint0_linear_357_881" x1="6.31704" y1="13.188" x2="56.0825" y2="81.298" gradientUnits="userSpaceOnUse">
<stop stop-color="#41D1FF"/>
<stop offset="1" stop-color="#BD34FE"/>
</linearGradient>
<linearGradient id="paint1_linear_357_881" x1="47.7284" y1="7.92091" x2="56.685" y2="69.8393" gradientUnits="userSpaceOnUse">
<stop stop-color="#FFEA83"/>
<stop offset="0.0833333" stop-color="#FFDD35"/>
<stop offset="1" stop-color="#FFA800"/>
</linearGradient>
<clipPath id="clip0_357_881">
<rect width="100" height="100" fill="white"/>
</clipPath>
</defs>
</svg>
