<svg width="101" height="100" viewBox="0 0 101 100" fill="none" xmlns="http://www.w3.org/2000/svg">
<path d="M18.2083 8.06015e-06H82.7917C85.1178 -0.00224053 87.4215 0.466009 89.5709 1.37796C91.7204 2.28991 93.6734 3.62765 95.3182 5.31463C96.963 7.00162 98.2673 9.00471 99.1565 11.2093C100.046 13.4139 100.502 15.7766 100.5 18.1624V81.8376C100.502 84.2234 100.046 86.5861 99.1565 88.7907C98.2673 90.9953 96.963 92.9984 95.3182 94.6854C93.6734 96.3723 91.7204 97.7101 89.5709 98.622C87.4215 99.534 85.1178 100.002 82.7917 100H18.2083C15.8822 100.002 13.5785 99.534 11.4291 98.622C9.2796 97.7101 7.32658 96.3723 5.68177 94.6854C4.03696 92.9984 2.73266 90.9953 1.84351 88.7907C0.954359 86.5861 0.497815 84.2234 0.500008 81.8376V18.1624C0.497815 15.7766 0.954359 13.4139 1.84351 11.2093C2.73266 9.00471 4.03696 7.00162 5.68177 5.31463C7.32658 3.62765 9.2796 2.28991 11.4291 1.37796C13.5785 0.466009 15.8822 -0.00224053 18.2083 8.06015e-06Z" fill="#000B1D"/>
<path d="M82.7245 22.8093L68.4337 15.9286C66.7796 15.1321 64.8027 15.4681 63.5046 16.7663L16.7219 59.4211C15.4635 60.5683 15.465 62.5495 16.725 63.6949L20.5463 67.1689C21.5765 68.1054 23.1278 68.1743 24.2369 67.3329L80.5741 24.5943C82.4642 23.1605 85.1788 24.5086 85.1788 26.8809V26.715C85.1788 25.0498 84.2249 23.5317 82.7245 22.8093Z" fill="#0065A9"/>
<g filter="url(#filter0_d_154_2084)">
<path d="M82.7245 77.1908L68.4337 84.0715C66.7796 84.8681 64.8027 84.532 63.5046 83.2338L16.7219 40.579C15.4635 39.4317 15.465 37.4506 16.725 36.3051L20.5463 32.8312C21.5765 31.8947 23.1278 31.8257 24.2369 32.6671L80.5741 75.4057C82.4642 76.8395 85.1788 75.4915 85.1788 73.1192V73.2851C85.1788 74.9503 84.2249 76.4683 82.7245 77.1908Z" fill="#007ACC"/>
</g>
<g filter="url(#filter1_d_154_2084)">
<path d="M68.4343 84.0729C66.7797 84.8689 64.8028 84.5321 63.5045 83.2338C65.1042 84.8335 67.8394 83.7005 67.8394 81.4383V18.5617C67.8394 16.2994 65.1042 15.1665 63.5045 16.7662C64.8028 15.4679 66.7797 15.1314 68.4343 15.9272L82.7226 22.7985C84.224 23.5205 85.1788 25.0391 85.1788 26.705V73.2952C85.1788 74.9612 84.224 76.4798 82.7225 77.2018L68.4343 84.0729Z" fill="#1F9CF0"/>
</g>
<g style="mix-blend-mode:overlay" opacity="0.25">
<path style="mix-blend-mode:overlay" fill-rule="evenodd" clip-rule="evenodd" d="M64.9618 84.2052C66.0542 84.6307 67.2999 84.6034 68.4024 84.0729L82.6819 77.2018C84.1824 76.4798 85.1367 74.9612 85.1367 73.2952V26.7051C85.1367 25.039 84.1825 23.5204 82.682 22.7984L68.4024 15.9272C66.9555 15.2309 65.2619 15.4014 63.9919 16.3247C63.8106 16.4566 63.6377 16.6039 63.4756 16.7661L36.139 41.7058L24.2318 32.6672C23.1234 31.8258 21.5729 31.8948 20.5435 32.8312L16.7244 36.3052C15.4652 37.4507 15.4637 39.4318 16.7213 40.5791L27.0476 50L16.7213 59.421C15.4637 60.5683 15.4652 62.5494 16.7244 63.6948L20.5435 67.1688C21.5729 68.1052 23.1234 68.1742 24.2318 67.3328L36.139 58.2942L63.4756 83.2339C63.908 83.6665 64.4158 83.9924 64.9618 84.2052ZM67.8078 34.2551L47.0656 50L67.8078 65.745V34.2551Z" fill="url(#paint0_linear_154_2084)"/>
</g>
<defs>
<filter id="filter0_d_154_2084" x="7.44571" y="23.7463" width="86.0665" height="69.0866" filterUnits="userSpaceOnUse" color-interpolation-filters="sRGB">
<feFlood flood-opacity="0" result="BackgroundImageFix"/>
<feColorMatrix in="SourceAlpha" type="matrix" values="0 0 0 0 0 0 0 0 0 0 0 0 0 0 0 0 0 0 127 0" result="hardAlpha"/>
<feOffset/>
<feGaussianBlur stdDeviation="4.16667"/>
<feColorMatrix type="matrix" values="0 0 0 0 0 0 0 0 0 0 0 0 0 0 0 0 0 0 0.25 0"/>
<feBlend mode="overlay" in2="BackgroundImageFix" result="effect1_dropShadow_154_2084"/>
<feBlend mode="normal" in="SourceGraphic" in2="effect1_dropShadow_154_2084" result="shape"/>
</filter>
<filter id="filter1_d_154_2084" x="55.1712" y="7.16666" width="38.3409" height="85.6669" filterUnits="userSpaceOnUse" color-interpolation-filters="sRGB">
<feFlood flood-opacity="0" result="BackgroundImageFix"/>
<feColorMatrix in="SourceAlpha" type="matrix" values="0 0 0 0 0 0 0 0 0 0 0 0 0 0 0 0 0 0 127 0" result="hardAlpha"/>
<feOffset/>
<feGaussianBlur stdDeviation="4.16667"/>
<feColorMatrix type="matrix" values="0 0 0 0 0 0 0 0 0 0 0 0 0 0 0 0 0 0 0.25 0"/>
<feBlend mode="overlay" in2="BackgroundImageFix" result="effect1_dropShadow_154_2084"/>
<feBlend mode="normal" in="SourceGraphic" in2="effect1_dropShadow_154_2084" result="shape"/>
</filter>
<linearGradient id="paint0_linear_154_2084" x1="50.4578" y1="15.5" x2="50.4578" y2="84.5001" gradientUnits="userSpaceOnUse">
<stop stop-color="white"/>
<stop offset="1" stop-color="white" stop-opacity="0"/>
</linearGradient>
</defs>
</svg>
